<?xml version="1.0" encoding="UTF-8"?>
<!--Generator: Apple Native CoreSVG 148-->
<!DOCTYPE svg
PUBLIC "-//W3C//DTD SVG 1.1//EN"
       "http://www.w3.org/Graphics/SVG/1.1/DTD/svg11.dtd">
<svg version="1.1" xmlns="http://www.w3.org/2000/svg" xmlns:xlink="http://www.w3.org/1999/xlink" width="3300" height="2200">
 <!--glyph: "uni100263.medium", point size: 100.000000, font version: "Version 16.0d11e1", template writer version: "8"-->
 <g id="Notes">
  <rect height="2200" id="artboard" style="fill:white;opacity:1" width="3300" x="0" y="0"/>
  <line id="" style="fill:none;stroke:black;opacity:1;stroke-width:0.5;" x1="263" x2="3036" y1="292" y2="292"/>
  <text style="stroke:none;fill:black;font-family:-apple-system,&quot;SF Pro Display&quot;,&quot;SF Pro Text&quot;,Helvetica,sans-serif;font-weight:bold;" transform="matrix(1 0 0 1 263 322)">Weight/Scale Variations</text>
  <text style="stroke:none;fill:black;font-family:-apple-system,&quot;SF Pro Display&quot;,&quot;SF Pro Text&quot;,Helvetica,sans-serif;text-anchor:middle;" transform="matrix(1 0 0 1 559.711 322)">Ultralight</text>
  <text style="stroke:none;fill:black;font-family:-apple-system,&quot;SF Pro Display&quot;,&quot;SF Pro Text&quot;,Helvetica,sans-serif;text-anchor:middle;" transform="matrix(1 0 0 1 856.422 322)">Thin</text>
  <text style="stroke:none;fill:black;font-family:-apple-system,&quot;SF Pro Display&quot;,&quot;SF Pro Text&quot;,Helvetica,sans-serif;text-anchor:middle;" transform="matrix(1 0 0 1 1153.13 322)">Light</text>
  <text style="stroke:none;fill:black;font-family:-apple-system,&quot;SF Pro Display&quot;,&quot;SF Pro Text&quot;,Helvetica,sans-serif;text-anchor:middle;" transform="matrix(1 0 0 1 1449.84 322)">Regular</text>
  <text style="stroke:none;fill:black;font-family:-apple-system,&quot;SF Pro Display&quot;,&quot;SF Pro Text&quot;,Helvetica,sans-serif;text-anchor:middle;" transform="matrix(1 0 0 1 1746.56 322)">Medium</text>
  <text style="stroke:none;fill:black;font-family:-apple-system,&quot;SF Pro Display&quot;,&quot;SF Pro Text&quot;,Helvetica,sans-serif;text-anchor:middle;" transform="matrix(1 0 0 1 2043.27 322)">Semibold</text>
  <text style="stroke:none;fill:black;font-family:-apple-system,&quot;SF Pro Display&quot;,&quot;SF Pro Text&quot;,Helvetica,sans-serif;text-anchor:middle;" transform="matrix(1 0 0 1 2339.98 322)">Bold</text>
  <text style="stroke:none;fill:black;font-family:-apple-system,&quot;SF Pro Display&quot;,&quot;SF Pro Text&quot;,Helvetica,sans-serif;text-anchor:middle;" transform="matrix(1 0 0 1 2636.69 322)">Heavy</text>
  <text style="stroke:none;fill:black;font-family:-apple-system,&quot;SF Pro Display&quot;,&quot;SF Pro Text&quot;,Helvetica,sans-serif;text-anchor:middle;" transform="matrix(1 0 0 1 2933.4 322)">Black</text>
  <line id="" style="fill:none;stroke:black;opacity:1;stroke-width:0.5;" x1="263" x2="3036" y1="1903" y2="1903"/>
  <g id="" transform="matrix(1 0 0 1 263 1933)">
   <path d="M 9.24805 0.830078 C 13.5547 0.830078 17.1387 -2.74414 17.1387 -7.05078 C 17.1387 -11.3574 13.5449 -14.9316 9.23828 -14.9316 C 4.94141 -14.9316 1.36719 -11.3574 1.36719 -7.05078 C 1.36719 -2.74414 4.95117 0.830078 9.24805 0.830078 Z M 9.24805 -0.654297 C 5.70312 -0.654297 2.87109 -3.49609 2.87109 -7.05078 C 2.87109 -10.6055 5.69336 -13.4473 9.23828 -13.4473 C 12.793 -13.4473 15.6348 -10.6055 15.6445 -7.05078 C 15.6543 -3.49609 12.8027 -0.654297 9.24805 -0.654297 Z M 9.22852 -3.62305 C 9.69727 -3.62305 9.9707 -3.93555 9.9707 -4.45312 L 9.9707 -6.31836 L 12.002 -6.31836 C 12.5 -6.31836 12.832 -6.57227 12.832 -7.04102 C 12.832 -7.51953 12.5195 -7.7832 12.002 -7.7832 L 9.9707 -7.7832 L 9.9707 -9.81445 C 9.9707 -10.332 9.69727 -10.6543 9.22852 -10.6543 C 8.75977 -10.6543 8.50586 -10.3125 8.50586 -9.81445 L 8.50586 -7.7832 L 6.49414 -7.7832 C 5.97656 -7.7832 5.64453 -7.51953 5.64453 -7.04102 C 5.64453 -6.57227 5.99609 -6.31836 6.49414 -6.31836 L 8.50586 -6.31836 L 8.50586 -4.45312 C 8.50586 -3.95508 8.75977 -3.62305 9.22852 -3.62305 Z"/>
  </g>
  <g id="" transform="matrix(1 0 0 1 281.506 1933)">
   <path d="M 11.709 2.91016 C 17.1582 2.91016 21.6699 -1.61133 21.6699 -7.05078 C 21.6699 -12.5 17.1484 -17.0117 11.6992 -17.0117 C 6.25977 -17.0117 1.74805 -12.5 1.74805 -7.05078 C 1.74805 -1.61133 6.26953 2.91016 11.709 2.91016 Z M 11.709 1.25 C 7.09961 1.25 3.41797 -2.44141 3.41797 -7.05078 C 3.41797 -11.6602 7.08984 -15.3516 11.6992 -15.3516 C 16.3086 -15.3516 20 -11.6602 20.0098 -7.05078 C 20.0195 -2.44141 16.3184 1.25 11.709 1.25 Z M 11.6797 -2.66602 C 12.207 -2.66602 12.5098 -3.01758 12.5098 -3.59375 L 12.5098 -6.23047 L 15.3223 -6.23047 C 15.8691 -6.23047 16.25 -6.51367 16.25 -7.03125 C 16.25 -7.55859 15.8887 -7.86133 15.3223 -7.86133 L 12.5098 -7.86133 L 12.5098 -10.6836 C 12.5098 -11.25 12.207 -11.6113 11.6797 -11.6113 C 11.1621 -11.6113 10.8789 -11.2305 10.8789 -10.6836 L 10.8789 -7.86133 L 8.07617 -7.86133 C 7.50977 -7.86133 7.13867 -7.55859 7.13867 -7.03125 C 7.13867 -6.51367 7.5293 -6.23047 8.07617 -6.23047 L 10.8789 -6.23047 L 10.8789 -3.59375 C 10.8789 -3.03711 11.1621 -2.66602 11.6797 -2.66602 Z"/>
  </g>
  <g id="" transform="matrix(1 0 0 1 304.924 1933)">
   <path d="M 14.9707 5.66406 C 21.9336 5.66406 27.6953 -0.0976562 27.6953 -7.05078 C 27.6953 -14.0137 21.9238 -19.7754 14.9609 -19.7754 C 8.00781 -19.7754 2.25586 -14.0137 2.25586 -7.05078 C 2.25586 -0.0976562 8.01758 5.66406 14.9707 5.66406 Z M 14.9707 3.84766 C 8.93555 3.84766 4.08203 -1.01562 4.08203 -7.05078 C 4.08203 -13.0957 8.92578 -17.9492 14.9609 -17.9492 C 21.0059 -17.9492 25.8594 -13.0957 25.8691 -7.05078 C 25.8789 -1.01562 21.0156 3.84766 14.9707 3.84766 Z M 14.9414 -1.38672 C 15.5176 -1.38672 15.8594 -1.77734 15.8594 -2.38281 L 15.8594 -6.13281 L 19.7754 -6.13281 C 20.3711 -6.13281 20.7812 -6.46484 20.7812 -7.02148 C 20.7812 -7.59766 20.3906 -7.93945 19.7754 -7.93945 L 15.8594 -7.93945 L 15.8594 -11.8652 C 15.8594 -12.4805 15.5176 -12.8711 14.9414 -12.8711 C 14.375 -12.8711 14.0527 -12.4609 14.0527 -11.8652 L 14.0527 -7.93945 L 10.1465 -7.93945 C 9.53125 -7.93945 9.13086 -7.59766 9.13086 -7.02148 C 9.13086 -6.46484 9.55078 -6.13281 10.1465 -6.13281 L 14.0527 -6.13281 L 14.0527 -2.38281 C 14.0527 -1.79688 14.375 -1.38672 14.9414 -1.38672 Z"/>
  </g>
  <text style="stroke:none;fill:black;font-family:-apple-system,&quot;SF Pro Display&quot;,&quot;SF Pro Text&quot;,Helvetica,sans-serif;font-weight:bold;" transform="matrix(1 0 0 1 263 1953)">Design Variations</text>
  <text style="stroke:none;fill:black;font-family:-apple-system,&quot;SF Pro Display&quot;,&quot;SF Pro Text&quot;,Helvetica,sans-serif;" transform="matrix(1 0 0 1 263 1971)">Symbols are supported in up to nine weights and three scales.</text>
  <text style="stroke:none;fill:black;font-family:-apple-system,&quot;SF Pro Display&quot;,&quot;SF Pro Text&quot;,Helvetica,sans-serif;" transform="matrix(1 0 0 1 263 1989)">For optimal layout with text and other symbols, vertically align</text>
  <text style="stroke:none;fill:black;font-family:-apple-system,&quot;SF Pro Display&quot;,&quot;SF Pro Text&quot;,Helvetica,sans-serif;" transform="matrix(1 0 0 1 263 2007)">symbols with the adjacent text.</text>
  <line id="" style="fill:none;stroke:#00AEEF;stroke-width:0.5;opacity:1.0;" x1="776" x2="776" y1="1919" y2="1933"/>
  <g id="" transform="matrix(1 0 0 1 776 1933)">
   <path d="M 3.31055 0.126953 C 3.82812 0.126953 4.08203 -0.0683594 4.26758 -0.605469 L 5.52734 -4.0625 L 11.2891 -4.0625 L 12.5488 -0.605469 C 12.7344 -0.0683594 12.9883 0.126953 13.4961 0.126953 C 14.0137 0.126953 14.3457 -0.185547 14.3457 -0.673828 C 14.3457 -0.839844 14.3164 -0.986328 14.2383 -1.20117 L 9.6582 -13.3887 C 9.43359 -13.9941 9.0332 -14.2871 8.4082 -14.2871 C 7.80273 -14.2871 7.39258 -13.9941 7.17773 -13.3984 L 2.59766 -1.19141 C 2.51953 -0.976562 2.49023 -0.830078 2.49023 -0.664062 C 2.49023 -0.175781 2.80273 0.126953 3.31055 0.126953 Z M 6.00586 -5.53711 L 8.37891 -12.1094 L 8.42773 -12.1094 L 10.8008 -5.53711 Z"/>
  </g>
  <line id="" style="fill:none;stroke:#00AEEF;stroke-width:0.5;opacity:1.0;" x1="792.836" x2="792.836" y1="1919" y2="1933"/>
  <text style="stroke:none;fill:black;font-family:-apple-system,&quot;SF Pro Display&quot;,&quot;SF Pro Text&quot;,Helvetica,sans-serif;font-weight:bold;" transform="matrix(1 0 0 1 776 1953)">Margins</text>
  <text style="stroke:none;fill:black;font-family:-apple-system,&quot;SF Pro Display&quot;,&quot;SF Pro Text&quot;,Helvetica,sans-serif;" transform="matrix(1 0 0 1 776 1971)">Leading and trailing margins on the left and right side of each symbol</text>
  <text style="stroke:none;fill:black;font-family:-apple-system,&quot;SF Pro Display&quot;,&quot;SF Pro Text&quot;,Helvetica,sans-serif;" transform="matrix(1 0 0 1 776 1989)">can be adjusted by modifying the x-location of the margin guidelines.</text>
  <text style="stroke:none;fill:black;font-family:-apple-system,&quot;SF Pro Display&quot;,&quot;SF Pro Text&quot;,Helvetica,sans-serif;" transform="matrix(1 0 0 1 776 2007)">Modifications are automatically applied proportionally to all</text>
  <text style="stroke:none;fill:black;font-family:-apple-system,&quot;SF Pro Display&quot;,&quot;SF Pro Text&quot;,Helvetica,sans-serif;" transform="matrix(1 0 0 1 776 2025)">scales and weights.</text>
  <g id="" transform="matrix(1 0 0 1 1289 1933)">
   <path d="M 2.8418 1.86523 L 4.54102 3.57422 C 5.40039 4.44336 6.38672 4.38477 7.31445 3.35938 L 17.4902 -7.85156 C 17.7539 -7.76367 18.0273 -7.7832 18.3398 -7.8418 L 19.4043 -8.03711 L 20.0684 -7.36328 L 20.0293 -6.80664 C 19.9902 -6.30859 20.1172 -5.92773 20.6055 -5.44922 L 21.3672 -4.70703 C 21.8457 -4.22852 22.4609 -4.19922 22.9297 -4.66797 L 25.8398 -7.58789 C 26.3086 -8.05664 26.2891 -8.65234 25.8105 -9.13086 L 25.0391 -9.89258 C 24.5605 -10.3711 24.1895 -10.5273 23.7109 -10.4883 L 23.1348 -10.4395 L 22.4902 -11.0742 L 22.7344 -12.1973 C 22.8613 -12.7637 22.7051 -13.2031 22.1191 -13.7891 L 19.9219 -15.9766 C 16.582 -19.2969 12.1484 -19.2188 9.25781 -16.3281 C 8.83789 -15.918 8.80859 -15.3418 9.04297 -14.9512 C 9.27734 -14.5898 9.73633 -14.3555 10.3809 -14.5215 C 11.8457 -14.8633 13.3691 -14.9219 14.7949 -13.9844 L 14.209 -12.5293 C 14.0137 -12.0508 13.9844 -11.6504 14.1113 -11.2891 L 3.04688 -0.898438 C 2.06055 0.0195312 1.98242 0.996094 2.8418 1.86523 Z M 10.752 -15.957 C 13.1836 -17.7344 16.4746 -17.4316 18.7012 -15.2051 L 21.1328 -12.793 C 21.3672 -12.5586 21.4062 -12.373 21.3379 -12.0312 L 21.0156 -10.5469 L 22.5195 -9.0625 L 23.5059 -9.12109 C 23.7598 -9.13086 23.8379 -9.11133 24.0332 -8.91602 L 24.6094 -8.33984 L 22.168 -5.89844 L 21.5918 -6.47461 C 21.3965 -6.66992 21.3672 -6.74805 21.377 -7.01172 L 21.4453 -7.98828 L 19.9512 -9.47266 L 18.4277 -9.21875 C 18.1055 -9.15039 17.959 -9.17969 17.7148 -9.41406 L 15.7129 -11.416 C 15.459 -11.6504 15.4297 -11.8164 15.5859 -12.1875 L 16.4648 -14.2773 C 14.9023 -15.7324 12.8711 -16.3574 10.8398 -15.7617 C 10.6836 -15.7227 10.625 -15.8496 10.752 -15.957 Z M 5.27344 2.30469 L 4.10156 1.14258 C 3.63281 0.683594 3.74023 0.341797 4.14062 -0.0195312 L 14.9512 -10.1953 L 16.416 -8.71094 L 6.42578 2.27539 C 6.07422 2.67578 5.74219 2.77344 5.27344 2.30469 Z"/>
  </g>
  <text style="stroke:none;fill:black;font-family:-apple-system,&quot;SF Pro Display&quot;,&quot;SF Pro Text&quot;,Helvetica,sans-serif;font-weight:bold;" transform="matrix(1 0 0 1 1289 1953)">Exporting</text>
  <text style="stroke:none;fill:black;font-family:-apple-system,&quot;SF Pro Display&quot;,&quot;SF Pro Text&quot;,Helvetica,sans-serif;" transform="matrix(1 0 0 1 1289 1971)">Symbols should be outlined when exporting to ensure the</text>
  <text style="stroke:none;fill:black;font-family:-apple-system,&quot;SF Pro Display&quot;,&quot;SF Pro Text&quot;,Helvetica,sans-serif;" transform="matrix(1 0 0 1 1289 1989)">design is preserved when submitting to Xcode.</text>
  <text id="template-version" style="stroke:none;fill:black;font-family:-apple-system,&quot;SF Pro Display&quot;,&quot;SF Pro Text&quot;,Helvetica,sans-serif;text-anchor:end;" transform="matrix(1 0 0 1 3036 1933)">Template v.2.0</text>
  <text style="stroke:none;fill:black;font-family:-apple-system,&quot;SF Pro Display&quot;,&quot;SF Pro Text&quot;,Helvetica,sans-serif;text-anchor:end;" transform="matrix(1 0 0 1 3036 1951)">Requires Xcode 12 or greater</text>
  <text style="stroke:none;fill:black;font-family:-apple-system,&quot;SF Pro Display&quot;,&quot;SF Pro Text&quot;,Helvetica,sans-serif;text-anchor:end;" transform="matrix(1 0 0 1 3036 1969)">Generated from link</text>
  <text style="stroke:none;fill:black;font-family:-apple-system,&quot;SF Pro Display&quot;,&quot;SF Pro Text&quot;,Helvetica,sans-serif;text-anchor:end;" transform="matrix(1 0 0 1 3036 1987)">Typeset at 100 points</text>
  <text style="stroke:none;fill:black;font-family:-apple-system,&quot;SF Pro Display&quot;,&quot;SF Pro Text&quot;,Helvetica,sans-serif;" transform="matrix(1 0 0 1 263 726)">Small</text>
  <text style="stroke:none;fill:black;font-family:-apple-system,&quot;SF Pro Display&quot;,&quot;SF Pro Text&quot;,Helvetica,sans-serif;" transform="matrix(1 0 0 1 263 1156)">Medium</text>
  <text style="stroke:none;fill:black;font-family:-apple-system,&quot;SF Pro Display&quot;,&quot;SF Pro Text&quot;,Helvetica,sans-serif;" transform="matrix(1 0 0 1 263 1586)">Large</text>
 </g>
 <g id="Guides">
  <g id="H-reference" style="fill:#27AAE1;stroke:none;" transform="matrix(1 0 0 1 339 696)">
   <path d="M 0.976562 0 L 3.66211 0 L 12.9883 -24.4629 L 45.7031 -24.4629 L 55.0781 0 L 57.7148 0 L 30.6152 -70.459 L 28.125 -70.459 Z M 29.2969 -67.1387 L 29.3945 -67.1387 L 44.873 -26.709 L 13.8672 -26.709 Z"/>
  </g>
  <line id="Baseline-S" style="fill:none;stroke:#27AAE1;opacity:1;stroke-width:0.5;" x1="263" x2="3036" y1="696" y2="696"/>
  <line id="Capline-S" style="fill:none;stroke:#27AAE1;opacity:1;stroke-width:0.5;" x1="263" x2="3036" y1="625.541" y2="625.541"/>
  <g id="H-reference" style="fill:#27AAE1;stroke:none;" transform="matrix(1 0 0 1 339 1126)">
   <path d="M 0.976562 0 L 3.66211 0 L 12.9883 -24.4629 L 45.7031 -24.4629 L 55.0781 0 L 57.7148 0 L 30.6152 -70.459 L 28.125 -70.459 Z M 29.2969 -67.1387 L 29.3945 -67.1387 L 44.873 -26.709 L 13.8672 -26.709 Z"/>
  </g>
  <line id="Baseline-M" style="fill:none;stroke:#27AAE1;opacity:1;stroke-width:0.5;" x1="263" x2="3036" y1="1126" y2="1126"/>
  <line id="Capline-M" style="fill:none;stroke:#27AAE1;opacity:1;stroke-width:0.5;" x1="263" x2="3036" y1="1055.54" y2="1055.54"/>
  <g id="H-reference" style="fill:#27AAE1;stroke:none;" transform="matrix(1 0 0 1 339 1556)">
   <path d="M 0.976562 0 L 3.66211 0 L 12.9883 -24.4629 L 45.7031 -24.4629 L 55.0781 0 L 57.7148 0 L 30.6152 -70.459 L 28.125 -70.459 Z M 29.2969 -67.1387 L 29.3945 -67.1387 L 44.873 -26.709 L 13.8672 -26.709 Z"/>
  </g>
  <line id="Baseline-L" style="fill:none;stroke:#27AAE1;opacity:1;stroke-width:0.5;" x1="263" x2="3036" y1="1556" y2="1556"/>
  <line id="Capline-L" style="fill:none;stroke:#27AAE1;opacity:1;stroke-width:0.5;" x1="263" x2="3036" y1="1485.54" y2="1485.54"/>
  <line id="left-margin" style="fill:none;stroke:#00AEEF;stroke-width:0.5;opacity:1.0;" x1="1386.83" x2="1386.83" y1="1030.79" y2="1150.12"/>
  <line id="right-margin" style="fill:none;stroke:#00AEEF;stroke-width:0.5;opacity:1.0;" x1="1512.86" x2="1512.86" y1="1030.79" y2="1150.12"/>
 </g>
 <g id="Symbols">
  <g id="Black-L" transform="matrix(1 0 0 1 2847.71 1556)">
   <path d="M 75.5859 -6.93359 L 89.4531 -20.8008 C 84.7168 -21.6309 79.7363 -23.877 76.9043 -26.709 C 67.334 -36.2793 67.2363 -49.4629 76.7578 -58.9355 L 98.8281 -80.957 C 108.35 -90.4785 121.484 -90.4297 131.055 -80.9082 C 140.625 -71.2891 140.674 -58.1543 131.201 -48.6816 L 126.025 -43.5059 C 128.906 -36.7676 130.322 -27.9297 127.832 -20.3125 L 144.287 -36.5723 C 161.182 -53.2227 161.035 -77.1973 144.189 -93.9941 C 127.344 -110.889 103.564 -110.889 86.7676 -94.0918 L 63.6719 -70.9961 C 46.875 -54.248 46.9238 -30.3711 63.7207 -13.5742 C 66.3574 -10.9375 70.9961 -8.25195 75.5859 -6.93359 Z M 95.8008 -64.2578 L 81.9336 -50.4395 C 86.6699 -49.5605 91.6504 -47.3633 94.4824 -44.5312 C 104.053 -34.9121 104.15 -21.7773 94.6289 -12.2559 L 72.5586 9.76562 C 63.0371 19.2871 49.9023 19.2383 40.332 9.66797 C 30.7617 0.0976562 30.7129 -13.0859 40.1855 -22.5586 L 45.3613 -27.7344 C 42.4805 -34.4238 41.0645 -43.3105 43.5547 -50.8789 L 27.0996 -34.6191 C 10.2051 -17.9688 10.3516 6.00586 27.1973 22.8027 C 44.043 39.6973 67.8223 39.6484 84.6191 22.9004 L 107.715 -0.195312 C 124.512 -16.9922 124.463 -40.8203 107.666 -57.6172 C 105.029 -60.2539 100.391 -62.9883 95.8008 -64.2578 Z"/>
  </g>
  <g id="Heavy-L" transform="matrix(1 0 0 1 2552.27 1556)">
   <path d="M 77.0508 -7.71484 L 89.3555 -20.0195 C 83.5938 -20.752 78.418 -23.0469 75.1465 -26.2695 C 65.1855 -36.2793 65.1367 -50.0977 75.0488 -60.0098 L 96.7773 -81.6895 C 106.689 -91.6016 120.508 -91.6016 130.42 -81.6406 C 140.43 -71.6797 140.43 -57.8613 130.566 -47.9492 L 123.34 -40.7227 C 125.879 -34.8145 127.051 -27.0996 125 -20.4102 L 142.09 -37.4023 C 158.496 -53.6133 158.398 -76.8555 142.041 -93.2129 C 125.635 -109.619 102.49 -109.57 86.2305 -93.2617 L 63.4766 -70.5566 C 47.2168 -54.248 47.168 -31.1035 63.5742 -14.7461 C 66.6016 -11.7188 71.4355 -8.93555 77.0508 -7.71484 Z M 91.7969 -63.5742 L 79.4922 -51.2695 C 85.2539 -50.5371 90.4297 -48.2422 93.7012 -45.0195 C 103.662 -35.0098 103.711 -21.1914 93.7988 -11.2793 L 72.0703 10.4004 C 62.1582 20.3125 48.3398 20.3125 38.4277 10.3516 C 28.418 0.390625 28.418 -13.4277 38.2812 -23.3398 L 45.5078 -30.5664 C 42.9688 -36.4746 41.7969 -44.1895 43.8477 -50.8789 L 26.7578 -33.8867 C 10.3516 -17.6758 10.4492 5.56641 26.8066 21.9238 C 43.2129 38.3301 66.3574 38.2812 82.6172 21.9727 L 105.371 -0.732422 C 121.631 -17.041 121.68 -40.1855 105.273 -56.543 C 102.246 -59.5703 97.4121 -62.3535 91.7969 -63.5742 Z"/>
  </g>
  <g id="Bold-L" transform="matrix(1 0 0 1 2256.97 1556)">
   <path d="M 78.6621 -8.59375 L 89.2578 -19.1406 C 82.373 -19.7266 76.9043 -22.1191 73.1934 -25.8301 C 62.793 -36.2305 62.793 -50.8789 73.1445 -61.1816 L 94.4824 -82.4707 C 104.834 -92.8711 119.434 -92.8711 129.785 -82.5195 C 140.234 -72.0703 140.186 -57.5195 129.834 -47.168 L 120.312 -37.6465 C 122.461 -32.6172 123.389 -26.123 121.777 -20.5078 L 139.648 -38.2812 C 155.469 -54.0039 155.469 -76.416 139.6 -92.2852 C 123.682 -108.203 101.318 -108.105 85.5957 -92.3828 L 63.2812 -70.0195 C 47.5586 -54.2969 47.5098 -31.9336 63.3789 -16.0645 C 66.8945 -12.5488 71.9727 -9.7168 78.6621 -8.59375 Z M 87.3535 -62.793 L 76.7578 -52.1973 C 83.6426 -51.6602 89.1113 -49.2676 92.8223 -45.5566 C 103.223 -35.1562 103.223 -20.5078 92.8711 -10.2051 L 71.5332 11.084 C 61.1816 21.4844 46.582 21.4844 36.2305 11.1328 C 25.7812 0.683594 25.8301 -13.8672 36.1816 -24.2188 L 45.7031 -33.7402 C 43.5547 -38.7695 42.627 -45.2148 44.2383 -50.8789 L 26.3672 -33.0566 C 10.5469 -17.3828 10.5469 5.0293 26.416 20.8984 C 42.334 36.8164 64.6973 36.7188 80.3711 20.9961 L 102.734 -1.31836 C 118.457 -17.0898 118.506 -39.4531 102.637 -55.3223 C 99.1211 -58.8379 94.043 -61.6699 87.3535 -62.793 Z"/>
  </g>
  <g id="Semibold-L" transform="matrix(1 0 0 1 1961.24 1556)">
   <path d="M 79.7852 -9.17969 L 89.1602 -18.5547 C 81.4941 -19.043 75.8789 -21.4844 71.8262 -25.5371 C 61.1328 -36.2305 61.1328 -51.3672 71.8262 -62.0117 L 92.8711 -83.0078 C 103.564 -93.7012 118.652 -93.75 129.297 -83.1055 C 140.039 -72.3633 139.99 -57.2754 129.346 -46.582 L 118.213 -35.498 C 120.117 -31.1035 120.85 -25.4883 119.58 -20.5566 L 137.988 -38.916 C 153.369 -54.248 153.467 -76.123 137.939 -91.6504 C 122.363 -107.227 100.537 -107.08 85.2051 -91.748 L 63.1836 -69.6777 C 47.8027 -54.3457 47.7051 -32.4707 63.2324 -16.9434 C 67.0898 -13.0859 72.3145 -10.2539 79.7852 -9.17969 Z M 84.2773 -62.2559 L 74.9023 -52.8809 C 82.5684 -52.3926 88.1836 -49.9512 92.2363 -45.8984 C 102.93 -35.2051 102.881 -20.0684 92.2363 -9.42383 L 71.1914 11.5723 C 60.498 22.2656 45.4102 22.3145 34.7168 11.6699 C 23.9746 0.927734 24.0723 -14.1602 34.7168 -24.8535 L 45.8496 -35.9375 C 43.9453 -40.332 43.2129 -45.9473 44.4824 -50.8789 L 26.0742 -32.5195 C 10.6934 -17.1875 10.5957 4.6875 26.123 20.2148 C 41.6992 35.791 63.5254 35.6445 78.8574 20.3125 L 100.879 -1.75781 C 116.26 -17.0898 116.357 -38.9648 100.83 -54.4922 C 96.9727 -58.3496 91.748 -61.1816 84.2773 -62.2559 Z"/>
  </g>
  <g id="Medium-L" transform="matrix(1 0 0 1 1665.28 1556)">
   <path d="M 80.6641 -9.61914 L 89.1113 -18.1152 C 80.8105 -18.5059 75.0977 -20.9961 70.8008 -25.293 C 59.8633 -36.2305 59.9121 -51.7578 70.8008 -62.6465 L 91.6504 -83.4473 C 102.588 -94.3848 118.066 -94.4336 128.955 -83.5449 C 139.941 -72.5586 139.844 -57.0801 128.955 -46.1914 L 116.65 -33.8867 C 118.359 -29.9316 118.896 -25 117.92 -20.6055 L 136.719 -39.4043 C 151.807 -54.4434 151.904 -75.9277 136.67 -91.1621 C 121.338 -106.494 99.9023 -106.299 84.8633 -91.2598 L 63.0371 -69.4336 C 47.998 -54.3457 47.8516 -32.9102 63.1348 -17.627 C 67.2363 -13.5254 72.5586 -10.6445 80.6641 -9.61914 Z M 81.9336 -61.8652 L 73.4375 -53.3691 C 81.7383 -52.9785 87.5 -50.4883 91.748 -46.1914 C 102.686 -35.2539 102.637 -19.7266 91.748 -8.83789 L 70.8984 11.9629 C 59.9609 22.9004 44.4824 22.9492 33.5938 12.0605 C 22.6074 1.07422 22.7051 -14.4043 33.6426 -25.293 L 45.9473 -37.5977 C 44.2383 -41.5527 43.6523 -46.4844 44.6777 -50.8301 L 25.8789 -32.0801 C 10.7422 -17.041 10.6445 4.44336 25.9277 19.7266 C 41.2109 35.0098 62.6465 34.8145 77.6855 19.7754 L 99.5117 -2.05078 C 114.6 -17.1387 114.697 -38.5742 99.4629 -53.8574 C 95.3613 -57.959 89.9902 -60.791 81.9336 -61.8652 Z"/>
  </g>
  <g id="Regular-L" transform="matrix(1 0 0 1 1369.52 1556)">
   <path d="M 81.7871 -10.2051 L 89.0137 -17.5293 C 79.9805 -17.8223 74.0723 -20.3613 69.4824 -25 C 58.252 -36.1816 58.3008 -52.2461 69.5312 -63.4277 L 90.0879 -83.9844 C 101.367 -95.2148 117.334 -95.3125 128.516 -84.1309 C 139.795 -72.8516 139.697 -56.8359 128.467 -45.6543 L 114.6 -31.7383 C 116.016 -28.418 116.406 -24.3652 115.723 -20.7031 L 135.059 -40.0391 C 149.756 -54.7363 149.902 -75.6348 135.01 -90.5762 C 120.02 -105.518 99.1211 -105.322 84.4727 -90.625 L 62.9395 -69.0918 C 48.2422 -54.3945 48.0469 -33.4473 62.9883 -18.5059 C 67.4316 -14.1113 72.9004 -11.1816 81.7871 -10.2051 Z M 78.8574 -61.3281 L 71.582 -54.0039 C 80.6641 -53.7109 86.5723 -51.1719 91.1621 -46.5332 C 102.393 -35.3516 102.344 -19.2871 91.1133 -8.10547 L 70.5566 12.4512 C 59.2773 23.6816 43.3105 23.7793 32.1289 12.5977 C 20.8496 1.31836 20.9473 -14.6973 32.1777 -25.8789 L 46.0449 -39.7949 C 44.6289 -43.1152 44.2383 -47.168 44.9219 -50.8301 L 25.5859 -31.4941 C 10.8887 -16.7969 10.6934 4.10156 25.6348 19.043 C 40.5762 33.9844 61.5234 33.7891 76.1719 19.0918 L 97.7051 -2.44141 C 112.402 -17.1875 112.598 -38.0859 97.6562 -53.0273 C 93.2129 -57.4219 87.6953 -60.3516 78.8574 -61.3281 Z"/>
  </g>
  <g id="Light-L" transform="matrix(1 0 0 1 1074.18 1556)">
   <path d="M 83.4473 -10.7422 L 89.209 -16.5039 C 79.1016 -16.2109 72.5098 -18.9453 67.2852 -24.1699 C 55.7617 -35.6934 55.8594 -52.3926 67.4805 -63.9648 L 87.9883 -84.4238 C 99.6582 -96.0449 116.26 -96.1914 127.734 -84.7168 C 139.307 -73.1445 139.16 -56.543 127.539 -44.9219 L 111.572 -28.9551 C 112.646 -26.5625 112.988 -23.3398 112.207 -20.2637 L 132.715 -40.7227 C 146.875 -54.8828 147.07 -75.1465 132.666 -89.5996 C 118.213 -104.053 97.9492 -103.76 83.8379 -89.6484 L 62.3047 -68.1152 C 48.1445 -53.9551 47.9004 -33.6914 62.3535 -19.2871 C 67.4316 -14.209 73.584 -11.1816 83.4473 -10.7422 Z M 74.4141 -60.8398 L 68.6523 -55.0781 C 78.7598 -55.3223 85.4004 -52.5879 90.625 -47.4121 C 102.148 -35.8398 102.051 -19.1895 90.4297 -7.61719 L 69.873 12.8906 C 58.252 24.5117 41.6504 24.6582 30.1758 13.1348 C 18.6035 1.5625 18.7012 -14.9902 30.3223 -26.6113 L 46.2891 -42.5781 C 45.2637 -44.9707 44.9219 -48.2422 45.7031 -51.3184 L 25.1953 -30.8105 C 11.0352 -16.6504 10.791 3.61328 25.2441 18.0176 C 39.6973 32.5195 59.9609 32.2266 74.0723 18.1152 L 95.5566 -3.41797 C 109.717 -17.5781 109.961 -37.8418 95.5566 -52.2461 C 90.4785 -57.3242 84.3262 -60.4004 74.4141 -60.8398 Z"/>
  </g>
  <g id="Thin-L" transform="matrix(1 0 0 1 779.298 1556)">
   <path d="M 85.6934 -11.4258 L 89.4531 -15.1367 C 77.9785 -14.1113 70.459 -17.041 64.4043 -23.0957 C 52.4414 -35.0586 52.5879 -52.5391 64.7461 -64.5996 L 85.2539 -85.0586 C 97.4121 -97.1191 114.844 -97.3633 126.709 -85.498 C 138.672 -73.5352 138.525 -56.1523 126.367 -43.9453 L 107.617 -25.2441 C 108.154 -24.1211 108.398 -21.9727 107.568 -19.6777 L 129.59 -41.6992 C 143.018 -55.127 143.359 -74.5117 129.59 -88.2812 C 115.723 -102.148 96.3867 -101.758 82.959 -88.3789 L 61.5234 -66.8945 C 48.0469 -53.418 47.7539 -34.0332 61.5234 -20.2637 C 67.3828 -14.4043 74.4141 -11.1328 85.6934 -11.4258 Z M 68.5547 -60.1562 L 64.7949 -56.4453 C 76.2695 -57.4707 83.8379 -54.541 89.8926 -48.4863 C 101.807 -36.5234 101.66 -19.043 89.502 -6.98242 L 68.9941 13.4766 C 56.8359 25.5859 39.4531 25.7812 27.5391 13.916 C 15.5762 1.95312 15.7715 -15.4297 27.9297 -27.5879 L 46.6309 -46.3379 C 46.0938 -47.4609 45.8496 -49.6094 46.6797 -51.9043 L 24.6582 -29.8828 C 11.2305 -16.4062 10.9375 2.92969 24.6582 16.6992 C 38.5254 30.5664 57.9102 30.1758 71.2891 16.7969 L 92.7734 -4.6875 C 106.201 -18.1641 106.494 -37.5488 92.7246 -51.2695 C 86.8652 -57.1777 79.834 -60.4492 68.5547 -60.1562 Z"/>
  </g>
  <g id="Ultralight-L" transform="matrix(1 0 0 1 483.515 1556)">
   <path d="M 86.8652 -11.8164 L 89.5508 -14.4043 C 77.3926 -13.0371 69.3848 -16.0645 62.8906 -22.5586 C 50.7324 -34.7168 50.9277 -52.5879 63.3301 -64.9414 L 83.8379 -85.3516 C 96.2891 -97.7051 114.111 -97.9492 126.172 -85.8887 C 138.33 -73.7305 138.184 -55.9082 125.732 -43.457 L 105.566 -23.3398 C 105.859 -22.8516 106.104 -21.2402 105.176 -19.3848 L 127.979 -42.1875 C 141.064 -55.2734 141.406 -74.2188 127.979 -87.6465 C 114.502 -101.123 95.5566 -100.732 82.5684 -87.6953 L 61.084 -66.2598 C 47.998 -53.1738 47.6562 -34.2285 61.084 -20.8008 C 67.3828 -14.502 74.8535 -11.1328 86.8652 -11.8164 Z M 65.5273 -59.7656 L 62.8418 -57.1777 C 75 -58.5449 83.0078 -55.5176 89.502 -49.0723 C 101.66 -36.8652 101.465 -18.9941 89.0625 -6.64062 L 68.5547 13.7695 C 56.1035 26.123 38.2812 26.3672 26.2207 14.3066 C 14.0625 2.14844 14.209 -15.6738 26.6602 -28.125 L 46.8262 -48.2422 C 46.5332 -48.7305 46.3379 -50.3418 47.2168 -52.2461 L 24.4141 -29.3945 C 11.3281 -16.3086 10.9863 2.58789 24.4141 16.0156 C 37.8906 29.541 56.8359 29.1016 69.8242 16.1133 L 91.3086 -5.32227 C 104.395 -18.457 104.736 -37.3535 91.3086 -50.7812 C 85.0098 -57.1289 77.5391 -60.4492 65.5273 -59.7656 Z"/>
  </g>
  <g id="Black-M" transform="matrix(1 0 0 1 2866.02 1126)">
   <path d="M 57.5195 -12.5977 L 69.5801 -24.5117 C 66.6992 -25.0488 62.793 -26.7578 60.791 -28.7109 C 53.7109 -35.791 53.6621 -45.4102 60.6934 -52.4414 L 78.2715 -69.9707 C 85.3027 -77.002 94.9219 -76.9531 101.953 -69.9219 C 108.984 -62.8418 109.082 -53.2227 102.051 -46.1914 L 99.707 -43.8477 C 102.197 -38.0859 103.613 -30.127 101.074 -23.3398 L 113.525 -35.5957 C 127.002 -48.8281 126.807 -68.0176 113.428 -81.3477 C 100 -94.7754 81.0059 -94.7754 67.6758 -81.4453 L 49.2188 -63.0859 C 35.8398 -49.707 35.9375 -30.6641 49.2676 -17.2852 C 51.0742 -15.4785 54.7363 -13.3789 57.5195 -12.5977 Z M 77.2949 -58.3496 L 65.1855 -46.4355 C 68.0664 -45.8984 72.0215 -44.1895 73.9746 -42.2363 C 81.0547 -35.1562 81.1035 -25.5371 74.1211 -18.5059 L 56.4941 -0.976562 C 49.4629 6.05469 39.8438 5.95703 32.8613 -1.02539 C 25.7812 -8.10547 25.6836 -17.7246 32.7148 -24.7559 L 35.0586 -27.0996 C 32.5684 -32.8613 31.1523 -40.8203 33.6914 -47.6074 L 21.2891 -35.3516 C 7.76367 -22.1191 7.95898 -2.92969 21.3379 10.4004 C 34.7656 23.8281 53.7598 23.8281 67.1387 10.498 L 85.5469 -7.86133 C 98.9258 -21.2402 98.877 -40.2832 85.498 -53.6621 C 83.6914 -55.4688 80.0293 -57.5684 77.2949 -58.3496 Z"/>
  </g>
  <g id="Heavy-M" transform="matrix(1 0 0 1 2570.33 1126)">
   <path d="M 58.6426 -13.2812 L 69.3848 -23.9258 C 65.7227 -24.5117 61.7188 -26.2207 59.4238 -28.5156 C 52.0508 -35.8887 52.002 -46.0938 59.3262 -53.4668 L 76.5625 -70.6543 C 83.9355 -77.9785 94.0918 -77.9785 101.465 -70.6055 C 108.887 -63.1836 108.936 -52.9785 101.562 -45.6055 L 97.5098 -41.5527 C 99.7559 -36.4258 100.928 -29.4922 98.8281 -23.5352 L 111.719 -36.2793 C 124.805 -49.1699 124.658 -67.7246 111.67 -80.7129 C 98.6328 -93.7988 80.1758 -93.75 67.2363 -80.8105 L 49.2188 -62.793 C 36.2305 -49.8535 36.2305 -31.3477 49.2676 -18.3594 C 51.3672 -16.2598 55.0781 -14.1113 58.6426 -13.2812 Z M 74.0723 -57.7637 L 63.2812 -47.0703 C 66.9922 -46.5332 70.9961 -44.7754 73.2422 -42.5293 C 80.6641 -35.1074 80.7129 -24.9023 73.3887 -17.5781 L 56.1523 -0.390625 C 48.7793 6.98242 38.5742 6.93359 31.25 -0.439453 C 23.7793 -7.86133 23.7793 -18.0664 31.1035 -25.3906 L 35.2051 -29.4434 C 32.959 -34.6191 31.7871 -41.5527 33.8867 -47.5098 L 20.9961 -34.7656 C 7.91016 -21.875 8.05664 -3.32031 21.0449 9.7168 C 34.082 22.7539 52.5391 22.7539 65.4785 9.76562 L 83.4961 -8.20312 C 96.4844 -21.1914 96.4844 -39.6484 83.4473 -52.6855 C 81.3477 -54.7852 77.6367 -56.8848 74.0723 -57.7637 Z"/>
  </g>
  <g id="Bold-M" transform="matrix(1 0 0 1 2274.77 1126)">
   <path d="M 59.9609 -14.0625 L 69.2383 -23.291 C 64.5996 -23.8281 60.498 -25.6348 57.9102 -28.2227 C 50.1465 -36.0352 50.0977 -46.875 57.8613 -54.6387 L 74.6094 -71.3379 C 82.373 -79.1016 93.2129 -79.1016 100.977 -71.3379 C 108.789 -63.5254 108.789 -52.6855 101.074 -44.9707 L 95.0684 -39.0137 C 97.0215 -34.5703 97.9004 -28.7598 96.3867 -23.7793 L 109.766 -37.0605 C 122.363 -49.5117 122.314 -67.4316 109.668 -80.0293 C 97.0215 -92.6758 79.248 -92.627 66.6992 -80.0781 L 49.1699 -62.5488 C 36.6211 -50 36.6211 -32.1777 49.2188 -19.5801 C 51.6602 -17.1387 55.4688 -14.9902 59.9609 -14.0625 Z M 70.459 -57.0801 L 61.1816 -47.8027 C 65.8203 -47.2656 69.873 -45.459 72.4609 -42.8711 C 80.2734 -35.0586 80.2734 -24.2188 72.5586 -16.5039 L 55.7617 0.244141 C 47.998 8.00781 37.1582 8.00781 29.4434 0.244141 C 21.582 -7.56836 21.582 -18.4082 29.3457 -26.1719 L 35.3027 -32.1289 C 33.3984 -36.5723 32.5195 -42.334 34.0332 -47.3633 L 20.6543 -34.082 C 8.05664 -21.582 8.10547 -3.71094 20.7031 8.88672 C 33.3496 21.5332 51.1719 21.4844 63.6719 8.98438 L 81.25 -8.59375 C 93.75 -21.1426 93.7988 -38.9648 81.1523 -51.5625 C 78.7598 -54.0039 74.9512 -56.1035 70.459 -57.0801 Z"/>
  </g>
  <g id="Semibold-M" transform="matrix(1 0 0 1 1978.86 1126)">
   <path d="M 60.8398 -14.5996 L 69.0918 -22.8516 C 63.8184 -23.3887 59.7168 -25.2441 56.8848 -28.0762 C 48.8281 -36.1328 48.8281 -47.4121 56.8359 -55.4199 L 73.291 -71.875 C 81.3477 -79.8828 92.5781 -79.8828 100.635 -71.875 C 108.74 -63.7695 108.691 -52.4902 100.684 -44.4824 L 93.4082 -37.207 C 95.1172 -33.252 95.8008 -28.2715 94.6777 -23.9258 L 108.35 -37.5977 C 120.654 -49.7559 120.654 -67.1875 108.301 -79.541 C 95.9473 -91.8945 78.6133 -91.7969 66.4062 -79.5898 L 49.1211 -62.3535 C 36.9141 -50.0977 36.8652 -32.7148 49.2188 -20.4102 C 51.8555 -17.7246 55.7129 -15.5762 60.8398 -14.5996 Z M 67.9688 -56.5918 L 59.7168 -48.291 C 64.9902 -47.7539 69.0918 -45.9473 71.9238 -43.1152 C 79.9805 -35.0586 79.9805 -23.7305 71.9727 -15.7715 L 55.5176 0.683594 C 47.4609 8.69141 36.1816 8.74023 28.1738 0.683594 C 20.0684 -7.42188 20.1172 -18.6523 28.125 -26.6602 L 35.4004 -33.9355 C 33.6914 -37.8906 33.0078 -42.9199 34.1309 -47.2656 L 20.4102 -33.5938 C 8.1543 -21.3867 8.1543 -4.00391 20.459 8.34961 C 32.8613 20.7031 50.1953 20.6543 62.4023 8.39844 L 79.6387 -8.83789 C 91.8945 -21.0938 91.9434 -38.4277 79.5898 -50.7812 C 76.9531 -53.4668 73.0957 -55.6152 67.9688 -56.5918 Z"/>
  </g>
  <g id="Medium-M" transform="matrix(1 0 0 1 1682.76 1126)">
   <path d="M 61.5234 -14.9902 L 68.9941 -22.5586 C 63.2324 -23.0469 59.082 -24.9512 56.1035 -27.9297 C 47.8516 -36.1816 47.8516 -47.8516 56.0547 -56.0059 L 72.2656 -72.2656 C 80.5176 -80.4688 92.1387 -80.5176 100.391 -72.2656 C 108.691 -63.9648 108.594 -52.3438 100.439 -44.1406 L 92.1387 -35.8887 C 93.7012 -32.2754 94.2383 -27.8809 93.3594 -24.0723 L 107.324 -37.9883 C 119.336 -49.9512 119.385 -67.041 107.275 -79.1504 C 95.1172 -91.3086 78.125 -91.2109 66.1133 -79.1992 L 49.1211 -62.207 C 37.1094 -50.1953 37.0605 -33.1543 49.1699 -21.0449 C 52.002 -18.1641 55.9082 -16.0156 61.5234 -14.9902 Z M 66.0645 -56.25 L 58.5938 -48.6816 C 64.3555 -48.1445 68.5059 -46.2891 71.4844 -43.3105 C 79.7852 -35.0586 79.7363 -23.3887 71.5332 -15.1855 L 55.3223 1.02539 C 47.0703 9.27734 35.4492 9.27734 27.2461 1.02539 C 18.9453 -7.27539 18.9941 -18.8477 27.1973 -27.0508 L 35.4492 -35.3516 C 33.8867 -38.916 33.3984 -43.3105 34.2285 -47.168 L 20.2637 -33.2031 C 8.25195 -21.2402 8.20312 -4.19922 20.3125 7.91016 C 32.4707 20.0684 49.4629 19.9707 61.4746 8.00781 L 78.4668 -9.0332 C 90.4785 -21.0449 90.5273 -38.0859 78.418 -50.1953 C 75.5859 -53.0273 71.7285 -55.1758 66.0645 -56.25 Z"/>
  </g>
  <g id="Regular-M" transform="matrix(1 0 0 1 1386.83 1126)">
   <path d="M 62.4023 -15.5273 L 68.8965 -22.1191 C 62.4512 -22.6074 58.252 -24.5605 55.0781 -27.7344 C 46.5332 -36.2793 46.582 -48.3887 55.0293 -56.8359 L 70.9473 -72.7539 C 79.4922 -81.25 91.5039 -81.2988 100.049 -72.7539 C 108.594 -64.209 108.496 -52.1484 100.049 -43.7012 L 90.4785 -34.1309 C 91.8457 -31.0059 92.1387 -27.3926 91.6504 -24.2188 L 106.006 -38.5254 C 117.676 -50.2441 117.773 -66.7969 105.957 -78.6621 C 94.0918 -90.5273 77.4902 -90.4297 65.7715 -78.7109 L 49.1211 -62.0117 C 37.4023 -50.293 37.3047 -33.6914 49.1699 -21.875 C 52.2461 -18.7988 56.1523 -16.6016 62.4023 -15.5273 Z M 63.623 -55.7617 L 57.1289 -49.1699 C 63.5742 -48.6328 67.7734 -46.7285 70.9473 -43.5547 C 79.4922 -35.0098 79.4434 -22.9004 70.9961 -14.4531 L 55.0293 1.46484 C 46.5332 9.96094 34.5215 10.0098 25.9766 1.51367 C 17.4316 -7.08008 17.4805 -19.0918 25.9766 -27.5879 L 35.5469 -37.1582 C 34.1797 -40.2344 33.8379 -43.8965 34.375 -47.0703 L 20.0195 -32.7637 C 8.34961 -21.0449 8.25195 -4.44336 20.0684 7.37305 C 31.9336 19.2383 48.5352 19.1406 60.2051 7.4707 L 76.9043 -9.27734 C 88.623 -20.9961 88.7207 -37.5977 76.8555 -49.4141 C 73.7793 -52.4902 69.873 -54.6875 63.623 -55.7617 Z"/>
  </g>
  <g id="Light-M" transform="matrix(1 0 0 1 1091.37 1126)">
   <path d="M 63.916 -16.0156 L 69.043 -21.1914 C 61.6699 -21.1914 56.8848 -23.2422 53.0762 -27.002 C 44.2871 -35.8398 44.3359 -48.4863 53.1738 -57.2754 L 69.0918 -73.1445 C 77.9785 -81.9824 90.5762 -82.0801 99.3164 -73.291 C 108.154 -64.4531 108.057 -51.9043 99.2188 -43.0664 L 87.793 -31.6406 C 88.7695 -29.3457 89.0625 -26.4648 88.5254 -23.8281 L 103.857 -39.1602 C 115.088 -50.3906 115.234 -66.4062 103.857 -77.7832 C 92.3828 -89.209 76.416 -89.0625 65.2344 -77.832 L 48.5352 -61.1328 C 37.3535 -49.9512 37.1582 -33.9355 48.584 -22.5098 C 52.2461 -18.8965 56.6895 -16.6016 63.916 -16.0156 Z M 59.668 -55.2734 L 54.4922 -50.1465 C 61.8652 -50.0977 66.6992 -48.0469 70.459 -44.2871 C 79.248 -35.498 79.1992 -22.8516 70.3613 -14.0137 L 54.4434 1.85547 C 45.6055 10.6934 33.0078 10.791 24.2188 2.00195 C 15.3809 -6.83594 15.4785 -19.4336 24.3164 -28.2227 L 35.7422 -39.6973 C 34.7656 -41.9434 34.4727 -44.8242 35.0586 -47.4609 L 19.6777 -32.1289 C 8.44727 -20.8984 8.30078 -4.93164 19.7266 6.49414 C 31.1523 17.9199 47.1191 17.7246 58.3496 6.54297 L 75 -10.1562 C 86.2305 -21.3867 86.377 -37.3535 74.9512 -48.7793 C 71.3379 -52.3926 66.8457 -54.6875 59.668 -55.2734 Z"/>
  </g>
  <g id="Thin-M" transform="matrix(1 0 0 1 796.266 1126)">
   <path d="M 65.918 -16.6504 L 69.2383 -19.9219 C 60.6445 -19.3359 55.0293 -21.5332 50.4883 -26.0742 C 41.3086 -35.2051 41.4551 -48.584 50.7324 -57.8613 L 66.6504 -73.7305 C 75.9766 -82.959 89.2578 -83.1055 98.3887 -74.0234 C 107.568 -64.8438 107.471 -51.5137 98.1445 -42.1875 L 84.2285 -28.2715 C 84.7656 -27.1484 84.9609 -25.2441 84.3262 -23.291 L 101.074 -40.0391 C 111.67 -50.6348 111.865 -65.8203 101.074 -76.6113 C 90.1855 -87.5 75 -87.207 64.4531 -76.709 L 47.8027 -60.0098 C 37.2559 -49.4629 37.0117 -34.2285 47.8516 -23.4375 C 52.1973 -19.043 57.4707 -16.5527 65.918 -16.6504 Z M 54.3945 -54.6875 L 51.0254 -51.3672 C 59.6191 -52.002 65.2832 -49.7559 69.7754 -45.2637 C 78.9551 -36.084 78.8574 -22.7051 69.5312 -13.4766 L 53.6621 2.39258 C 44.3359 11.6699 31.0059 11.8164 21.875 2.68555 C 12.6953 -6.49414 12.8418 -19.8242 22.1191 -29.1016 L 36.0352 -43.0176 C 35.5469 -44.1895 35.3027 -46.0938 35.9375 -48.0469 L 19.1895 -31.2988 C 8.64258 -20.7031 8.39844 -5.51758 19.2383 5.32227 C 30.0781 16.1621 45.3125 15.918 55.8105 5.37109 L 72.4609 -11.2793 C 83.0566 -21.875 83.252 -37.0605 72.4609 -47.9004 C 68.0664 -52.2949 62.8418 -54.7363 54.3945 -54.6875 Z"/>
  </g>
  <g id="Ultralight-M" transform="matrix(1 0 0 1 500.409 1126)">
   <path d="M 66.9434 -16.9434 L 69.3359 -19.3359 C 60.1562 -18.3594 54.0527 -20.6543 49.1699 -25.5371 C 39.7949 -34.9121 39.9414 -48.6816 49.5117 -58.1543 L 65.3809 -73.9746 C 74.9512 -83.4961 88.623 -83.6914 97.9004 -74.3652 C 107.275 -64.9902 107.178 -51.3184 97.6074 -41.748 L 82.4219 -26.5625 C 82.7148 -26.0254 82.9102 -24.6094 82.2266 -23.0469 L 99.6582 -40.4785 C 109.912 -50.7324 110.156 -65.5273 99.6582 -76.0254 C 89.0625 -86.6211 74.2676 -86.2793 64.0625 -76.0742 L 47.4609 -59.4727 C 37.207 -49.2188 36.9141 -34.4238 47.4609 -23.877 C 52.1973 -19.1406 57.8613 -16.5527 66.9434 -16.9434 Z M 51.6602 -54.3457 L 49.2676 -52.002 C 58.4961 -52.9785 64.5508 -50.6836 69.4336 -45.752 C 78.8086 -36.4258 78.6621 -22.6562 69.1406 -13.1836 L 53.2227 2.63672 C 43.7012 12.1582 29.9805 12.3535 20.7031 3.02734 C 11.3281 -6.34766 11.4746 -20.0195 21.0449 -29.541 L 36.2305 -44.7266 C 35.9375 -45.3125 35.7422 -46.7285 36.4258 -48.291 L 18.9941 -30.8594 C 8.69141 -20.6055 8.44727 -5.81055 18.9941 4.6875 C 29.541 15.2832 44.3359 14.9414 54.541 4.78516 L 71.1914 -11.8652 C 81.4453 -22.1191 81.6895 -36.9141 71.1914 -47.4609 C 66.4062 -52.1973 60.791 -54.7852 51.6602 -54.3457 Z"/>
  </g>
  <g id="Black-S" transform="matrix(1 0 0 1 2880.67 696)">
   <path d="M 45.1172 -17.5293 L 54.4922 -26.8066 C 52.1973 -27.2461 49.1211 -28.5645 47.5586 -30.127 C 41.9922 -35.6934 41.9434 -43.2617 47.4609 -48.7793 L 61.2305 -62.5 C 66.748 -68.0176 74.3164 -67.9688 79.834 -62.4512 C 85.4004 -56.8848 85.4492 -49.3164 79.9316 -43.7988 L 77.9785 -41.8457 C 79.9316 -37.3535 81.0059 -31.2012 79.0527 -25.9277 L 88.8184 -35.5469 C 99.3652 -45.8984 99.2188 -60.8887 88.7695 -71.3379 C 78.2715 -81.8359 63.4277 -81.8359 52.9785 -71.3867 L 38.5742 -57.0312 C 28.125 -46.582 28.1738 -31.6895 38.623 -21.2402 C 40.0391 -19.8242 42.9199 -18.1641 45.1172 -17.5293 Z M 60.3516 -53.3203 L 50.9766 -44.043 C 53.2715 -43.6035 56.3477 -42.2852 57.9102 -40.7227 C 63.4766 -35.1562 63.5254 -27.5879 58.0078 -22.0703 L 44.2383 -8.34961 C 38.7207 -2.83203 31.1523 -2.88086 25.6348 -8.39844 C 20.0684 -13.9648 20.0195 -21.5332 25.5371 -27.0508 L 27.4902 -29.0039 C 25.5371 -33.4961 24.4629 -39.6484 26.416 -44.9219 L 16.6504 -35.3027 C 6.10352 -24.9512 6.25 -9.96094 16.6992 0.488281 C 27.1973 10.9863 42.041 10.9863 52.4902 0.537109 L 66.8945 -13.8184 C 77.3438 -24.2676 77.2949 -39.1602 66.8457 -49.6094 C 65.4297 -51.0254 62.5488 -52.6855 60.3516 -53.3203 Z"/>
  </g>
  <g id="Heavy-S" transform="matrix(1 0 0 1 2584.61 696)">
   <path d="M 45.8008 -18.0176 L 54.3457 -26.4648 C 51.5137 -26.9531 48.4375 -28.3203 46.7285 -30.0293 C 40.918 -35.8398 40.918 -43.7988 46.6309 -49.5117 L 60.1074 -62.9395 C 65.8691 -68.7012 73.7793 -68.6523 79.541 -62.8906 C 85.3516 -57.0801 85.4004 -49.1699 79.6387 -43.4082 L 76.6113 -40.3809 C 78.3691 -36.2793 79.248 -30.8105 77.6855 -26.123 L 87.6953 -35.9863 C 97.9492 -46.1426 97.8516 -60.7422 87.6465 -70.9473 C 77.3926 -81.2012 62.8906 -81.2012 52.6855 -70.9961 L 38.623 -56.9336 C 28.418 -46.7285 28.418 -32.2266 38.6719 -21.9727 C 40.2344 -20.4102 43.0664 -18.75 45.8008 -18.0176 Z M 58.3008 -52.8809 L 49.8047 -44.4336 C 52.6367 -43.9453 55.6641 -42.5781 57.4219 -40.8691 C 63.1836 -35.0586 63.2324 -27.0996 57.5195 -21.3867 L 44.043 -7.95898 C 38.2812 -2.19727 30.3223 -2.24609 24.5605 -8.00781 C 18.75 -13.8184 18.75 -21.7285 24.4629 -27.4902 L 27.5391 -30.5176 C 25.7324 -34.6191 24.8535 -40.0879 26.4648 -44.7754 L 16.4551 -34.9121 C 6.20117 -24.7559 6.29883 -10.2051 16.5039 0.0488281 C 26.7578 10.3027 41.2598 10.3027 51.4648 0.0976562 L 65.5273 -13.9648 C 75.7324 -24.1699 75.7324 -38.6719 65.4785 -48.9258 C 63.916 -50.4883 61.0352 -52.1484 58.3008 -52.8809 Z"/>
  </g>
  <g id="Bold-S" transform="matrix(1 0 0 1 2288.64 696)">
   <path d="M 46.6309 -18.5547 L 54.1992 -26.123 C 50.7324 -26.6602 47.7051 -28.0273 45.8008 -29.9316 C 39.7461 -35.9863 39.7461 -44.3848 45.7031 -50.3418 L 58.8379 -63.4766 C 64.8438 -69.4824 73.2422 -69.4336 79.248 -63.4277 C 85.3516 -57.3242 85.3516 -48.9746 79.3457 -42.9688 L 75.0977 -38.7207 C 76.6602 -35.0586 77.3438 -30.3711 76.1719 -26.3672 L 86.4258 -36.5234 C 96.3867 -46.3867 96.3379 -60.5469 86.377 -70.5078 C 76.3672 -80.5176 62.3047 -80.4688 52.3926 -70.5566 L 38.623 -56.8359 C 28.7109 -46.875 28.7109 -32.8125 38.6719 -22.8516 C 40.4785 -21.0449 43.3105 -19.3848 46.6309 -18.5547 Z M 56.0547 -52.4414 L 48.4863 -44.873 C 51.9531 -44.3359 54.9805 -42.9688 56.8359 -41.0645 C 62.8906 -35.0098 62.9395 -26.6113 56.9336 -20.6055 L 43.7988 -7.51953 C 37.793 -1.51367 29.4434 -1.51367 23.3887 -7.56836 C 17.334 -13.623 17.334 -21.9727 23.3398 -27.9785 L 27.5879 -32.2754 C 26.0254 -35.9375 25.3418 -40.625 26.4648 -44.6289 L 16.2598 -34.4727 C 6.25 -24.5605 6.29883 -10.4492 16.3086 -0.439453 C 26.3184 9.52148 40.3809 9.52148 50.293 -0.390625 L 64.0137 -14.1602 C 73.9258 -24.0723 73.9746 -38.1836 63.9648 -48.1445 C 62.207 -49.9023 59.375 -51.5625 56.0547 -52.4414 Z"/>
  </g>
  <g id="Semibold-S" transform="matrix(1 0 0 1 1992.44 696)">
   <path d="M 47.168 -18.8965 L 54.0527 -25.8301 C 50.1953 -26.416 47.2168 -27.832 45.166 -29.834 C 38.9648 -36.084 38.916 -44.7754 45.0684 -50.9277 L 58.0078 -63.8184 C 64.1602 -69.9707 72.8516 -69.9707 79.0527 -63.7695 C 85.3027 -57.5195 85.3027 -48.877 79.1504 -42.6758 L 74.0234 -37.5977 C 75.4883 -34.2285 76.0254 -30.0781 75.1465 -26.5137 L 85.5469 -36.8652 C 95.3125 -46.582 95.3125 -60.4004 85.498 -70.2148 C 75.6836 -80.0293 61.9141 -79.9805 52.1973 -70.2637 L 38.6719 -56.7383 C 28.9551 -47.0215 28.9062 -33.2031 38.7207 -23.3887 C 40.625 -21.4844 43.457 -19.873 47.168 -18.8965 Z M 54.4922 -52.0996 L 47.6074 -45.166 C 51.4648 -44.5801 54.4434 -43.2129 56.4941 -41.1621 C 62.6953 -34.9609 62.7441 -26.2695 56.543 -20.1172 L 43.6523 -7.22656 C 37.5 -1.02539 28.8086 -1.02539 22.6074 -7.22656 C 16.3574 -13.5254 16.3574 -22.168 22.5098 -28.3203 L 27.6367 -33.4473 C 26.1719 -36.8164 25.6348 -40.9668 26.5137 -44.4824 L 16.1133 -34.1309 C 6.34766 -24.4141 6.34766 -10.5957 16.1621 -0.78125 C 25.9766 9.0332 39.7461 8.98438 49.4629 -0.732422 L 62.9883 -14.2578 C 72.7051 -24.0234 72.7539 -37.793 62.9395 -47.6074 C 61.0352 -49.5117 58.2031 -51.1719 54.4922 -52.0996 Z"/>
  </g>
  <g id="Medium-S" transform="matrix(1 0 0 1 1696.12 696)">
   <path d="M 47.5586 -19.1895 L 54.0039 -25.6348 C 49.8047 -26.2695 46.8262 -27.6855 44.6777 -29.7852 C 38.3301 -36.1328 38.3301 -45.0684 44.6289 -51.3672 L 57.3242 -64.0625 C 63.6719 -70.4102 72.5586 -70.4102 78.9062 -64.0625 C 85.3027 -57.6172 85.2539 -48.7793 78.9551 -42.4805 L 73.2422 -36.7188 C 74.5605 -33.5938 75 -29.834 74.3652 -26.6602 L 84.9121 -37.1582 C 94.4824 -46.7285 94.5312 -60.3027 84.8633 -69.9707 C 75.1465 -79.6875 61.6211 -79.6387 52.002 -70.0195 L 38.6719 -56.6895 C 29.1016 -47.1191 29.0527 -33.5449 38.7207 -23.8281 C 40.7715 -21.8262 43.5547 -20.2148 47.5586 -19.1895 Z M 53.3203 -51.8555 L 46.9238 -45.4102 C 51.0742 -44.7754 54.1016 -43.3594 56.2012 -41.2598 C 62.5488 -34.9121 62.5488 -25.9766 56.2988 -19.6777 L 43.5547 -6.98242 C 37.207 -0.634766 28.3691 -0.683594 21.9727 -7.03125 C 15.5762 -13.4277 15.625 -22.3145 21.9238 -28.5645 L 27.6855 -34.3262 C 26.3184 -37.4512 25.8789 -41.2109 26.5137 -44.4336 L 16.0156 -33.8867 C 6.39648 -24.3164 6.34766 -10.7422 16.0645 -1.07422 C 25.7324 8.59375 39.3066 8.54492 48.877 -1.02539 L 62.207 -14.3555 C 71.7773 -23.9746 71.8262 -37.5488 62.1582 -47.2168 C 60.1562 -49.2188 57.3242 -50.8301 53.3203 -51.8555 Z"/>
  </g>
  <g id="Regular-S" transform="matrix(1 0 0 1 1399.89 696)">
   <path d="M 48.1445 -19.5801 L 53.8574 -25.3906 C 49.2676 -26.0254 46.2891 -27.4902 44.0918 -29.7363 C 37.5488 -36.2793 37.5488 -45.459 43.9941 -51.9043 L 56.4941 -64.4043 C 62.9883 -70.8984 72.168 -70.9473 78.7109 -64.4043 C 85.2539 -57.8125 85.2051 -48.6328 78.7598 -42.1875 L 72.168 -35.5957 C 73.3887 -32.7637 73.6816 -29.541 73.3398 -26.8066 L 84.0332 -37.5 C 93.457 -46.9238 93.5059 -60.2051 83.9844 -69.6777 C 74.5117 -79.1992 61.1816 -79.1504 51.8066 -69.7266 L 38.7207 -56.5918 C 29.3457 -47.2168 29.248 -33.9355 38.7695 -24.4141 C 40.918 -22.2656 43.7012 -20.6543 48.1445 -19.5801 Z M 51.7578 -51.5625 L 45.9961 -45.7031 C 50.5859 -45.0684 53.5645 -43.6035 55.8105 -41.3574 C 62.3535 -34.8145 62.3535 -25.6348 55.9082 -19.1895 L 43.4082 -6.68945 C 36.9141 -0.195312 27.7344 -0.195312 21.1914 -6.68945 C 14.5996 -13.2812 14.6484 -22.4609 21.1426 -28.9062 L 27.7344 -35.498 C 26.5137 -38.3301 26.2207 -41.5527 26.5625 -44.2871 L 15.8691 -33.5938 C 6.44531 -24.2188 6.39648 -10.8887 15.918 -1.41602 C 25.3906 8.10547 38.6719 8.05664 48.0957 -1.36719 L 61.1816 -14.502 C 70.5566 -23.877 70.6055 -37.1582 61.1328 -46.6797 C 58.9844 -48.8281 56.2012 -50.4395 51.7578 -51.5625 Z"/>
  </g>
  <g id="Light-S" transform="matrix(1 0 0 1 1104.26 696)">
   <path d="M 49.4629 -19.9707 L 54.0039 -24.5605 C 48.6328 -24.8047 45.0684 -26.3184 42.334 -29.0527 C 35.5469 -35.8398 35.5957 -45.5566 42.3828 -52.3438 L 54.834 -64.7949 C 61.6699 -71.582 71.2891 -71.6309 78.0762 -64.8438 C 84.9121 -58.0566 84.8145 -48.3887 78.0762 -41.6016 L 69.8242 -33.3496 C 70.7031 -31.25 70.9473 -28.7109 70.5566 -26.4648 L 82.1777 -38.0859 C 91.1621 -47.0703 91.2598 -59.8145 82.1289 -68.8965 C 73.0469 -78.0273 60.2539 -77.9297 51.3184 -68.9453 L 38.2324 -55.8594 C 29.2969 -46.875 29.1504 -34.1309 38.2812 -25 C 40.918 -22.3633 44.1895 -20.6543 49.4629 -19.9707 Z M 48.2422 -51.123 L 43.7012 -46.5332 C 49.1211 -46.3379 52.6367 -44.7754 55.3711 -42.041 C 62.1582 -35.2539 62.1582 -25.5371 55.3711 -18.7988 L 42.8711 -6.34766 C 36.084 0.488281 26.416 0.537109 19.6777 -6.25 C 12.8418 -13.0859 12.8906 -22.7051 19.6777 -29.4922 L 27.9297 -37.7441 C 27.002 -39.8438 26.7578 -42.3828 27.1973 -44.6777 L 15.5762 -33.0566 C 6.5918 -24.0723 6.49414 -11.3281 15.5762 -2.19727 C 24.707 6.93359 37.4512 6.78711 46.4355 -2.14844 L 59.4727 -15.2344 C 68.457 -24.2188 68.5547 -36.9629 59.4727 -46.0938 C 56.8359 -48.7305 53.5156 -50.4883 48.2422 -51.123 Z"/>
  </g>
  <g id="Thin-S" transform="matrix(1 0 0 1 808.986 696)">
   <path d="M 51.2695 -20.5566 L 54.248 -23.4863 C 47.7539 -23.1445 43.457 -24.8535 40.0879 -28.2227 C 32.959 -35.3516 33.0078 -45.6543 40.2344 -52.832 L 52.6855 -65.2832 C 59.9121 -72.4609 70.2148 -72.5586 77.2949 -65.4785 C 84.4238 -58.3496 84.3262 -48.0469 77.0996 -40.8691 L 66.6992 -30.4199 C 67.1875 -29.2969 67.3828 -27.6367 66.8945 -25.9766 L 79.7363 -38.8184 C 88.1348 -47.2168 88.2812 -59.3262 79.7363 -67.8711 C 71.0938 -76.5137 59.0332 -76.3184 50.6836 -67.9199 L 37.5977 -54.8828 C 29.1992 -46.4844 29.0527 -34.375 37.6465 -25.8301 C 40.918 -22.5098 44.873 -20.6055 51.2695 -20.5566 Z M 43.6035 -50.5859 L 40.6738 -47.6562 C 47.168 -47.998 51.416 -46.2891 54.834 -42.9199 C 61.9141 -35.791 61.8652 -25.4395 54.6387 -18.3105 L 42.1875 -5.85938 C 34.9609 1.31836 24.707 1.41602 17.627 -5.66406 C 10.498 -12.793 10.5469 -23.0469 17.7734 -30.2734 L 28.2227 -40.7227 C 27.6855 -41.7969 27.5391 -43.5059 28.0273 -45.166 L 15.1367 -32.3242 C 6.73828 -23.877 6.5918 -11.8164 15.1855 -3.22266 C 23.7793 5.37109 35.8398 5.17578 44.2383 -3.17383 L 57.2754 -16.2598 C 65.6738 -24.6582 65.8203 -36.7188 57.2754 -45.3125 C 53.9551 -48.6328 50 -50.4883 43.6035 -50.5859 Z"/>
  </g>
  <g id="Ultralight-S" transform="matrix(1 0 0 1 513.007 696)">
   <path d="M 52.1973 -20.8496 L 54.3457 -22.9492 C 47.2656 -22.2656 42.627 -24.0723 38.916 -27.7832 C 31.6406 -35.0586 31.6895 -45.752 39.1113 -53.125 L 51.5625 -65.5273 C 58.9844 -72.9004 69.6289 -73.0469 76.8555 -65.8203 C 84.1309 -58.4961 84.0332 -47.9004 76.6602 -40.4785 L 65.0879 -28.9062 C 65.3809 -28.3203 65.5273 -27.0996 64.9902 -25.7324 L 78.4668 -39.209 C 86.6211 -47.3633 86.7676 -59.0332 78.4668 -67.334 C 70.1172 -75.7324 58.3984 -75.4883 50.3418 -67.3828 L 37.3047 -54.3457 C 29.1504 -46.2402 29.0039 -34.5215 37.3047 -26.2207 C 40.918 -22.6074 45.2637 -20.6055 52.1973 -20.8496 Z M 41.2109 -50.293 L 39.1113 -48.1934 C 46.1426 -48.877 50.7812 -47.0703 54.541 -43.3594 C 61.8164 -36.084 61.7188 -25.3906 54.2969 -18.0176 L 41.8457 -5.61523 C 34.4238 1.75781 23.7793 1.9043 16.5527 -5.32227 C 9.27734 -12.6465 9.375 -23.2422 16.7969 -30.6641 L 28.3691 -42.2363 C 28.0762 -42.8223 27.8809 -44.043 28.418 -45.4102 L 14.9414 -31.9336 C 6.83594 -23.7793 6.64062 -12.1094 14.9414 -3.75977 C 23.291 4.58984 35.0098 4.3457 43.1152 -3.71094 L 56.1523 -16.7969 C 64.2578 -24.9023 64.4531 -36.6211 56.1523 -44.9219 C 52.4902 -48.5352 48.1934 -50.5371 41.2109 -50.293 Z"/>
  </g>
 </g>
</svg>
