<?xml version="1.0" encoding="UTF-8"?>
<!--Generator: Apple Native CoreSVG 148-->
<!DOCTYPE svg
PUBLIC "-//W3C//DTD SVG 1.1//EN"
       "http://www.w3.org/Graphics/SVG/1.1/DTD/svg11.dtd">
<svg version="1.1" xmlns="http://www.w3.org/2000/svg" xmlns:xlink="http://www.w3.org/1999/xlink" width="3300" height="2200">
 <!--glyph: "uni1004A0.medium", point size: 100.000000, font version: "Version 16.0d11e1", template writer version: "8"-->
 <g id="Notes">
  <rect height="2200" id="artboard" style="fill:white;opacity:1" width="3300" x="0" y="0"/>
  <line id="" style="fill:none;stroke:black;opacity:1;stroke-width:0.5;" x1="263" x2="3036" y1="292" y2="292"/>
  <text style="stroke:none;fill:black;font-family:-apple-system,&quot;SF Pro Display&quot;,&quot;SF Pro Text&quot;,Helvetica,sans-serif;font-weight:bold;" transform="matrix(1 0 0 1 263 322)">Weight/Scale Variations</text>
  <text style="stroke:none;fill:black;font-family:-apple-system,&quot;SF Pro Display&quot;,&quot;SF Pro Text&quot;,Helvetica,sans-serif;text-anchor:middle;" transform="matrix(1 0 0 1 559.711 322)">Ultralight</text>
  <text style="stroke:none;fill:black;font-family:-apple-system,&quot;SF Pro Display&quot;,&quot;SF Pro Text&quot;,Helvetica,sans-serif;text-anchor:middle;" transform="matrix(1 0 0 1 856.422 322)">Thin</text>
  <text style="stroke:none;fill:black;font-family:-apple-system,&quot;SF Pro Display&quot;,&quot;SF Pro Text&quot;,Helvetica,sans-serif;text-anchor:middle;" transform="matrix(1 0 0 1 1153.13 322)">Light</text>
  <text style="stroke:none;fill:black;font-family:-apple-system,&quot;SF Pro Display&quot;,&quot;SF Pro Text&quot;,Helvetica,sans-serif;text-anchor:middle;" transform="matrix(1 0 0 1 1449.84 322)">Regular</text>
  <text style="stroke:none;fill:black;font-family:-apple-system,&quot;SF Pro Display&quot;,&quot;SF Pro Text&quot;,Helvetica,sans-serif;text-anchor:middle;" transform="matrix(1 0 0 1 1746.56 322)">Medium</text>
  <text style="stroke:none;fill:black;font-family:-apple-system,&quot;SF Pro Display&quot;,&quot;SF Pro Text&quot;,Helvetica,sans-serif;text-anchor:middle;" transform="matrix(1 0 0 1 2043.27 322)">Semibold</text>
  <text style="stroke:none;fill:black;font-family:-apple-system,&quot;SF Pro Display&quot;,&quot;SF Pro Text&quot;,Helvetica,sans-serif;text-anchor:middle;" transform="matrix(1 0 0 1 2339.98 322)">Bold</text>
  <text style="stroke:none;fill:black;font-family:-apple-system,&quot;SF Pro Display&quot;,&quot;SF Pro Text&quot;,Helvetica,sans-serif;text-anchor:middle;" transform="matrix(1 0 0 1 2636.69 322)">Heavy</text>
  <text style="stroke:none;fill:black;font-family:-apple-system,&quot;SF Pro Display&quot;,&quot;SF Pro Text&quot;,Helvetica,sans-serif;text-anchor:middle;" transform="matrix(1 0 0 1 2933.4 322)">Black</text>
  <line id="" style="fill:none;stroke:black;opacity:1;stroke-width:0.5;" x1="263" x2="3036" y1="1903" y2="1903"/>
  <g id="" transform="matrix(1 0 0 1 263 1933)">
   <path d="M 9.24805 0.830078 C 13.5547 0.830078 17.1387 -2.74414 17.1387 -7.05078 C 17.1387 -11.3574 13.5449 -14.9316 9.23828 -14.9316 C 4.94141 -14.9316 1.36719 -11.3574 1.36719 -7.05078 C 1.36719 -2.74414 4.95117 0.830078 9.24805 0.830078 Z M 9.24805 -0.654297 C 5.70312 -0.654297 2.87109 -3.49609 2.87109 -7.05078 C 2.87109 -10.6055 5.69336 -13.4473 9.23828 -13.4473 C 12.793 -13.4473 15.6348 -10.6055 15.6445 -7.05078 C 15.6543 -3.49609 12.8027 -0.654297 9.24805 -0.654297 Z M 9.22852 -3.62305 C 9.69727 -3.62305 9.9707 -3.93555 9.9707 -4.45312 L 9.9707 -6.31836 L 12.002 -6.31836 C 12.5 -6.31836 12.832 -6.57227 12.832 -7.04102 C 12.832 -7.51953 12.5195 -7.7832 12.002 -7.7832 L 9.9707 -7.7832 L 9.9707 -9.81445 C 9.9707 -10.332 9.69727 -10.6543 9.22852 -10.6543 C 8.75977 -10.6543 8.50586 -10.3125 8.50586 -9.81445 L 8.50586 -7.7832 L 6.49414 -7.7832 C 5.97656 -7.7832 5.64453 -7.51953 5.64453 -7.04102 C 5.64453 -6.57227 5.99609 -6.31836 6.49414 -6.31836 L 8.50586 -6.31836 L 8.50586 -4.45312 C 8.50586 -3.95508 8.75977 -3.62305 9.22852 -3.62305 Z"/>
  </g>
  <g id="" transform="matrix(1 0 0 1 281.506 1933)">
   <path d="M 11.709 2.91016 C 17.1582 2.91016 21.6699 -1.61133 21.6699 -7.05078 C 21.6699 -12.5 17.1484 -17.0117 11.6992 -17.0117 C 6.25977 -17.0117 1.74805 -12.5 1.74805 -7.05078 C 1.74805 -1.61133 6.26953 2.91016 11.709 2.91016 Z M 11.709 1.25 C 7.09961 1.25 3.41797 -2.44141 3.41797 -7.05078 C 3.41797 -11.6602 7.08984 -15.3516 11.6992 -15.3516 C 16.3086 -15.3516 20 -11.6602 20.0098 -7.05078 C 20.0195 -2.44141 16.3184 1.25 11.709 1.25 Z M 11.6797 -2.66602 C 12.207 -2.66602 12.5098 -3.01758 12.5098 -3.59375 L 12.5098 -6.23047 L 15.3223 -6.23047 C 15.8691 -6.23047 16.25 -6.51367 16.25 -7.03125 C 16.25 -7.55859 15.8887 -7.86133 15.3223 -7.86133 L 12.5098 -7.86133 L 12.5098 -10.6836 C 12.5098 -11.25 12.207 -11.6113 11.6797 -11.6113 C 11.1621 -11.6113 10.8789 -11.2305 10.8789 -10.6836 L 10.8789 -7.86133 L 8.07617 -7.86133 C 7.50977 -7.86133 7.13867 -7.55859 7.13867 -7.03125 C 7.13867 -6.51367 7.5293 -6.23047 8.07617 -6.23047 L 10.8789 -6.23047 L 10.8789 -3.59375 C 10.8789 -3.03711 11.1621 -2.66602 11.6797 -2.66602 Z"/>
  </g>
  <g id="" transform="matrix(1 0 0 1 304.924 1933)">
   <path d="M 14.9707 5.66406 C 21.9336 5.66406 27.6953 -0.0976562 27.6953 -7.05078 C 27.6953 -14.0137 21.9238 -19.7754 14.9609 -19.7754 C 8.00781 -19.7754 2.25586 -14.0137 2.25586 -7.05078 C 2.25586 -0.0976562 8.01758 5.66406 14.9707 5.66406 Z M 14.9707 3.84766 C 8.93555 3.84766 4.08203 -1.01562 4.08203 -7.05078 C 4.08203 -13.0957 8.92578 -17.9492 14.9609 -17.9492 C 21.0059 -17.9492 25.8594 -13.0957 25.8691 -7.05078 C 25.8789 -1.01562 21.0156 3.84766 14.9707 3.84766 Z M 14.9414 -1.38672 C 15.5176 -1.38672 15.8594 -1.77734 15.8594 -2.38281 L 15.8594 -6.13281 L 19.7754 -6.13281 C 20.3711 -6.13281 20.7812 -6.46484 20.7812 -7.02148 C 20.7812 -7.59766 20.3906 -7.93945 19.7754 -7.93945 L 15.8594 -7.93945 L 15.8594 -11.8652 C 15.8594 -12.4805 15.5176 -12.8711 14.9414 -12.8711 C 14.375 -12.8711 14.0527 -12.4609 14.0527 -11.8652 L 14.0527 -7.93945 L 10.1465 -7.93945 C 9.53125 -7.93945 9.13086 -7.59766 9.13086 -7.02148 C 9.13086 -6.46484 9.55078 -6.13281 10.1465 -6.13281 L 14.0527 -6.13281 L 14.0527 -2.38281 C 14.0527 -1.79688 14.375 -1.38672 14.9414 -1.38672 Z"/>
  </g>
  <text style="stroke:none;fill:black;font-family:-apple-system,&quot;SF Pro Display&quot;,&quot;SF Pro Text&quot;,Helvetica,sans-serif;font-weight:bold;" transform="matrix(1 0 0 1 263 1953)">Design Variations</text>
  <text style="stroke:none;fill:black;font-family:-apple-system,&quot;SF Pro Display&quot;,&quot;SF Pro Text&quot;,Helvetica,sans-serif;" transform="matrix(1 0 0 1 263 1971)">Symbols are supported in up to nine weights and three scales.</text>
  <text style="stroke:none;fill:black;font-family:-apple-system,&quot;SF Pro Display&quot;,&quot;SF Pro Text&quot;,Helvetica,sans-serif;" transform="matrix(1 0 0 1 263 1989)">For optimal layout with text and other symbols, vertically align</text>
  <text style="stroke:none;fill:black;font-family:-apple-system,&quot;SF Pro Display&quot;,&quot;SF Pro Text&quot;,Helvetica,sans-serif;" transform="matrix(1 0 0 1 263 2007)">symbols with the adjacent text.</text>
  <line id="" style="fill:none;stroke:#00AEEF;stroke-width:0.5;opacity:1.0;" x1="776" x2="776" y1="1919" y2="1933"/>
  <g id="" transform="matrix(1 0 0 1 776 1933)">
   <path d="M 3.31055 0.126953 C 3.82812 0.126953 4.08203 -0.0683594 4.26758 -0.605469 L 5.52734 -4.0625 L 11.2891 -4.0625 L 12.5488 -0.605469 C 12.7344 -0.0683594 12.9883 0.126953 13.4961 0.126953 C 14.0137 0.126953 14.3457 -0.185547 14.3457 -0.673828 C 14.3457 -0.839844 14.3164 -0.986328 14.2383 -1.20117 L 9.6582 -13.3887 C 9.43359 -13.9941 9.0332 -14.2871 8.4082 -14.2871 C 7.80273 -14.2871 7.39258 -13.9941 7.17773 -13.3984 L 2.59766 -1.19141 C 2.51953 -0.976562 2.49023 -0.830078 2.49023 -0.664062 C 2.49023 -0.175781 2.80273 0.126953 3.31055 0.126953 Z M 6.00586 -5.53711 L 8.37891 -12.1094 L 8.42773 -12.1094 L 10.8008 -5.53711 Z"/>
  </g>
  <line id="" style="fill:none;stroke:#00AEEF;stroke-width:0.5;opacity:1.0;" x1="792.836" x2="792.836" y1="1919" y2="1933"/>
  <text style="stroke:none;fill:black;font-family:-apple-system,&quot;SF Pro Display&quot;,&quot;SF Pro Text&quot;,Helvetica,sans-serif;font-weight:bold;" transform="matrix(1 0 0 1 776 1953)">Margins</text>
  <text style="stroke:none;fill:black;font-family:-apple-system,&quot;SF Pro Display&quot;,&quot;SF Pro Text&quot;,Helvetica,sans-serif;" transform="matrix(1 0 0 1 776 1971)">Leading and trailing margins on the left and right side of each symbol</text>
  <text style="stroke:none;fill:black;font-family:-apple-system,&quot;SF Pro Display&quot;,&quot;SF Pro Text&quot;,Helvetica,sans-serif;" transform="matrix(1 0 0 1 776 1989)">can be adjusted by modifying the x-location of the margin guidelines.</text>
  <text style="stroke:none;fill:black;font-family:-apple-system,&quot;SF Pro Display&quot;,&quot;SF Pro Text&quot;,Helvetica,sans-serif;" transform="matrix(1 0 0 1 776 2007)">Modifications are automatically applied proportionally to all</text>
  <text style="stroke:none;fill:black;font-family:-apple-system,&quot;SF Pro Display&quot;,&quot;SF Pro Text&quot;,Helvetica,sans-serif;" transform="matrix(1 0 0 1 776 2025)">scales and weights.</text>
  <g id="" transform="matrix(1 0 0 1 1289 1933)">
   <path d="M 2.8418 1.86523 L 4.54102 3.57422 C 5.40039 4.44336 6.38672 4.38477 7.31445 3.35938 L 17.4902 -7.85156 C 17.7539 -7.76367 18.0273 -7.7832 18.3398 -7.8418 L 19.4043 -8.03711 L 20.0684 -7.36328 L 20.0293 -6.80664 C 19.9902 -6.30859 20.1172 -5.92773 20.6055 -5.44922 L 21.3672 -4.70703 C 21.8457 -4.22852 22.4609 -4.19922 22.9297 -4.66797 L 25.8398 -7.58789 C 26.3086 -8.05664 26.2891 -8.65234 25.8105 -9.13086 L 25.0391 -9.89258 C 24.5605 -10.3711 24.1895 -10.5273 23.7109 -10.4883 L 23.1348 -10.4395 L 22.4902 -11.0742 L 22.7344 -12.1973 C 22.8613 -12.7637 22.7051 -13.2031 22.1191 -13.7891 L 19.9219 -15.9766 C 16.582 -19.2969 12.1484 -19.2188 9.25781 -16.3281 C 8.83789 -15.918 8.80859 -15.3418 9.04297 -14.9512 C 9.27734 -14.5898 9.73633 -14.3555 10.3809 -14.5215 C 11.8457 -14.8633 13.3691 -14.9219 14.7949 -13.9844 L 14.209 -12.5293 C 14.0137 -12.0508 13.9844 -11.6504 14.1113 -11.2891 L 3.04688 -0.898438 C 2.06055 0.0195312 1.98242 0.996094 2.8418 1.86523 Z M 10.752 -15.957 C 13.1836 -17.7344 16.4746 -17.4316 18.7012 -15.2051 L 21.1328 -12.793 C 21.3672 -12.5586 21.4062 -12.373 21.3379 -12.0312 L 21.0156 -10.5469 L 22.5195 -9.0625 L 23.5059 -9.12109 C 23.7598 -9.13086 23.8379 -9.11133 24.0332 -8.91602 L 24.6094 -8.33984 L 22.168 -5.89844 L 21.5918 -6.47461 C 21.3965 -6.66992 21.3672 -6.74805 21.377 -7.01172 L 21.4453 -7.98828 L 19.9512 -9.47266 L 18.4277 -9.21875 C 18.1055 -9.15039 17.959 -9.17969 17.7148 -9.41406 L 15.7129 -11.416 C 15.459 -11.6504 15.4297 -11.8164 15.5859 -12.1875 L 16.4648 -14.2773 C 14.9023 -15.7324 12.8711 -16.3574 10.8398 -15.7617 C 10.6836 -15.7227 10.625 -15.8496 10.752 -15.957 Z M 5.27344 2.30469 L 4.10156 1.14258 C 3.63281 0.683594 3.74023 0.341797 4.14062 -0.0195312 L 14.9512 -10.1953 L 16.416 -8.71094 L 6.42578 2.27539 C 6.07422 2.67578 5.74219 2.77344 5.27344 2.30469 Z"/>
  </g>
  <text style="stroke:none;fill:black;font-family:-apple-system,&quot;SF Pro Display&quot;,&quot;SF Pro Text&quot;,Helvetica,sans-serif;font-weight:bold;" transform="matrix(1 0 0 1 1289 1953)">Exporting</text>
  <text style="stroke:none;fill:black;font-family:-apple-system,&quot;SF Pro Display&quot;,&quot;SF Pro Text&quot;,Helvetica,sans-serif;" transform="matrix(1 0 0 1 1289 1971)">Symbols should be outlined when exporting to ensure the</text>
  <text style="stroke:none;fill:black;font-family:-apple-system,&quot;SF Pro Display&quot;,&quot;SF Pro Text&quot;,Helvetica,sans-serif;" transform="matrix(1 0 0 1 1289 1989)">design is preserved when submitting to Xcode.</text>
  <text id="template-version" style="stroke:none;fill:black;font-family:-apple-system,&quot;SF Pro Display&quot;,&quot;SF Pro Text&quot;,Helvetica,sans-serif;text-anchor:end;" transform="matrix(1 0 0 1 3036 1933)">Template v.2.0</text>
  <text style="stroke:none;fill:black;font-family:-apple-system,&quot;SF Pro Display&quot;,&quot;SF Pro Text&quot;,Helvetica,sans-serif;text-anchor:end;" transform="matrix(1 0 0 1 3036 1951)">Requires Xcode 12 or greater</text>
  <text style="stroke:none;fill:black;font-family:-apple-system,&quot;SF Pro Display&quot;,&quot;SF Pro Text&quot;,Helvetica,sans-serif;text-anchor:end;" transform="matrix(1 0 0 1 3036 1969)">Generated from link.circle</text>
  <text style="stroke:none;fill:black;font-family:-apple-system,&quot;SF Pro Display&quot;,&quot;SF Pro Text&quot;,Helvetica,sans-serif;text-anchor:end;" transform="matrix(1 0 0 1 3036 1987)">Typeset at 100 points</text>
  <text style="stroke:none;fill:black;font-family:-apple-system,&quot;SF Pro Display&quot;,&quot;SF Pro Text&quot;,Helvetica,sans-serif;" transform="matrix(1 0 0 1 263 726)">Small</text>
  <text style="stroke:none;fill:black;font-family:-apple-system,&quot;SF Pro Display&quot;,&quot;SF Pro Text&quot;,Helvetica,sans-serif;" transform="matrix(1 0 0 1 263 1156)">Medium</text>
  <text style="stroke:none;fill:black;font-family:-apple-system,&quot;SF Pro Display&quot;,&quot;SF Pro Text&quot;,Helvetica,sans-serif;" transform="matrix(1 0 0 1 263 1586)">Large</text>
 </g>
 <g id="Guides">
  <g id="H-reference" style="fill:#27AAE1;stroke:none;" transform="matrix(1 0 0 1 339 696)">
   <path d="M 0.976562 0 L 3.66211 0 L 12.9883 -24.4629 L 45.7031 -24.4629 L 55.0781 0 L 57.7148 0 L 30.6152 -70.459 L 28.125 -70.459 Z M 29.2969 -67.1387 L 29.3945 -67.1387 L 44.873 -26.709 L 13.8672 -26.709 Z"/>
  </g>
  <line id="Baseline-S" style="fill:none;stroke:#27AAE1;opacity:1;stroke-width:0.5;" x1="263" x2="3036" y1="696" y2="696"/>
  <line id="Capline-S" style="fill:none;stroke:#27AAE1;opacity:1;stroke-width:0.5;" x1="263" x2="3036" y1="625.541" y2="625.541"/>
  <g id="H-reference" style="fill:#27AAE1;stroke:none;" transform="matrix(1 0 0 1 339 1126)">
   <path d="M 0.976562 0 L 3.66211 0 L 12.9883 -24.4629 L 45.7031 -24.4629 L 55.0781 0 L 57.7148 0 L 30.6152 -70.459 L 28.125 -70.459 Z M 29.2969 -67.1387 L 29.3945 -67.1387 L 44.873 -26.709 L 13.8672 -26.709 Z"/>
  </g>
  <line id="Baseline-M" style="fill:none;stroke:#27AAE1;opacity:1;stroke-width:0.5;" x1="263" x2="3036" y1="1126" y2="1126"/>
  <line id="Capline-M" style="fill:none;stroke:#27AAE1;opacity:1;stroke-width:0.5;" x1="263" x2="3036" y1="1055.54" y2="1055.54"/>
  <g id="H-reference" style="fill:#27AAE1;stroke:none;" transform="matrix(1 0 0 1 339 1556)">
   <path d="M 0.976562 0 L 3.66211 0 L 12.9883 -24.4629 L 45.7031 -24.4629 L 55.0781 0 L 57.7148 0 L 30.6152 -70.459 L 28.125 -70.459 Z M 29.2969 -67.1387 L 29.3945 -67.1387 L 44.873 -26.709 L 13.8672 -26.709 Z"/>
  </g>
  <line id="Baseline-L" style="fill:none;stroke:#27AAE1;opacity:1;stroke-width:0.5;" x1="263" x2="3036" y1="1556" y2="1556"/>
  <line id="Capline-L" style="fill:none;stroke:#27AAE1;opacity:1;stroke-width:0.5;" x1="263" x2="3036" y1="1485.54" y2="1485.54"/>
  <line id="left-margin" style="fill:none;stroke:#00AEEF;stroke-width:0.5;opacity:1.0;" x1="1391.3" x2="1391.3" y1="1030.79" y2="1150.12"/>
  <line id="right-margin" style="fill:none;stroke:#00AEEF;stroke-width:0.5;opacity:1.0;" x1="1508.39" x2="1508.39" y1="1030.79" y2="1150.12"/>
 </g>
 <g id="Symbols">
  <g id="Black-L" transform="matrix(1 0 0 1 2854.05 1556)">
   <path d="M 79.3457 32.8613 C 116.748 32.8613 147.412 2.19727 147.412 -35.2051 C 147.412 -72.6074 116.748 -103.271 79.2969 -103.271 C 41.8945 -103.271 11.2793 -72.6074 11.2793 -35.2051 C 11.2793 2.19727 41.9434 32.8613 79.3457 32.8613 Z M 79.3457 12.4023 C 52.9785 12.4023 31.7383 -8.83789 31.7383 -35.2051 C 31.7383 -61.5723 52.9297 -82.8125 79.2969 -82.8125 C 105.664 -82.8125 126.953 -61.5723 126.953 -35.2051 C 127.002 -8.83789 105.713 12.4023 79.3457 12.4023 Z M 106.055 -63.3789 C 97.9004 -71.4844 87.7441 -70.6055 78.3203 -61.3281 L 71.6309 -54.7852 C 62.0117 -45.4102 61.377 -34.8633 69.5801 -26.9531 C 71.2891 -25.293 73.4863 -23.6816 74.9512 -22.8027 C 77.0996 -24.5605 79.5898 -27.6855 80.3223 -29.6387 C 78.8086 -30.2246 76.5625 -31.6895 75.4395 -32.7637 C 70.9961 -37.2559 71.7285 -43.1641 77.6367 -49.0723 L 83.8867 -55.2246 C 89.8438 -61.0352 95.6543 -61.8652 100.146 -57.4707 C 104.639 -53.0762 103.906 -47.0215 97.9492 -41.2109 L 94.5801 -37.8906 C 95.8496 -35.8887 96.3379 -30.4199 95.4102 -27.002 L 104.053 -35.5469 C 113.428 -44.9219 114.16 -55.2734 106.055 -63.3789 Z M 50.293 -7.08008 C 58.3984 1.02539 68.5547 0.146484 78.0273 -9.13086 L 84.7168 -15.6738 C 94.3359 -25 94.9707 -35.5469 86.7676 -43.5059 C 85.0586 -45.166 82.8613 -46.7773 81.3965 -47.6074 C 79.248 -45.8984 76.7578 -42.7734 76.0254 -40.8203 C 77.5391 -40.1855 79.7852 -38.7695 80.9082 -37.6465 C 85.3516 -33.1543 84.6191 -27.2461 78.6621 -21.3867 L 72.4609 -15.1855 C 66.5039 -9.375 60.6934 -8.54492 56.2012 -12.9395 C 51.709 -17.3828 52.4414 -23.3887 58.3496 -29.248 L 61.7676 -32.5684 C 60.498 -34.5703 60.0098 -40.0391 60.9375 -43.457 L 52.2949 -34.8633 C 42.9199 -25.4883 42.1875 -15.1855 50.293 -7.08008 Z"/>
  </g>
  <g id="Heavy-L" transform="matrix(1 0 0 1 2558.39 1556)">
   <path d="M 78.2715 31.7871 C 115.088 31.7871 145.312 1.5625 145.312 -35.2051 C 145.312 -72.0215 115.039 -102.246 78.2715 -102.246 C 41.4551 -102.246 11.2793 -72.0215 11.2793 -35.2051 C 11.2793 1.5625 41.5039 31.7871 78.2715 31.7871 Z M 78.2715 14.0137 C 51.0254 14.0137 29.0527 -7.95898 29.0527 -35.2051 C 29.0527 -62.5 50.9766 -84.4727 78.2715 -84.4727 C 105.518 -84.4727 127.49 -62.5 127.539 -35.2051 C 127.539 -7.95898 105.566 14.0137 78.2715 14.0137 Z M 105.371 -63.7207 C 97.3633 -71.7285 87.3535 -70.8984 78.0762 -61.7676 L 70.5078 -54.3457 C 61.084 -45.1172 60.4492 -34.7656 68.5547 -26.9043 C 70.3613 -25.0488 72.6562 -23.4863 74.2676 -22.7539 C 76.3184 -24.3652 78.6621 -27.2461 79.3945 -29.1992 C 77.5391 -29.7363 75.293 -31.0547 73.9746 -32.373 C 69.3848 -36.9629 70.1172 -43.0664 76.123 -49.0234 L 83.3008 -56.1035 C 89.2578 -62.0117 95.2637 -62.7441 99.8535 -58.252 C 104.492 -53.6621 103.809 -47.5098 97.8027 -41.6504 L 93.457 -37.3047 C 94.5801 -35.2539 95.0195 -30.3223 94.043 -27.002 L 103.467 -36.377 C 112.646 -45.6055 113.379 -55.7129 105.371 -63.7207 Z M 48.8281 -6.78711 C 56.8848 1.2207 66.8945 0.390625 76.1719 -8.74023 L 83.6914 -16.1621 C 93.1152 -25.3906 93.7988 -35.7422 85.6934 -43.6035 C 83.8379 -45.4102 81.543 -47.0215 79.9316 -47.7539 C 77.8809 -46.1426 75.5859 -43.2617 74.8047 -41.3086 C 76.6602 -40.7715 78.9551 -39.4531 80.2246 -38.1348 C 84.8145 -33.5449 84.1309 -27.4414 78.0762 -21.4844 L 70.9473 -14.3555 C 64.9414 -8.49609 58.9844 -7.76367 54.3457 -12.2559 C 49.707 -16.7969 50.3906 -22.998 56.3965 -28.8574 L 60.791 -33.2031 C 59.6191 -35.2539 59.2285 -40.1855 60.1562 -43.5059 L 50.7812 -34.1309 C 41.5527 -24.9023 40.8203 -14.7949 48.8281 -6.78711 Z"/>
  </g>
  <g id="Bold-L" transform="matrix(1 0 0 1 2262.88 1556)">
   <path d="M 77.0996 30.5664 C 113.232 30.5664 142.92 0.878906 142.92 -35.2539 C 142.92 -71.3379 113.184 -101.074 77.0508 -101.074 C 40.9668 -101.074 11.2793 -71.3379 11.2793 -35.2539 C 11.2793 0.878906 41.0156 30.5664 77.0996 30.5664 Z M 77.0996 15.8203 C 48.8281 15.8203 26.0742 -6.98242 26.0742 -35.2539 C 26.0742 -63.5254 48.7793 -86.2793 77.0508 -86.2793 C 105.371 -86.2793 128.125 -63.5254 128.174 -35.2539 C 128.174 -6.98242 105.371 15.8203 77.0996 15.8203 Z M 104.59 -64.1602 C 96.7285 -71.9727 86.8652 -71.2402 77.7832 -62.2559 L 69.2871 -53.8574 C 60.0586 -44.7754 59.375 -34.668 67.334 -26.8555 C 69.3848 -24.8047 71.7773 -23.291 73.5352 -22.7051 C 75.4395 -24.1211 77.5879 -26.709 78.3691 -28.7109 C 76.123 -29.1504 73.8281 -30.3711 72.3633 -31.8848 C 67.627 -36.6211 68.3105 -42.9199 74.4141 -48.9258 L 82.6172 -57.0801 C 88.623 -63.0371 94.8242 -63.7695 99.5605 -59.082 C 104.346 -54.3945 103.76 -48.0469 97.6562 -42.0898 L 92.1875 -36.6699 C 93.2129 -34.5703 93.5059 -30.2246 92.4805 -27.002 L 102.783 -37.2559 C 111.816 -46.2891 112.549 -56.25 104.59 -64.1602 Z M 47.2168 -6.44531 C 55.127 1.41602 64.9902 0.683594 74.0723 -8.30078 L 82.5684 -16.6992 C 91.7969 -25.7812 92.4805 -35.8887 84.4727 -43.7012 C 82.4707 -45.752 80.0781 -47.3145 78.3203 -47.9004 C 76.416 -46.4355 74.2188 -43.8477 73.4375 -41.8457 C 75.6836 -41.4062 78.0273 -40.1855 79.4922 -38.6719 C 84.2285 -33.9355 83.5449 -27.6367 77.3926 -21.6309 L 69.2383 -13.4766 C 63.2324 -7.51953 57.0312 -6.83594 52.2461 -11.4746 C 47.5098 -16.2109 48.0957 -22.5098 54.1992 -28.4668 L 59.668 -33.8867 C 58.6426 -36.0352 58.3496 -40.332 59.3262 -43.5547 L 49.0234 -33.3496 C 39.9902 -24.2676 39.3066 -14.3066 47.2168 -6.44531 Z"/>
  </g>
  <g id="Semibold-L" transform="matrix(1 0 0 1 1966.97 1556)">
   <path d="M 76.2695 29.7363 C 111.914 29.7363 141.309 0.390625 141.309 -35.2539 C 141.309 -70.8984 111.865 -100.244 76.2695 -100.244 C 40.625 -100.244 11.2793 -70.8984 11.2793 -35.2539 C 11.2793 0.390625 40.6738 29.7363 76.2695 29.7363 Z M 76.2695 17.041 C 47.3145 17.041 24.0234 -6.25 24.0234 -35.2539 C 24.0234 -64.209 47.2656 -87.5488 76.2695 -87.5488 C 105.225 -87.5488 128.564 -64.209 128.613 -35.2539 C 128.662 -6.25 105.273 17.041 76.2695 17.041 Z M 104.102 -64.4043 C 96.2891 -72.168 86.5234 -71.4844 77.5879 -62.5977 L 68.4082 -53.5156 C 59.3262 -44.5312 58.6426 -34.5703 66.5527 -26.8555 C 68.7012 -24.6582 71.1426 -23.1445 73.0469 -22.6562 C 74.8047 -23.9746 76.9043 -26.3672 77.6855 -28.3691 C 75.1465 -28.7598 72.8516 -29.9316 71.2402 -31.543 C 66.4062 -36.377 67.0898 -42.8223 73.2422 -48.877 L 82.1289 -57.7637 C 88.1836 -63.7695 94.4824 -64.4043 99.3652 -59.668 C 104.199 -54.834 103.711 -48.3887 97.5098 -42.4316 L 91.3086 -36.2305 C 92.2363 -34.082 92.4316 -30.127 91.4551 -27.0508 L 102.344 -37.8418 C 111.279 -46.7773 111.914 -56.5918 104.102 -64.4043 Z M 46.0938 -6.20117 C 53.9062 1.5625 63.6719 0.878906 72.6074 -8.00781 L 81.7871 -17.0898 C 90.8691 -26.0742 91.5527 -36.0352 83.6426 -43.75 C 81.4941 -45.9473 79.0527 -47.4609 77.1973 -47.9492 C 75.3906 -46.6309 73.291 -44.2383 72.5098 -42.2363 C 75.0488 -41.8457 77.3438 -40.6738 78.9551 -39.0625 C 83.7891 -34.2285 83.1543 -27.7832 76.9531 -21.7285 L 68.0664 -12.8418 C 62.0117 -6.83594 55.7129 -6.20117 50.8301 -10.9375 C 45.9961 -15.7715 46.5332 -22.2168 52.6855 -28.1738 L 58.8867 -34.375 C 57.959 -36.5234 57.7637 -40.4785 58.7402 -43.5547 L 47.8516 -32.7637 C 38.9648 -23.8281 38.2812 -14.0137 46.0938 -6.20117 Z"/>
  </g>
  <g id="Medium-L" transform="matrix(1 0 0 1 1670.87 1556)">
   <path d="M 75.6836 29.1504 C 110.938 29.1504 140.088 0 140.088 -35.2539 C 140.088 -70.5078 110.889 -99.6582 75.6348 -99.6582 C 40.3809 -99.6582 11.2793 -70.5078 11.2793 -35.2539 C 11.2793 0 40.3809 29.1504 75.6836 29.1504 Z M 75.6836 18.0176 C 46.1426 18.0176 22.4609 -5.76172 22.4609 -35.2539 C 22.4609 -64.7461 46.1426 -88.5254 75.6348 -88.5254 C 105.127 -88.5254 128.906 -64.7461 128.906 -35.2539 C 128.955 -5.76172 105.176 18.0176 75.6836 18.0176 Z M 103.711 -64.6484 C 95.9473 -72.3145 86.2793 -71.6797 77.4414 -62.8418 L 67.7734 -53.2715 C 58.7891 -44.3359 58.1055 -34.5215 65.918 -26.8066 C 68.1641 -24.5117 70.6543 -22.998 72.6562 -22.6074 C 74.3164 -23.8281 76.3672 -26.123 77.1484 -28.125 C 74.4141 -28.4668 72.0703 -29.5898 70.3613 -31.2988 C 65.4785 -36.1816 66.1133 -42.7246 72.3633 -48.877 L 81.7871 -58.3008 C 87.8418 -64.3066 94.2871 -64.9414 99.2188 -60.0586 C 104.15 -55.2246 103.662 -48.6816 97.4609 -42.6758 L 90.625 -35.8887 C 91.5527 -33.6914 91.6504 -30.0781 90.625 -27.0508 L 102.002 -38.2812 C 110.84 -47.168 111.475 -56.8848 103.711 -64.6484 Z M 45.2637 -6.00586 C 52.9785 1.66016 62.6465 1.02539 71.5332 -7.8125 L 81.2012 -17.3828 C 90.1855 -26.3184 90.8691 -36.084 83.0566 -43.7988 C 80.8105 -46.1426 78.3203 -47.6074 76.3184 -48.0469 C 74.6094 -46.7773 72.6074 -44.5312 71.7773 -42.5293 C 74.5117 -42.1875 76.8555 -41.0645 78.5645 -39.3555 C 83.4961 -34.4238 82.8125 -27.8809 76.6113 -21.7773 L 67.1875 -12.3535 C 61.1328 -6.29883 54.6875 -5.71289 49.7559 -10.5469 C 44.8242 -15.4297 45.3613 -21.9727 51.5137 -27.9785 L 58.3008 -34.7656 C 57.4219 -36.9629 57.3242 -40.5762 58.3008 -43.6035 L 46.9727 -32.3242 C 38.1348 -23.4863 37.4512 -13.7695 45.2637 -6.00586 Z"/>
  </g>
  <g id="Regular-L" transform="matrix(1 0 0 1 1374.97 1556)">
   <path d="M 74.8535 28.3203 C 109.668 28.3203 138.477 -0.488281 138.477 -35.2539 C 138.477 -70.0684 109.619 -98.877 74.8047 -98.877 C 40.0391 -98.877 11.2793 -70.0684 11.2793 -35.2539 C 11.2793 -0.488281 40.0879 28.3203 74.8535 28.3203 Z M 74.8535 19.2383 C 44.6777 19.2383 20.4102 -5.07812 20.4102 -35.2539 C 20.4102 -65.4785 44.6289 -89.7461 74.8047 -89.7461 C 105.029 -89.7461 129.297 -65.4785 129.346 -35.2539 C 129.395 -5.07812 105.078 19.2383 74.8535 19.2383 Z M 103.174 -64.8926 C 95.5078 -72.5098 85.9863 -71.9238 77.2461 -63.1836 L 66.9434 -52.9297 C 58.0566 -44.0918 57.373 -34.4727 65.1367 -26.8066 C 67.4805 -24.3652 70.0195 -22.8516 72.1191 -22.5586 C 73.7305 -23.6816 75.6348 -25.7324 76.4648 -27.7832 C 73.4863 -28.0762 71.0938 -29.1016 69.2871 -30.957 C 64.2578 -35.9375 64.8926 -42.627 71.1914 -48.8281 L 81.2988 -58.9355 C 87.4023 -65.0391 93.9453 -65.625 98.9746 -60.6445 C 104.053 -55.6641 103.564 -49.0234 97.3145 -42.9688 L 89.7949 -35.4492 C 90.5762 -33.2031 90.625 -29.9805 89.5996 -27.0508 L 101.514 -38.916 C 110.254 -47.6562 110.889 -57.2266 103.174 -64.8926 Z M 44.1406 -5.76172 C 51.8066 1.80664 61.377 1.2207 70.1172 -7.51953 L 80.4199 -17.7734 C 89.2578 -26.5625 89.9414 -36.2305 82.2266 -43.8965 C 79.834 -46.3379 77.2949 -47.8027 75.1953 -48.1445 C 73.6328 -46.9727 71.7285 -44.9219 70.8496 -42.8711 C 73.877 -42.627 76.2207 -41.6016 78.0762 -39.7461 C 83.1055 -34.7168 82.4219 -28.0273 76.123 -21.875 L 66.0156 -11.7188 C 59.9609 -5.66406 53.3691 -5.07812 48.3398 -10.0098 C 43.3105 -14.9902 43.7988 -21.6797 50 -27.6855 L 57.5684 -35.2539 C 56.7383 -37.4512 56.6895 -40.6738 57.7637 -43.6523 L 45.8008 -31.7871 C 37.0605 -23.0469 36.4258 -13.4277 44.1406 -5.76172 Z"/>
  </g>
  <g id="Light-L" transform="matrix(1 0 0 1 1079.18 1556)">
   <path d="M 73.9258 27.3926 C 108.301 27.3926 136.621 -0.927734 136.621 -35.2539 C 136.621 -69.6289 108.252 -97.9492 73.9258 -97.9492 C 39.5508 -97.9492 11.2793 -69.6289 11.2793 -35.2539 C 11.2793 -0.927734 39.5996 27.3926 73.9258 27.3926 Z M 73.9258 20.5078 C 43.1152 20.5078 18.2129 -4.44336 18.2129 -35.2539 C 18.2129 -66.1133 43.0664 -91.0156 73.9258 -91.0156 C 104.736 -91.0156 129.688 -66.1133 129.736 -35.2539 C 129.736 -4.44336 104.785 20.5078 73.9258 20.5078 Z M 101.953 -64.6484 C 94.5801 -71.9238 85.4004 -71.3867 77.2461 -63.2812 L 65.7227 -51.8555 C 57.4707 -43.6523 56.9336 -34.3262 64.3555 -27.002 C 67.041 -24.3164 69.7266 -22.8027 72.2168 -22.5098 C 73.5352 -23.4375 75.1465 -25.1465 75.8301 -27.002 C 72.6562 -27.0996 70.0684 -28.1738 67.8223 -30.5176 C 62.6465 -35.5469 63.0859 -42.3828 69.1895 -48.3398 L 80.7129 -59.8633 C 86.6211 -65.8203 93.3105 -66.2109 98.4375 -61.1328 C 103.613 -56.0547 103.32 -49.2676 97.2168 -43.4082 L 88.2324 -34.375 C 88.8184 -32.4707 88.7695 -29.7852 87.6953 -27.0996 L 100.635 -39.9414 C 108.789 -48.0469 109.326 -57.373 101.953 -64.6484 Z M 43.4082 -6.05469 C 50.7812 1.2207 59.9609 0.683594 68.1152 -7.4707 L 79.5898 -18.8477 C 87.8418 -27.0508 88.3789 -36.4258 81.0059 -43.7012 C 78.3203 -46.3867 75.6348 -47.9004 73.1445 -48.2422 C 71.8262 -47.2656 70.2148 -45.5566 69.5312 -43.75 C 72.7051 -43.6035 75.2441 -42.5781 77.5391 -40.2344 C 82.7148 -35.1562 82.2266 -28.3203 76.1719 -22.3633 L 64.6484 -10.8887 C 58.7402 -4.88281 52.0508 -4.49219 46.9238 -9.61914 C 41.748 -14.6973 42.0898 -21.4355 48.1445 -27.2949 L 57.1289 -36.3281 C 56.543 -38.2324 56.5918 -40.9668 57.6172 -43.6523 L 44.7266 -30.8105 C 36.5723 -22.6562 35.9863 -13.3789 43.4082 -6.05469 Z"/>
  </g>
  <g id="Thin-L" transform="matrix(1 0 0 1 783.693 1556)">
   <path d="M 72.7051 26.1719 C 106.494 26.1719 134.18 -1.51367 134.18 -35.2539 C 134.18 -69.043 106.494 -96.7285 72.7051 -96.7285 C 38.9648 -96.7285 11.2793 -69.043 11.2793 -35.2539 C 11.2793 -1.51367 38.9648 26.1719 72.7051 26.1719 Z M 72.7051 22.168 C 41.0156 22.168 15.2832 -3.56445 15.2832 -35.2539 C 15.2832 -66.9922 41.0156 -92.7246 72.7051 -92.7246 C 104.395 -92.7246 130.176 -66.9922 130.176 -35.2539 C 130.176 -3.56445 104.443 22.168 72.7051 22.168 Z M 100.293 -64.3066 C 93.3105 -71.1914 84.6191 -70.752 77.2949 -63.3789 L 64.1602 -50.4395 C 56.7383 -43.0664 56.3477 -34.1309 63.3301 -27.2949 C 66.4062 -24.2676 69.2871 -22.7539 72.2656 -22.4121 C 73.2422 -23.1445 74.4629 -24.3652 74.9512 -25.9277 C 71.5332 -25.7812 68.7012 -26.9043 65.8691 -29.8828 C 60.498 -35.0098 60.6934 -42.041 66.5527 -47.7539 L 79.8828 -61.0352 C 85.5957 -66.8457 92.4805 -66.9922 97.6562 -61.7188 C 103.027 -56.543 102.93 -49.5605 97.0215 -43.9453 L 86.1816 -33.0078 C 86.4258 -31.4941 86.2793 -29.4922 85.2539 -27.1484 L 99.4141 -41.2598 C 106.836 -48.6328 107.275 -57.5195 100.293 -64.3066 Z M 42.3828 -6.44531 C 49.4141 0.390625 58.0566 0 65.4297 -7.37305 L 78.5156 -20.3125 C 85.9863 -27.6855 86.3281 -36.6699 79.3945 -43.457 C 76.2695 -46.4844 73.4375 -48.0469 70.459 -48.3398 C 69.4824 -47.6562 68.2129 -46.3867 67.7734 -44.873 C 71.1914 -44.9707 73.9746 -43.8477 76.8066 -40.8691 C 82.2266 -35.7422 82.0312 -28.7109 76.1719 -23.0469 L 62.793 -9.76562 C 57.1289 -3.90625 50.2441 -3.75977 45.0684 -9.0332 C 39.6973 -14.2578 39.8438 -21.1914 45.7031 -26.8066 L 56.543 -37.793 C 56.2988 -39.2578 56.3965 -41.3086 57.4707 -43.6523 L 43.3105 -29.4922 C 35.8887 -22.1191 35.4492 -13.2812 42.3828 -6.44531 Z"/>
  </g>
  <g id="Ultralight-L" transform="matrix(1 0 0 1 487.616 1556)">
   <path d="M 72.1191 25.5371 C 105.566 25.5371 132.91 -1.80664 132.91 -35.2539 C 132.91 -68.75 105.566 -96.0938 72.1191 -96.0938 C 38.623 -96.0938 11.2793 -68.75 11.2793 -35.2539 C 11.2793 -1.80664 38.623 25.5371 72.1191 25.5371 Z M 72.1191 23.0469 C 39.9414 23.0469 13.7695 -3.125 13.7695 -35.2539 C 13.7695 -67.4316 39.9414 -93.6035 72.1191 -93.6035 C 104.248 -93.6035 130.42 -67.4316 130.42 -35.2539 C 130.42 -3.125 104.248 23.0469 72.1191 23.0469 Z M 99.4629 -64.1602 C 92.627 -70.8008 84.2285 -70.4102 77.2949 -63.4277 L 63.3789 -49.707 C 56.3477 -42.7734 56.0547 -34.0332 62.793 -27.4414 C 66.1133 -24.2188 69.043 -22.7051 72.3145 -22.3633 C 73.0957 -22.9492 74.1211 -23.9746 74.5117 -25.3418 C 70.9961 -25.1465 68.0176 -26.2695 64.8926 -29.5898 C 59.375 -34.7168 59.4727 -41.8457 65.1855 -47.4121 L 79.4922 -61.6211 C 85.0586 -67.3828 92.041 -67.3828 97.2656 -62.0605 C 102.686 -56.7871 102.783 -49.7559 96.9238 -44.2383 L 85.1562 -32.2754 C 85.2051 -31.0059 85.0098 -29.3457 83.9844 -27.1484 L 98.7793 -41.9434 C 105.811 -48.9258 106.201 -57.5684 99.4629 -64.1602 Z M 41.8945 -6.64062 C 48.7305 0 57.1289 -0.390625 64.0625 -7.32422 L 77.9785 -21.0938 C 85.0098 -28.0273 85.3027 -36.7676 78.5645 -43.3105 C 75.2441 -46.5332 72.3145 -48.0957 69.043 -48.3887 C 68.2617 -47.8027 67.2363 -46.8262 66.8945 -45.459 C 70.3613 -45.6543 73.3398 -44.5312 76.4648 -41.2109 C 81.9824 -36.0352 81.8848 -28.9551 76.1719 -23.3887 L 61.8652 -9.17969 C 56.2988 -3.41797 49.3164 -3.41797 44.0918 -8.74023 C 38.6719 -14.0137 38.6719 -21.0449 44.4336 -26.5137 L 56.2012 -38.5254 C 56.1523 -39.7949 56.3477 -41.4551 57.373 -43.6523 L 42.5781 -28.8574 C 35.5469 -21.875 35.1562 -13.2324 41.8945 -6.64062 Z"/>
  </g>
  <g id="Black-M" transform="matrix(1 0 0 1 2870.97 1126)">
   <path d="M 62.4023 18.457 C 91.9922 18.457 116.113 -5.61523 116.113 -35.2051 C 116.113 -64.7949 91.9922 -88.8672 62.4023 -88.8672 C 32.8125 -88.8672 8.74023 -64.7949 8.74023 -35.2051 C 8.74023 -5.61523 32.8125 18.457 62.4023 18.457 Z M 62.4023 0.195312 C 42.8711 0.195312 27.002 -15.625 27.002 -35.2051 C 27.002 -54.7363 42.8711 -70.6055 62.4023 -70.6055 C 81.9824 -70.6055 97.8027 -54.7363 97.8027 -35.2051 C 97.8027 -15.625 81.9824 0.195312 62.4023 0.195312 Z M 82.4219 -56.3965 C 76.123 -62.6953 68.3105 -61.9629 61.084 -54.9316 L 56.3965 -50.3906 C 49.0234 -43.3105 48.584 -35.0098 54.9316 -29.0039 C 56.2012 -27.7832 57.8613 -26.5137 58.9844 -25.6836 C 60.7422 -27.0996 62.6953 -29.6875 63.0859 -31.0547 C 62.3047 -31.543 60.498 -32.8125 59.6191 -33.6914 C 56.2988 -37.0117 56.7871 -41.4551 61.1816 -45.8008 L 65.5273 -50.0488 C 69.9707 -54.3945 74.3164 -55.0293 77.6855 -51.709 C 81.0547 -48.4375 80.4688 -43.8965 76.0742 -39.5508 L 73.9746 -37.5 C 75 -36.1816 75.4883 -31.543 74.8047 -28.8574 L 80.957 -34.9609 C 88.0859 -42.1387 88.6719 -50.1953 82.4219 -56.3965 Z M 40.5273 -14.0137 C 46.8262 -7.71484 54.6875 -8.44727 61.9141 -15.4785 L 66.6016 -19.9707 C 73.9258 -27.0996 74.3652 -35.4004 68.0176 -41.4062 C 66.7969 -42.5781 65.0879 -43.8965 63.9648 -44.7266 C 62.207 -43.2617 60.3027 -40.7227 59.8633 -39.3555 C 60.6445 -38.8672 62.4512 -37.5977 63.3301 -36.7188 C 66.6992 -33.3496 66.2109 -28.9551 61.7676 -24.6094 L 57.4707 -20.3613 C 52.9785 -16.0156 48.6328 -15.3809 45.3125 -18.7012 C 41.9434 -21.9727 42.4805 -26.5137 46.9238 -30.8594 L 48.9746 -32.8613 C 47.998 -34.2285 47.4609 -38.8672 48.1445 -41.5527 L 42.041 -35.4004 C 34.8633 -28.2715 34.3262 -20.2148 40.5273 -14.0137 Z"/>
  </g>
  <g id="Heavy-M" transform="matrix(1 0 0 1 2575.19 1126)">
   <path d="M 61.5234 17.5293 C 90.5273 17.5293 114.258 -6.20117 114.258 -35.2051 C 114.258 -64.2578 90.5273 -87.9883 61.4746 -87.9883 C 32.4707 -87.9883 8.74023 -64.2578 8.74023 -35.2051 C 8.74023 -6.20117 32.4707 17.5293 61.5234 17.5293 Z M 61.5234 1.61133 C 41.1133 1.61133 24.6582 -14.8438 24.6582 -35.2051 C 24.6582 -55.6152 41.1133 -72.0703 61.4746 -72.0703 C 81.8848 -72.0703 98.3398 -55.6152 98.3398 -35.2051 C 98.3398 -14.8438 81.8848 1.61133 61.5234 1.61133 Z M 82.0312 -56.8848 C 75.7812 -63.0859 67.9688 -62.4023 60.791 -55.3711 L 55.4688 -50.1953 C 48.1445 -43.0664 47.7051 -34.9609 54.0039 -28.9062 C 55.3223 -27.5879 57.0801 -26.3184 58.252 -25.6348 C 59.9121 -26.9531 61.7676 -29.3457 62.3047 -30.7617 C 61.1816 -31.25 59.375 -32.373 58.4473 -33.3008 C 54.9805 -36.7676 55.4688 -41.3574 60.0098 -45.8496 L 64.9902 -50.7812 C 69.5312 -55.2246 74.0723 -55.8105 77.5391 -52.3926 C 81.0059 -48.9746 80.4688 -44.3359 75.9277 -39.8926 L 73.1445 -37.1582 C 74.1211 -35.6934 74.5117 -31.4453 73.7793 -28.8574 L 80.5176 -35.5469 C 87.6953 -42.7246 88.2324 -50.6348 82.0312 -56.8848 Z M 39.1602 -13.5742 C 45.4102 -7.32422 53.1738 -8.00781 60.4004 -15.0879 L 65.7227 -20.2148 C 72.998 -27.3438 73.4863 -35.498 67.1875 -41.5527 C 65.8203 -42.8711 64.1113 -44.1406 62.8906 -44.8242 C 61.2305 -43.5059 59.375 -41.1133 58.8867 -39.6484 C 60.0098 -39.209 61.7676 -38.0859 62.7441 -37.1094 C 66.2109 -33.6426 65.6738 -29.1016 61.1328 -24.6094 L 56.1523 -19.6777 C 51.6113 -15.2344 47.1191 -14.6484 43.6523 -18.0176 C 40.1855 -21.4355 40.7227 -26.123 45.2148 -30.5664 L 47.998 -33.3008 C 47.0703 -34.7656 46.6797 -38.9648 47.3633 -41.6016 L 40.625 -34.8633 C 33.4961 -27.7344 32.9102 -19.7754 39.1602 -13.5742 Z"/>
  </g>
  <g id="Bold-M" transform="matrix(1 0 0 1 2279.5 1126)">
   <path d="M 60.498 16.5039 C 88.8672 16.5039 112.207 -6.83594 112.207 -35.2051 C 112.207 -63.623 88.8672 -86.9629 60.4492 -86.9629 C 32.0312 -86.9629 8.74023 -63.623 8.74023 -35.2051 C 8.74023 -6.83594 32.0801 16.5039 60.498 16.5039 Z M 60.498 3.22266 C 39.1602 3.22266 22.0703 -13.916 22.0703 -35.2051 C 22.0703 -56.543 39.1602 -73.6816 60.4492 -73.6816 C 81.7383 -73.6816 98.9258 -56.543 98.9258 -35.2051 C 98.9746 -13.916 81.7871 3.22266 60.498 3.22266 Z M 81.543 -57.373 C 75.3418 -63.5742 67.627 -62.9395 60.4492 -55.8594 L 54.4434 -50 C 47.168 -42.8223 46.6797 -34.8633 52.9297 -28.7598 C 54.3945 -27.2949 56.1523 -26.0742 57.4219 -25.5371 C 58.9844 -26.7578 60.791 -28.9551 61.377 -30.4688 C 59.8633 -30.9082 58.1055 -31.8848 57.0801 -32.9102 C 53.5156 -36.5234 54.0527 -41.2598 58.7402 -45.8984 L 64.4531 -51.5625 C 69.0918 -56.1523 73.7793 -56.7383 77.3438 -53.1738 C 80.957 -49.6582 80.4688 -44.8242 75.7812 -40.2832 L 72.2168 -36.7676 C 73.0957 -35.1562 73.3887 -31.3965 72.6562 -28.8574 L 80.0781 -36.2305 C 87.207 -43.3594 87.7441 -51.2207 81.543 -57.373 Z M 37.5977 -13.1348 C 43.7988 -6.93359 51.5137 -7.56836 58.6914 -14.6484 L 64.6973 -20.5078 C 71.9727 -27.6855 72.5098 -35.6445 66.2109 -41.748 C 64.7461 -43.2129 62.9883 -44.4336 61.7188 -44.9707 C 60.1562 -43.75 58.3496 -41.5527 57.7637 -40.0391 C 59.2773 -39.5996 61.0352 -38.5742 62.0605 -37.5977 C 65.6738 -33.9844 65.0879 -29.248 60.4004 -24.6094 L 54.7363 -18.9453 C 50.0977 -14.3555 45.4102 -13.7695 41.7969 -17.2852 C 38.1836 -20.8496 38.7207 -25.6836 43.3594 -30.2246 L 46.9238 -33.7402 C 46.0449 -35.3516 45.752 -39.1113 46.4844 -41.6504 L 39.0625 -34.2773 C 31.9336 -27.1484 31.3965 -19.2871 37.5977 -13.1348 Z"/>
  </g>
  <g id="Semibold-M" transform="matrix(1 0 0 1 1983.5 1126)">
   <path d="M 59.7656 15.8203 C 87.7441 15.8203 110.791 -7.27539 110.791 -35.2539 C 110.791 -63.2324 87.6953 -86.2793 59.7656 -86.2793 C 31.7871 -86.2793 8.74023 -63.2324 8.74023 -35.2539 C 8.74023 -7.27539 31.7871 15.8203 59.7656 15.8203 Z M 59.7656 4.3457 C 37.8418 4.3457 20.2637 -13.3301 20.2637 -35.2539 C 20.2637 -57.1777 37.793 -74.8047 59.7656 -74.8047 C 81.6895 -74.8047 99.3164 -57.1777 99.3652 -35.2539 C 99.3652 -13.3301 81.6895 4.3457 59.7656 4.3457 Z M 81.25 -57.7637 C 75.0977 -63.8672 67.3828 -63.2812 60.2539 -56.2012 L 53.7598 -49.8047 C 46.4844 -42.6758 45.9473 -34.8145 52.1973 -28.7109 C 53.7109 -27.1484 55.5664 -25.9277 56.8848 -25.4883 C 58.3496 -26.6602 60.1074 -28.6621 60.7422 -30.2734 C 58.9844 -30.6641 57.2266 -31.5918 56.1523 -32.666 C 52.4902 -36.3281 53.0762 -41.2109 57.8613 -45.9473 L 64.0625 -52.1484 C 68.75 -56.7871 73.5352 -57.373 77.2461 -53.7109 C 80.957 -50.0977 80.4688 -45.166 75.6836 -40.5273 L 71.582 -36.4746 C 72.4121 -34.7656 72.6562 -31.3477 71.875 -28.8574 L 79.7852 -36.7188 C 86.8652 -43.7988 87.4512 -51.5625 81.25 -57.7637 Z M 36.5234 -12.793 C 42.6758 -6.64062 50.3906 -7.22656 57.5195 -14.3066 L 64.0137 -20.7031 C 71.2402 -27.8809 71.7773 -35.7422 65.5762 -41.8457 C 64.0137 -43.4082 62.207 -44.5801 60.8887 -45.0195 C 59.4238 -43.8965 57.666 -41.8457 57.0312 -40.2832 C 58.7891 -39.8926 60.5469 -38.9648 61.6211 -37.8906 C 65.2832 -34.1797 64.6973 -29.3457 59.9121 -24.6094 L 53.7109 -18.4082 C 49.0234 -13.7695 44.1895 -13.1836 40.5273 -16.7969 C 36.8164 -20.459 37.3047 -25.3418 42.0898 -30.0293 L 46.1914 -34.082 C 45.3125 -35.791 45.1172 -39.1602 45.8984 -41.6992 L 37.9883 -33.8379 C 30.9082 -26.709 30.3223 -18.9453 36.5234 -12.793 Z"/>
  </g>
  <g id="Medium-M" transform="matrix(1 0 0 1 1687.3 1126)">
   <path d="M 59.2285 15.2344 C 86.9141 15.2344 109.766 -7.61719 109.766 -35.2539 C 109.766 -62.8906 86.8652 -85.7422 59.1797 -85.7422 C 31.543 -85.7422 8.74023 -62.8906 8.74023 -35.2539 C 8.74023 -7.61719 31.5918 15.2344 59.2285 15.2344 Z M 59.2285 5.17578 C 36.8164 5.17578 18.8965 -12.8418 18.8965 -35.2539 C 18.8965 -57.666 36.8164 -75.6348 59.1797 -75.6348 C 81.5918 -75.6348 99.6094 -57.666 99.6582 -35.2539 C 99.707 -12.8418 81.6406 5.17578 59.2285 5.17578 Z M 81.0059 -58.0078 C 74.8535 -64.1113 67.1875 -63.5742 60.0586 -56.4941 L 53.2227 -49.707 C 45.9961 -42.5293 45.4102 -34.7656 51.6602 -28.6621 C 53.2227 -27.002 55.0781 -25.8301 56.4453 -25.4883 C 57.8613 -26.5625 59.5703 -28.4668 60.2539 -30.127 C 58.3008 -30.4688 56.5918 -31.3477 55.4199 -32.4707 C 51.709 -36.1816 52.2949 -41.1621 57.1777 -45.9961 L 63.7695 -52.5391 C 68.5059 -57.2754 73.3887 -57.8125 77.1484 -54.1504 C 80.9082 -50.4395 80.4688 -45.459 75.5859 -40.7227 L 71.0938 -36.2793 C 71.9238 -34.4727 72.0703 -31.3477 71.2891 -28.8574 L 79.541 -37.0605 C 86.6211 -44.1406 87.1582 -51.8555 81.0059 -58.0078 Z M 35.6934 -12.5488 C 41.8457 -6.44531 49.5117 -6.98242 56.6406 -14.0625 L 63.4766 -20.8496 C 70.7031 -28.0273 71.2891 -35.791 65.0879 -41.9434 C 63.4766 -43.5547 61.6211 -44.7266 60.2539 -45.1172 C 58.8379 -44.043 57.1289 -42.0898 56.4453 -40.4297 C 58.3984 -40.0879 60.1562 -39.209 61.2793 -38.1348 C 64.9902 -34.375 64.4043 -29.3945 59.5215 -24.6094 L 52.9297 -18.0176 C 48.1934 -13.3301 43.3105 -12.7441 39.5508 -16.4551 C 35.791 -20.166 36.2793 -25.1465 41.1133 -29.834 L 45.6055 -34.3262 C 44.7754 -36.084 44.6289 -39.2578 45.459 -41.6992 L 37.1582 -33.5449 C 30.0781 -26.416 29.541 -18.7012 35.6934 -12.5488 Z"/>
  </g>
  <g id="Regular-M" transform="matrix(1 0 0 1 1391.3 1126)">
   <path d="M 58.5449 14.5508 C 85.791 14.5508 108.35 -8.05664 108.35 -35.2539 C 108.35 -62.5 85.7422 -85.0586 58.4961 -85.0586 C 31.2988 -85.0586 8.74023 -62.5 8.74023 -35.2539 C 8.74023 -8.05664 31.3477 14.5508 58.5449 14.5508 Z M 58.5449 6.25 C 35.498 6.25 17.0898 -12.207 17.0898 -35.2539 C 17.0898 -58.3008 35.4492 -76.7578 58.4961 -76.7578 C 81.543 -76.7578 100 -58.3008 100.049 -35.2539 C 100.098 -12.207 81.5918 6.25 58.5449 6.25 Z M 80.6641 -58.3984 C 74.5605 -64.4531 66.9434 -63.916 59.8633 -56.8359 L 52.5391 -49.5605 C 45.3125 -42.334 44.7266 -34.7168 50.9277 -28.5645 C 52.5879 -26.8066 54.4922 -25.6836 55.8594 -25.4395 C 57.2266 -26.416 58.8867 -28.2227 59.668 -29.9316 C 57.4219 -30.2246 55.7129 -31.0059 54.541 -32.1777 C 50.7324 -36.0352 51.3184 -41.1133 56.2988 -45.9961 L 63.3789 -53.125 C 68.1641 -57.9102 73.1934 -58.4473 77.0508 -54.6875 C 80.8594 -50.8789 80.4199 -45.8008 75.4883 -41.0156 L 70.459 -35.9863 C 71.2402 -34.082 71.2891 -31.2988 70.5078 -28.8574 L 79.1992 -37.5 C 86.2793 -44.6289 86.8652 -52.2461 80.6641 -58.3984 Z M 34.668 -12.207 C 40.7715 -6.15234 48.3887 -6.68945 55.4688 -13.7695 L 62.793 -21.0449 C 70.0195 -28.2715 70.6055 -35.8887 64.4043 -42.041 C 62.7441 -43.7988 60.8398 -44.9219 59.4727 -45.166 C 58.1055 -44.1895 56.4453 -42.3828 55.6641 -40.6738 C 57.9102 -40.3809 59.6191 -39.5996 60.791 -38.4277 C 64.5996 -34.5703 64.0137 -29.4922 59.0332 -24.6094 L 51.9531 -17.4805 C 47.168 -12.6953 42.1387 -12.1582 38.2812 -15.918 C 34.4727 -19.7266 34.9121 -24.8047 39.8438 -29.6387 L 44.873 -34.6191 C 44.0918 -36.5234 44.043 -39.3066 44.8242 -41.748 L 36.1328 -33.1055 C 29.0527 -26.0254 28.4668 -18.3594 34.668 -12.207 Z"/>
  </g>
  <g id="Light-M" transform="matrix(1 0 0 1 1095.42 1126)">
   <path d="M 57.7148 13.7207 C 84.5215 13.7207 106.689 -8.44727 106.689 -35.2539 C 106.689 -62.1094 84.5215 -84.2285 57.666 -84.2285 C 30.8594 -84.2285 8.74023 -62.1094 8.74023 -35.2539 C 8.74023 -8.44727 30.9082 13.7207 57.7148 13.7207 Z M 57.7148 7.37305 C 34.082 7.37305 15.0879 -11.6699 15.0879 -35.2539 C 15.0879 -58.8867 34.082 -77.9297 57.666 -77.9297 C 81.2988 -77.9297 100.342 -58.8867 100.391 -35.2539 C 100.391 -11.6699 81.3477 7.37305 57.7148 7.37305 Z M 79.5898 -58.1543 C 73.7305 -63.916 66.4551 -63.4766 59.8633 -56.9336 L 51.4648 -48.584 C 44.8242 -41.9434 44.3359 -34.5703 50.1953 -28.7598 C 52.1484 -26.8066 54.1992 -25.6348 55.9082 -25.3906 C 57.0801 -26.2207 58.4473 -27.6855 59.082 -29.1992 C 56.6895 -29.3457 54.7852 -30.1758 53.2227 -31.7871 C 49.2676 -35.6445 49.707 -40.8691 54.541 -45.6055 L 62.8418 -53.9062 C 67.4805 -58.5938 72.6074 -58.9844 76.5137 -55.0781 C 80.4688 -51.1719 80.1758 -45.9961 75.3906 -41.3574 L 69.0918 -35.0586 C 69.6289 -33.4473 69.6289 -31.1035 68.7988 -28.9062 L 78.418 -38.4277 C 84.9609 -44.9707 85.4492 -52.3438 79.5898 -58.1543 Z M 33.9844 -12.5 C 39.8438 -6.68945 47.1191 -7.12891 53.6621 -13.7207 L 62.0605 -22.0703 C 68.75 -28.7109 69.1895 -36.084 63.3301 -41.8945 C 61.377 -43.8477 59.375 -45.0195 57.6172 -45.2637 C 56.4941 -44.4336 55.0781 -42.9688 54.4922 -41.4551 C 56.8848 -41.2598 58.7402 -40.4785 60.3516 -38.8672 C 64.2578 -35.0098 63.8184 -29.7363 59.0332 -25.0488 L 50.7324 -16.748 C 46.0449 -12.0605 40.918 -11.6699 37.0117 -15.5762 C 33.0566 -19.4336 33.3984 -24.6582 38.1348 -29.248 L 44.4824 -35.5957 C 43.8965 -37.207 43.8965 -39.5508 44.7266 -41.748 L 35.1562 -32.2266 C 28.5645 -25.6348 28.125 -18.3105 33.9844 -12.5 Z"/>
  </g>
  <g id="Thin-M" transform="matrix(1 0 0 1 799.806 1126)">
   <path d="M 56.6406 12.5977 C 82.9102 12.5977 104.492 -8.98438 104.492 -35.2539 C 104.492 -61.5723 82.9102 -83.1543 56.5918 -83.1543 C 30.3223 -83.1543 8.74023 -61.5723 8.74023 -35.2539 C 8.74023 -8.98438 30.3223 12.5977 56.6406 12.5977 Z M 56.6406 8.88672 C 32.2266 8.88672 12.4512 -10.8887 12.4512 -35.2539 C 12.4512 -59.6191 32.2266 -79.4434 56.5918 -79.4434 C 81.0059 -79.4434 100.781 -59.6191 100.781 -35.2539 C 100.781 -10.8887 81.0059 8.88672 56.6406 8.88672 Z M 78.0762 -57.8613 C 72.6074 -63.2324 65.7715 -62.8906 59.8633 -57.0312 L 50.0977 -47.3145 C 44.1406 -41.4062 43.7988 -34.4238 49.3164 -29.0527 C 51.6113 -26.7578 53.8086 -25.5859 56.0059 -25.3418 C 56.8359 -25.9277 57.8613 -27.002 58.252 -28.2227 C 55.6641 -28.2227 53.5645 -29.0527 51.4648 -31.2012 C 47.3633 -35.1562 47.5586 -40.5762 52.1484 -45.0684 L 62.1094 -54.9805 C 66.5527 -59.5215 71.8262 -59.668 75.8789 -55.6152 C 79.9805 -51.6113 79.8828 -46.2891 75.2441 -41.8945 L 67.2363 -33.7891 C 67.4805 -32.5684 67.4316 -30.8105 66.6016 -28.9551 L 77.2949 -39.5996 C 83.2031 -45.5078 83.5938 -52.4414 78.0762 -57.8613 Z M 33.1055 -12.8418 C 38.5742 -7.42188 45.4102 -7.8125 51.3184 -13.6719 L 61.084 -23.3398 C 67.041 -29.248 67.3828 -36.2793 61.8652 -41.6504 C 59.5703 -43.9453 57.373 -45.1172 55.1758 -45.3613 C 54.3457 -44.7754 53.3203 -43.7012 52.9297 -42.4316 C 55.5176 -42.4805 57.6172 -41.6504 59.7168 -39.4531 C 63.8184 -35.498 63.623 -30.127 59.0332 -25.6348 L 49.0723 -15.7227 C 44.6289 -11.1816 39.3555 -11.0352 35.3027 -15.0391 C 31.2012 -19.043 31.3477 -24.4141 35.9375 -28.8086 L 43.9453 -36.9141 C 43.7012 -38.1348 43.75 -39.8438 44.5801 -41.748 L 33.8867 -31.0547 C 27.9785 -25.1953 27.5879 -18.2129 33.1055 -12.8418 Z"/>
  </g>
  <g id="Ultralight-M" transform="matrix(1 0 0 1 503.656 1126)">
   <path d="M 56.0547 12.0605 C 82.0801 12.0605 103.369 -9.22852 103.369 -35.2539 C 103.369 -61.2793 82.0801 -82.5684 56.0547 -82.5684 C 30.0293 -82.5684 8.74023 -61.2793 8.74023 -35.2539 C 8.74023 -9.22852 30.0293 12.0605 56.0547 12.0605 Z M 56.0547 9.66797 C 31.2988 9.66797 11.1328 -10.498 11.1328 -35.2539 C 11.1328 -60.0586 31.2988 -80.1758 56.0547 -80.1758 C 80.8594 -80.1758 100.977 -60.0586 100.977 -35.2539 C 100.977 -10.498 80.8594 9.66797 56.0547 9.66797 Z M 77.3438 -57.666 C 72.0215 -62.8906 65.4297 -62.5977 59.9121 -57.0801 L 49.3652 -46.6797 C 43.7988 -41.1621 43.5547 -34.3262 48.8281 -29.1504 C 51.3184 -26.709 53.5645 -25.5371 56.0547 -25.293 C 56.6895 -25.7812 57.5684 -26.6113 57.8613 -27.7344 C 55.1758 -27.5879 52.9297 -28.4668 50.5859 -30.957 C 46.3379 -34.9121 46.4844 -40.4297 50.9277 -44.7754 L 61.7188 -55.5176 C 66.1133 -59.9609 71.4355 -60.0098 75.4883 -55.9082 C 79.6875 -51.8555 79.6875 -46.4355 75.1465 -42.1387 L 66.3086 -33.1543 C 66.4062 -32.1289 66.3086 -30.7129 65.4785 -28.9551 L 76.7578 -40.2344 C 82.3242 -45.752 82.6172 -52.5391 77.3438 -57.666 Z M 32.6172 -13.0371 C 37.9883 -7.8125 44.5801 -8.10547 50.0977 -13.623 L 60.5957 -24.0234 C 66.1621 -29.541 66.4062 -36.377 61.1328 -41.5527 C 58.6426 -43.9941 56.3965 -45.166 53.9551 -45.4102 C 53.2715 -44.9219 52.3926 -44.0918 52.0996 -42.9688 C 54.7852 -43.1152 57.0312 -42.2363 59.375 -39.7949 C 63.623 -35.791 63.5254 -30.2734 59.0332 -25.9277 L 48.2422 -15.2344 C 43.8965 -10.7422 38.5254 -10.6934 34.4727 -14.7949 C 30.2734 -18.8477 30.3223 -24.2676 34.8145 -28.5645 L 43.6523 -37.5488 C 43.5547 -38.623 43.7012 -39.9902 44.4824 -41.748 L 33.252 -30.4688 C 27.6367 -24.9512 27.3438 -18.1641 32.6172 -13.0371 Z"/>
  </g>
  <g id="Black-S" transform="matrix(1 0 0 1 2884.57 696)">
   <path d="M 48.8281 6.78711 C 71.9727 6.78711 90.8203 -12.0605 90.8203 -35.2051 C 90.8203 -58.3496 71.9727 -77.1973 48.8281 -77.1973 C 25.6836 -77.1973 6.83594 -58.3496 6.83594 -35.2051 C 6.83594 -12.0605 25.6836 6.78711 48.8281 6.78711 Z M 48.8281 -7.37305 C 33.4473 -7.37305 20.9961 -19.8242 20.9961 -35.2051 C 20.9961 -50.5859 33.4473 -63.0371 48.8281 -63.0371 C 64.209 -63.0371 76.6602 -50.5859 76.6602 -35.2051 C 76.6602 -19.8242 64.209 -7.37305 48.8281 -7.37305 Z M 64.5508 -51.8555 C 59.6191 -56.7871 53.4668 -56.2012 47.8027 -50.6836 L 44.0918 -47.1191 C 38.3301 -41.5527 37.9883 -35.0586 42.9688 -30.3223 C 43.9453 -29.3945 45.2637 -28.3691 46.1426 -27.7344 C 47.5098 -28.8574 49.0234 -30.8594 49.3652 -31.9336 C 48.7305 -32.3242 47.3145 -33.3008 46.6309 -33.9844 C 43.9941 -36.6211 44.3848 -40.0879 47.8516 -43.5059 L 51.2695 -46.875 C 54.7852 -50.293 58.2031 -50.7812 60.8398 -48.1934 C 63.4766 -45.6055 63.0371 -42.041 59.5703 -38.623 L 57.9102 -37.0117 C 58.6914 -35.9375 59.082 -32.3242 58.5449 -30.2246 L 63.3789 -35.0586 C 68.9941 -40.6738 69.4336 -46.9727 64.5508 -51.8555 Z M 31.6406 -18.5547 C 36.5723 -13.623 42.7246 -14.209 48.3887 -19.7266 L 52.0996 -23.291 C 57.8613 -28.8574 58.2031 -35.3516 53.2227 -40.0879 C 52.2461 -41.0156 50.9277 -42.041 50.0488 -42.6758 C 48.6816 -41.5527 47.168 -39.5508 46.8262 -38.4766 C 47.4609 -38.0859 48.877 -37.1094 49.5605 -36.4258 C 52.1973 -33.7891 51.8066 -30.3223 48.3398 -26.9043 L 44.9219 -23.5352 C 41.4062 -20.1172 37.9883 -19.6289 35.3516 -22.2168 C 32.7148 -24.8047 33.1543 -28.3691 36.6211 -31.7871 L 38.2812 -33.3984 C 37.5 -34.4727 37.1094 -38.0859 37.6465 -40.1855 L 32.8125 -35.3516 C 27.1973 -29.7363 26.7578 -23.4375 31.6406 -18.5547 Z"/>
  </g>
  <g id="Heavy-S" transform="matrix(1 0 0 1 2588.47 696)">
   <path d="M 48.2422 6.15234 C 70.9961 6.15234 89.5996 -12.4512 89.5996 -35.2051 C 89.5996 -57.959 70.9961 -76.6113 48.1934 -76.6113 C 25.4395 -76.6113 6.83594 -57.959 6.83594 -35.2051 C 6.83594 -12.4512 25.4395 6.15234 48.2422 6.15234 Z M 48.2422 -6.39648 C 32.2754 -6.39648 19.4336 -19.2871 19.4336 -35.2051 C 19.4336 -51.1719 32.2754 -64.0137 48.1934 -64.0137 C 64.1602 -64.0137 77.002 -51.1719 77.0508 -35.2051 C 77.0508 -19.2871 64.1602 -6.39648 48.2422 -6.39648 Z M 64.3555 -52.2461 C 59.4238 -57.1777 53.2715 -56.5918 47.6074 -51.0254 L 43.5059 -47.0703 C 37.7441 -41.4062 37.3535 -35.0098 42.334 -30.2246 C 43.3594 -29.1992 44.6777 -28.2227 45.5566 -27.6855 C 46.9238 -28.7598 48.3887 -30.6641 48.8281 -31.8359 C 47.9492 -32.1777 46.5332 -33.0566 45.8496 -33.7402 C 43.1641 -36.4746 43.6035 -40.0391 47.168 -43.6035 L 50.9277 -47.3633 C 54.541 -50.8301 58.0566 -51.3184 60.791 -48.6816 C 63.4766 -45.9961 63.0859 -42.3828 59.4727 -38.8672 L 57.4219 -36.8164 C 58.2031 -35.6445 58.4961 -32.3242 57.959 -30.2246 L 63.1836 -35.4004 C 68.7988 -41.0645 69.2871 -47.3145 64.3555 -52.2461 Z M 30.6641 -18.2129 C 35.5957 -13.2812 41.748 -13.8184 47.4121 -19.4336 L 51.5137 -23.3887 C 57.2754 -29.0039 57.666 -35.4492 52.6855 -40.2344 C 51.6602 -41.2109 50.3418 -42.2363 49.4629 -42.7246 C 48.0957 -41.6992 46.6309 -39.7949 46.1914 -38.623 C 47.0703 -38.2812 48.4863 -37.3535 49.1699 -36.6699 C 51.8555 -33.9844 51.416 -30.3711 47.8516 -26.8555 L 44.0918 -23.0957 C 40.4785 -19.5801 36.9629 -19.0918 34.2285 -21.7773 C 31.543 -24.4141 31.9336 -28.0762 35.5469 -31.5918 L 37.5977 -33.5938 C 36.8164 -34.8145 36.5234 -38.1348 37.0605 -40.2344 L 31.8359 -35.0098 C 26.2207 -29.3457 25.7324 -23.0957 30.6641 -18.2129 Z"/>
  </g>
  <g id="Bold-S" transform="matrix(1 0 0 1 2292.44 696)">
   <path d="M 47.5586 5.46875 C 69.873 5.46875 88.2324 -12.8906 88.2324 -35.2539 C 88.2324 -57.5684 69.873 -75.9277 47.5098 -75.9277 C 25.1953 -75.9277 6.83594 -57.5684 6.83594 -35.2539 C 6.83594 -12.8906 25.1953 5.46875 47.5586 5.46875 Z M 47.5586 -5.32227 C 30.957 -5.32227 17.6758 -18.6523 17.6758 -35.2539 C 17.6758 -51.8066 30.957 -65.1367 47.5098 -65.1367 C 64.1113 -65.1367 77.4414 -51.8066 77.4414 -35.2539 C 77.4414 -18.6523 64.1113 -5.32227 47.5586 -5.32227 Z M 64.1602 -52.6855 C 59.2285 -57.5684 53.0762 -57.0801 47.3145 -51.416 L 42.8711 -47.0215 C 37.0605 -41.2598 36.6211 -34.9609 41.6016 -30.127 C 42.6758 -29.0039 44.043 -28.0762 44.9219 -27.6367 C 46.2402 -28.6621 47.7051 -30.4199 48.1934 -31.6895 C 47.0215 -32.0312 45.7031 -32.8125 44.9707 -33.4961 C 42.2363 -36.3281 42.6758 -40.0391 46.4355 -43.7012 L 50.5859 -47.8516 C 54.248 -51.4648 57.9102 -51.9531 60.7422 -49.2188 C 63.5254 -46.4844 63.0859 -42.7246 59.375 -39.1113 L 56.8848 -36.6699 C 57.6172 -35.3027 57.8613 -32.2754 57.2754 -30.2246 L 62.9395 -35.791 C 68.6035 -41.5527 69.0918 -47.7539 64.1602 -52.6855 Z M 29.541 -17.8223 C 34.4727 -12.8906 40.625 -13.4277 46.3867 -19.0918 L 50.8301 -23.4863 C 56.6406 -29.1992 57.0801 -35.498 52.0996 -40.3809 C 51.0254 -41.4551 49.6582 -42.4316 48.7305 -42.8223 C 47.4609 -41.8457 45.9961 -40.0391 45.5078 -38.8184 C 46.6797 -38.4277 47.998 -37.6465 48.7305 -36.9629 C 51.4648 -34.1797 51.0254 -30.4688 47.2656 -26.8066 L 43.1152 -22.6074 C 39.4531 -18.9941 35.791 -18.5059 32.959 -21.2402 C 30.1758 -24.0234 30.6152 -27.7832 34.3262 -31.3965 L 36.8164 -33.8379 C 36.084 -35.2051 35.8398 -38.1836 36.4258 -40.2832 L 30.7617 -34.668 C 25.0977 -28.9551 24.6094 -22.7539 29.541 -17.8223 Z"/>
  </g>
  <g id="Semibold-S" transform="matrix(1 0 0 1 1996.2 696)">
   <path d="M 47.0703 4.98047 C 69.0918 4.98047 87.3047 -13.1836 87.3047 -35.2539 C 87.3047 -57.2754 69.0918 -75.4883 47.0215 -75.4883 C 25 -75.4883 6.83594 -57.2754 6.83594 -35.2539 C 6.83594 -13.1836 25.0488 4.98047 47.0703 4.98047 Z M 47.0703 -4.58984 C 30.0781 -4.58984 16.4551 -18.2129 16.4551 -35.2539 C 16.4551 -52.2461 30.0293 -65.8691 47.0215 -65.8691 C 64.0625 -65.8691 77.6855 -52.2461 77.7344 -35.2539 C 77.7344 -18.2129 64.0625 -4.58984 47.0703 -4.58984 Z M 64.0137 -52.9785 C 59.082 -57.8613 52.9297 -57.373 47.168 -51.6602 L 42.4316 -46.9727 C 36.5723 -41.1621 36.084 -34.9609 41.0645 -30.0293 C 42.1875 -28.9062 43.6035 -27.9785 44.5312 -27.6367 C 45.752 -28.5645 47.2168 -30.2734 47.7539 -31.5918 C 46.4355 -31.9336 45.1172 -32.666 44.3848 -33.3496 C 41.5527 -36.2305 42.0898 -39.9902 45.8984 -43.75 L 50.3418 -48.2422 C 54.0527 -51.9043 57.8125 -52.3926 60.6934 -49.6094 C 63.5254 -46.7773 63.0859 -42.9688 59.3262 -39.2578 L 56.543 -36.5234 C 57.2266 -35.0586 57.4219 -32.2754 56.8359 -30.2246 L 62.7441 -36.084 C 68.457 -41.8457 68.9453 -47.998 64.0137 -52.9785 Z M 28.8086 -17.5293 C 33.6914 -12.6465 39.8438 -13.1348 45.6055 -18.8477 L 50.3418 -23.5352 C 56.2012 -29.3457 56.6895 -35.5469 51.709 -40.4785 C 50.5859 -41.6016 49.2188 -42.5293 48.291 -42.8711 C 47.0215 -41.9434 45.6055 -40.2344 45.0195 -38.916 C 46.3867 -38.5742 47.6562 -37.8906 48.3887 -37.1582 C 51.2207 -34.2773 50.7324 -30.5176 46.875 -26.7578 L 42.4316 -22.2656 C 38.7207 -18.6035 35.0098 -18.1152 32.1289 -20.8984 C 29.248 -23.7305 29.6875 -27.5391 33.4961 -31.25 L 36.2793 -33.9844 C 35.5469 -35.4492 35.3516 -38.2324 35.9375 -40.2832 L 30.0293 -34.4238 C 24.3164 -28.6621 23.8281 -22.5098 28.8086 -17.5293 Z"/>
  </g>
  <g id="Medium-S" transform="matrix(1 0 0 1 1699.83 696)">
   <path d="M 46.7285 4.63867 C 68.5547 4.63867 86.6211 -13.4277 86.6211 -35.2539 C 86.6211 -57.0801 68.5059 -75.1465 46.6797 -75.1465 C 24.8535 -75.1465 6.83594 -57.0801 6.83594 -35.2539 C 6.83594 -13.4277 24.9023 4.63867 46.7285 4.63867 Z M 46.7285 -4.00391 C 29.3945 -4.00391 15.5273 -17.9199 15.5273 -35.2539 C 15.5273 -52.5879 29.3457 -66.4551 46.6797 -66.4551 C 64.0137 -66.4551 77.8809 -52.5879 77.9297 -35.2539 C 77.9785 -17.9199 64.0625 -4.00391 46.7285 -4.00391 Z M 63.8672 -53.1738 C 58.9844 -58.1055 52.832 -57.6172 47.0215 -51.8555 L 42.0898 -46.9727 C 36.2305 -41.1133 35.7422 -34.9121 40.7227 -29.9805 C 41.8457 -28.8086 43.2617 -27.8809 44.1895 -27.5879 C 45.4102 -28.5156 46.8262 -30.127 47.4121 -31.543 C 45.9473 -31.8359 44.6777 -32.5195 43.9453 -33.2031 C 41.0645 -36.1328 41.6016 -39.9902 45.5078 -43.7988 L 50.1465 -48.4863 C 53.9062 -52.2461 57.7148 -52.7344 60.6445 -49.9023 C 63.5254 -47.0215 63.1348 -43.1641 59.2773 -39.4043 L 56.25 -36.4258 C 56.9336 -34.9121 57.0801 -32.2754 56.4941 -30.2246 L 62.5977 -36.2793 C 68.3594 -42.0898 68.8477 -48.2422 63.8672 -53.1738 Z M 28.2227 -17.334 C 33.1055 -12.4512 39.2578 -12.8906 45.0684 -18.7012 L 50 -23.584 C 55.9082 -29.4434 56.3965 -35.5957 51.3672 -40.5273 C 50.2441 -41.748 48.8281 -42.6758 47.9004 -42.9199 C 46.7285 -42.041 45.2637 -40.3809 44.6777 -39.0137 C 46.1426 -38.6719 47.4121 -38.0371 48.1445 -37.3047 C 51.0254 -34.4238 50.4883 -30.5664 46.6309 -26.709 L 41.9434 -22.0215 C 38.1836 -18.3105 34.375 -17.8223 31.4453 -20.6543 C 28.5645 -23.5352 29.0039 -27.3926 32.8125 -31.1523 L 35.8398 -34.1309 C 35.1562 -35.6445 35.0098 -38.2812 35.5957 -40.2832 L 29.4922 -34.2285 C 23.7305 -28.4668 23.2422 -22.3145 28.2227 -17.334 Z"/>
  </g>
  <g id="Regular-S" transform="matrix(1 0 0 1 1403.58 696)">
   <path d="M 46.2402 4.15039 C 67.7734 4.15039 85.6934 -13.7207 85.6934 -35.2539 C 85.6934 -56.7871 67.7246 -74.6582 46.1914 -74.6582 C 24.707 -74.6582 6.83594 -56.7871 6.83594 -35.2539 C 6.83594 -13.7207 24.7559 4.15039 46.2402 4.15039 Z M 46.2402 -3.27148 C 28.5156 -3.27148 14.3555 -17.4805 14.3555 -35.2539 C 14.3555 -53.0273 28.4668 -67.2363 46.1914 -67.2363 C 63.9648 -67.2363 78.1738 -53.0273 78.2227 -35.2539 C 78.2715 -17.4805 64.0137 -3.27148 46.2402 -3.27148 Z M 63.7207 -53.4668 C 58.8379 -58.3496 52.6855 -57.959 46.875 -52.0996 L 41.6504 -46.9238 C 35.7422 -41.0156 35.2051 -34.9121 40.1855 -29.9316 C 41.3574 -28.6621 42.8223 -27.7832 43.75 -27.5879 C 44.9219 -28.418 46.3379 -29.9805 47.0215 -31.4453 C 45.3125 -31.7383 44.0918 -32.3242 43.3594 -33.0566 C 40.4297 -36.0352 41.0156 -39.9414 44.9707 -43.8965 L 49.9023 -48.877 C 53.7109 -52.6367 57.6172 -53.1738 60.5957 -50.2441 C 63.5254 -47.3145 63.1348 -43.4082 59.1797 -39.5508 L 55.8594 -36.2793 C 56.5918 -34.668 56.6406 -32.2266 56.0059 -30.2246 L 62.4512 -36.5723 C 68.2129 -42.3828 68.7012 -48.4863 63.7207 -53.4668 Z M 27.4902 -17.0898 C 32.373 -12.207 38.5254 -12.6465 44.3359 -18.457 L 49.5117 -23.6328 C 55.4688 -29.541 55.957 -35.6934 50.9766 -40.625 C 49.8047 -41.8945 48.3887 -42.7734 47.4609 -42.9688 C 46.2891 -42.1387 44.8242 -40.5762 44.1895 -39.1113 C 45.8496 -38.8184 47.1191 -38.2324 47.8516 -37.5 C 50.7812 -34.5215 50.1953 -30.6152 46.2402 -26.6602 L 41.3086 -21.7285 C 37.4512 -17.9199 33.5938 -17.3828 30.6152 -20.3125 C 27.6367 -23.2422 28.0762 -27.1484 31.9824 -31.0059 L 35.3027 -34.2773 C 34.6191 -35.8887 34.5215 -38.3301 35.1562 -40.332 L 28.7598 -33.9844 C 22.9492 -28.1738 22.4609 -22.0703 27.4902 -17.0898 Z"/>
  </g>
  <g id="Light-S" transform="matrix(1 0 0 1 1107.6 696)">
   <path d="M 45.5078 3.41797 C 66.6992 3.41797 84.2285 -14.0625 84.2285 -35.2539 C 84.2285 -56.4453 66.6504 -73.9258 45.5078 -73.9258 C 24.3164 -73.9258 6.83594 -56.4453 6.83594 -35.2539 C 6.83594 -14.0625 24.3652 3.41797 45.5078 3.41797 Z M 45.5078 -2.29492 C 27.2461 -2.29492 12.5977 -16.9922 12.5977 -35.2539 C 12.5977 -53.5156 27.1973 -68.2129 45.5078 -68.2129 C 63.7695 -68.2129 78.4668 -53.5156 78.5156 -35.2539 C 78.5156 -16.9922 63.8184 -2.29492 45.5078 -2.29492 Z M 62.7441 -53.2715 C 58.0566 -57.9102 52.2461 -57.5195 46.875 -52.1973 L 40.7227 -46.0938 C 35.3027 -40.6738 34.8633 -34.7656 39.5996 -30.0781 C 41.0156 -28.6133 42.5293 -27.7344 43.7988 -27.5391 C 44.7754 -28.2227 45.9473 -29.541 46.4844 -30.7617 C 44.6777 -30.957 43.2617 -31.5918 42.1875 -32.666 C 39.1602 -35.6934 39.5508 -39.7461 43.4082 -43.5059 L 49.4141 -49.5605 C 53.125 -53.2715 57.0801 -53.6133 60.1562 -50.6348 C 63.1836 -47.6074 62.8906 -43.6035 59.082 -39.8926 L 54.6387 -35.4492 C 55.127 -34.082 55.1758 -32.0801 54.541 -30.2734 L 61.7188 -37.3535 C 67.041 -42.7246 67.4805 -48.584 62.7441 -53.2715 Z M 26.8555 -17.334 C 31.543 -12.6953 37.4023 -13.0371 42.7246 -18.4082 L 48.877 -24.5117 C 54.3457 -29.9316 54.7363 -35.8398 50 -40.4785 C 48.584 -41.9434 47.0703 -42.8711 45.8496 -43.0664 C 44.8242 -42.334 43.6523 -41.0645 43.1152 -39.7949 C 44.9219 -39.5996 46.3379 -39.0137 47.4121 -37.9395 C 50.4883 -34.8633 50.0488 -30.8594 46.2402 -27.0996 L 40.1855 -21.0449 C 36.4746 -17.334 32.5195 -16.9434 29.4922 -19.9707 C 26.416 -22.998 26.709 -27.002 30.5176 -30.7129 L 34.9609 -35.1562 C 34.4727 -36.5234 34.4238 -38.5254 35.0586 -40.332 L 27.8809 -33.2031 C 22.5586 -27.8809 22.168 -22.0215 26.8555 -17.334 Z"/>
  </g>
  <g id="Thin-S" transform="matrix(1 0 0 1 811.867 696)">
   <path d="M 44.5801 2.49023 C 65.2832 2.49023 82.2754 -14.5508 82.2754 -35.2539 C 82.2754 -55.957 65.2344 -72.998 44.5312 -72.998 C 23.8281 -72.998 6.83594 -55.957 6.83594 -35.2539 C 6.83594 -14.5508 23.877 2.49023 44.5801 2.49023 Z M 44.5801 -0.927734 C 25.5859 -0.927734 10.2539 -16.3086 10.2539 -35.2539 C 10.2539 -54.1992 25.5859 -69.5801 44.5312 -69.5801 C 63.5254 -69.5801 78.8574 -54.1992 78.8574 -35.2539 C 78.8574 -16.3086 63.5254 -0.927734 44.5801 -0.927734 Z M 61.4258 -53.0273 C 57.0801 -57.3242 51.6113 -57.0312 46.875 -52.2949 L 39.502 -44.9707 C 34.668 -40.1855 34.4238 -34.6191 38.7695 -30.3223 C 40.5273 -28.6133 42.1875 -27.6855 43.8477 -27.4902 C 44.5312 -27.9785 45.4102 -28.9062 45.8008 -29.9316 C 43.7988 -29.9316 42.1875 -30.6152 40.625 -32.1777 C 37.4512 -35.3027 37.6465 -39.502 41.3086 -43.0176 L 48.7793 -50.4883 C 52.2949 -54.0527 56.3965 -54.248 59.5215 -51.123 C 62.7441 -47.998 62.5977 -43.8477 58.9355 -40.332 L 53.0273 -34.3262 C 53.2715 -33.3008 53.2227 -31.8359 52.5879 -30.2734 L 60.7422 -38.4277 C 65.5273 -43.1641 65.8203 -48.6816 61.4258 -53.0273 Z M 26.0742 -17.627 C 30.4688 -13.3301 35.8887 -13.623 40.625 -18.3594 L 48.0469 -25.6836 C 52.832 -30.4199 53.125 -35.9863 48.7305 -40.332 C 46.9727 -42.041 45.3125 -42.9688 43.6523 -43.1641 C 42.9688 -42.627 42.0898 -41.6992 41.748 -40.6738 C 43.7012 -40.6738 45.3613 -40.0391 46.875 -38.4277 C 50.0977 -35.3516 49.8535 -31.1523 46.2402 -27.5879 L 38.7207 -20.166 C 35.2051 -16.5527 31.1035 -16.4062 27.9785 -19.5312 C 24.8047 -22.6562 24.9512 -26.8066 28.5645 -30.2734 L 34.5215 -36.2793 C 34.2285 -37.3047 34.2773 -38.7695 34.9121 -40.332 L 26.7578 -32.1777 C 22.0215 -27.4414 21.6797 -21.9238 26.0742 -17.627 Z"/>
  </g>
  <g id="Ultralight-S" transform="matrix(1 0 0 1 515.644 696)">
   <path d="M 44.043 1.95312 C 64.502 1.95312 81.2988 -14.7949 81.2988 -35.2539 C 81.2988 -55.7129 64.502 -72.4609 44.043 -72.4609 C 23.584 -72.4609 6.83594 -55.7129 6.83594 -35.2539 C 6.83594 -14.7949 23.584 1.95312 44.043 1.95312 Z M 44.043 -0.244141 C 24.7559 -0.244141 9.08203 -15.9668 9.08203 -35.2539 C 9.08203 -54.541 24.7559 -70.2637 44.043 -70.2637 C 63.3789 -70.2637 79.0527 -54.541 79.0527 -35.2539 C 79.0527 -15.9668 63.3789 -0.244141 44.043 -0.244141 Z M 60.791 -52.8809 C 56.543 -56.9824 51.3184 -56.7383 46.9238 -52.3438 L 38.8672 -44.3848 C 34.375 -39.9414 34.1797 -34.5215 38.3789 -30.4199 C 40.2832 -28.5645 42.041 -27.6367 43.8965 -27.4414 C 44.4336 -27.8809 45.166 -28.5645 45.4102 -29.4922 C 43.3594 -29.3945 41.6016 -30.0781 39.8438 -31.9336 C 36.5723 -35.0586 36.6699 -39.3555 40.2344 -42.7734 L 48.4375 -50.9766 C 51.9043 -54.4922 56.0547 -54.5898 59.2285 -51.3672 C 62.5 -48.1934 62.4512 -43.9453 58.8867 -40.5762 L 52.1973 -33.7891 C 52.2949 -32.9102 52.1973 -31.7383 51.5625 -30.3223 L 60.2539 -38.9648 C 64.6973 -43.4082 64.9902 -48.7793 60.791 -52.8809 Z M 25.6836 -17.7734 C 29.8828 -13.623 35.1074 -13.916 39.5508 -18.3105 L 47.6074 -26.2695 C 52.0508 -30.7129 52.2949 -36.1328 48.0957 -40.1855 C 46.1914 -42.0898 44.4336 -43.0176 42.5781 -43.2129 C 41.9922 -42.7734 41.3086 -42.041 41.0156 -41.1621 C 43.1152 -41.2109 44.8242 -40.5762 46.582 -38.7207 C 49.9023 -35.5957 49.7559 -31.2988 46.2402 -27.8809 L 37.9883 -19.6777 C 34.5703 -16.1621 30.3711 -16.0645 27.1973 -19.2871 C 23.9746 -22.4609 24.0234 -26.709 27.5391 -30.0781 L 34.2773 -36.8652 C 34.1309 -37.7441 34.2285 -38.916 34.8633 -40.332 L 26.1719 -31.6406 C 21.7285 -27.2461 21.4844 -21.875 25.6836 -17.7734 Z"/>
  </g>
 </g>
</svg>
