<?xml version="1.0" encoding="UTF-8"?>
<!--Generator: Apple Native CoreSVG 148-->
<!DOCTYPE svg
PUBLIC "-//W3C//DTD SVG 1.1//EN"
       "http://www.w3.org/Graphics/SVG/1.1/DTD/svg11.dtd">
<svg version="1.1" xmlns="http://www.w3.org/2000/svg" xmlns:xlink="http://www.w3.org/1999/xlink" width="3300" height="2200">
 <!--glyph: "uni100AAC.medium", point size: 100.000000, font version: "Version 16.0d11e1", template writer version: "8"-->
 <g id="Notes">
  <rect height="2200" id="artboard" style="fill:white;opacity:1" width="3300" x="0" y="0"/>
  <line id="" style="fill:none;stroke:black;opacity:1;stroke-width:0.5;" x1="263" x2="3036" y1="292" y2="292"/>
  <text style="stroke:none;fill:black;font-family:-apple-system,&quot;SF Pro Display&quot;,&quot;SF Pro Text&quot;,Helvetica,sans-serif;font-weight:bold;" transform="matrix(1 0 0 1 263 322)">Weight/Scale Variations</text>
  <text style="stroke:none;fill:black;font-family:-apple-system,&quot;SF Pro Display&quot;,&quot;SF Pro Text&quot;,Helvetica,sans-serif;text-anchor:middle;" transform="matrix(1 0 0 1 559.711 322)">Ultralight</text>
  <text style="stroke:none;fill:black;font-family:-apple-system,&quot;SF Pro Display&quot;,&quot;SF Pro Text&quot;,Helvetica,sans-serif;text-anchor:middle;" transform="matrix(1 0 0 1 856.422 322)">Thin</text>
  <text style="stroke:none;fill:black;font-family:-apple-system,&quot;SF Pro Display&quot;,&quot;SF Pro Text&quot;,Helvetica,sans-serif;text-anchor:middle;" transform="matrix(1 0 0 1 1153.13 322)">Light</text>
  <text style="stroke:none;fill:black;font-family:-apple-system,&quot;SF Pro Display&quot;,&quot;SF Pro Text&quot;,Helvetica,sans-serif;text-anchor:middle;" transform="matrix(1 0 0 1 1449.84 322)">Regular</text>
  <text style="stroke:none;fill:black;font-family:-apple-system,&quot;SF Pro Display&quot;,&quot;SF Pro Text&quot;,Helvetica,sans-serif;text-anchor:middle;" transform="matrix(1 0 0 1 1746.56 322)">Medium</text>
  <text style="stroke:none;fill:black;font-family:-apple-system,&quot;SF Pro Display&quot;,&quot;SF Pro Text&quot;,Helvetica,sans-serif;text-anchor:middle;" transform="matrix(1 0 0 1 2043.27 322)">Semibold</text>
  <text style="stroke:none;fill:black;font-family:-apple-system,&quot;SF Pro Display&quot;,&quot;SF Pro Text&quot;,Helvetica,sans-serif;text-anchor:middle;" transform="matrix(1 0 0 1 2339.98 322)">Bold</text>
  <text style="stroke:none;fill:black;font-family:-apple-system,&quot;SF Pro Display&quot;,&quot;SF Pro Text&quot;,Helvetica,sans-serif;text-anchor:middle;" transform="matrix(1 0 0 1 2636.69 322)">Heavy</text>
  <text style="stroke:none;fill:black;font-family:-apple-system,&quot;SF Pro Display&quot;,&quot;SF Pro Text&quot;,Helvetica,sans-serif;text-anchor:middle;" transform="matrix(1 0 0 1 2933.4 322)">Black</text>
  <line id="" style="fill:none;stroke:black;opacity:1;stroke-width:0.5;" x1="263" x2="3036" y1="1903" y2="1903"/>
  <g id="" transform="matrix(1 0 0 1 263 1933)">
   <path d="M 9.24805 0.830078 C 13.5547 0.830078 17.1387 -2.74414 17.1387 -7.05078 C 17.1387 -11.3574 13.5449 -14.9316 9.23828 -14.9316 C 4.94141 -14.9316 1.36719 -11.3574 1.36719 -7.05078 C 1.36719 -2.74414 4.95117 0.830078 9.24805 0.830078 Z M 9.24805 -0.654297 C 5.70312 -0.654297 2.87109 -3.49609 2.87109 -7.05078 C 2.87109 -10.6055 5.69336 -13.4473 9.23828 -13.4473 C 12.793 -13.4473 15.6348 -10.6055 15.6445 -7.05078 C 15.6543 -3.49609 12.8027 -0.654297 9.24805 -0.654297 Z M 9.22852 -3.62305 C 9.69727 -3.62305 9.9707 -3.93555 9.9707 -4.45312 L 9.9707 -6.31836 L 12.002 -6.31836 C 12.5 -6.31836 12.832 -6.57227 12.832 -7.04102 C 12.832 -7.51953 12.5195 -7.7832 12.002 -7.7832 L 9.9707 -7.7832 L 9.9707 -9.81445 C 9.9707 -10.332 9.69727 -10.6543 9.22852 -10.6543 C 8.75977 -10.6543 8.50586 -10.3125 8.50586 -9.81445 L 8.50586 -7.7832 L 6.49414 -7.7832 C 5.97656 -7.7832 5.64453 -7.51953 5.64453 -7.04102 C 5.64453 -6.57227 5.99609 -6.31836 6.49414 -6.31836 L 8.50586 -6.31836 L 8.50586 -4.45312 C 8.50586 -3.95508 8.75977 -3.62305 9.22852 -3.62305 Z"/>
  </g>
  <g id="" transform="matrix(1 0 0 1 281.506 1933)">
   <path d="M 11.709 2.91016 C 17.1582 2.91016 21.6699 -1.61133 21.6699 -7.05078 C 21.6699 -12.5 17.1484 -17.0117 11.6992 -17.0117 C 6.25977 -17.0117 1.74805 -12.5 1.74805 -7.05078 C 1.74805 -1.61133 6.26953 2.91016 11.709 2.91016 Z M 11.709 1.25 C 7.09961 1.25 3.41797 -2.44141 3.41797 -7.05078 C 3.41797 -11.6602 7.08984 -15.3516 11.6992 -15.3516 C 16.3086 -15.3516 20 -11.6602 20.0098 -7.05078 C 20.0195 -2.44141 16.3184 1.25 11.709 1.25 Z M 11.6797 -2.66602 C 12.207 -2.66602 12.5098 -3.01758 12.5098 -3.59375 L 12.5098 -6.23047 L 15.3223 -6.23047 C 15.8691 -6.23047 16.25 -6.51367 16.25 -7.03125 C 16.25 -7.55859 15.8887 -7.86133 15.3223 -7.86133 L 12.5098 -7.86133 L 12.5098 -10.6836 C 12.5098 -11.25 12.207 -11.6113 11.6797 -11.6113 C 11.1621 -11.6113 10.8789 -11.2305 10.8789 -10.6836 L 10.8789 -7.86133 L 8.07617 -7.86133 C 7.50977 -7.86133 7.13867 -7.55859 7.13867 -7.03125 C 7.13867 -6.51367 7.5293 -6.23047 8.07617 -6.23047 L 10.8789 -6.23047 L 10.8789 -3.59375 C 10.8789 -3.03711 11.1621 -2.66602 11.6797 -2.66602 Z"/>
  </g>
  <g id="" transform="matrix(1 0 0 1 304.924 1933)">
   <path d="M 14.9707 5.66406 C 21.9336 5.66406 27.6953 -0.0976562 27.6953 -7.05078 C 27.6953 -14.0137 21.9238 -19.7754 14.9609 -19.7754 C 8.00781 -19.7754 2.25586 -14.0137 2.25586 -7.05078 C 2.25586 -0.0976562 8.01758 5.66406 14.9707 5.66406 Z M 14.9707 3.84766 C 8.93555 3.84766 4.08203 -1.01562 4.08203 -7.05078 C 4.08203 -13.0957 8.92578 -17.9492 14.9609 -17.9492 C 21.0059 -17.9492 25.8594 -13.0957 25.8691 -7.05078 C 25.8789 -1.01562 21.0156 3.84766 14.9707 3.84766 Z M 14.9414 -1.38672 C 15.5176 -1.38672 15.8594 -1.77734 15.8594 -2.38281 L 15.8594 -6.13281 L 19.7754 -6.13281 C 20.3711 -6.13281 20.7812 -6.46484 20.7812 -7.02148 C 20.7812 -7.59766 20.3906 -7.93945 19.7754 -7.93945 L 15.8594 -7.93945 L 15.8594 -11.8652 C 15.8594 -12.4805 15.5176 -12.8711 14.9414 -12.8711 C 14.375 -12.8711 14.0527 -12.4609 14.0527 -11.8652 L 14.0527 -7.93945 L 10.1465 -7.93945 C 9.53125 -7.93945 9.13086 -7.59766 9.13086 -7.02148 C 9.13086 -6.46484 9.55078 -6.13281 10.1465 -6.13281 L 14.0527 -6.13281 L 14.0527 -2.38281 C 14.0527 -1.79688 14.375 -1.38672 14.9414 -1.38672 Z"/>
  </g>
  <text style="stroke:none;fill:black;font-family:-apple-system,&quot;SF Pro Display&quot;,&quot;SF Pro Text&quot;,Helvetica,sans-serif;font-weight:bold;" transform="matrix(1 0 0 1 263 1953)">Design Variations</text>
  <text style="stroke:none;fill:black;font-family:-apple-system,&quot;SF Pro Display&quot;,&quot;SF Pro Text&quot;,Helvetica,sans-serif;" transform="matrix(1 0 0 1 263 1971)">Symbols are supported in up to nine weights and three scales.</text>
  <text style="stroke:none;fill:black;font-family:-apple-system,&quot;SF Pro Display&quot;,&quot;SF Pro Text&quot;,Helvetica,sans-serif;" transform="matrix(1 0 0 1 263 1989)">For optimal layout with text and other symbols, vertically align</text>
  <text style="stroke:none;fill:black;font-family:-apple-system,&quot;SF Pro Display&quot;,&quot;SF Pro Text&quot;,Helvetica,sans-serif;" transform="matrix(1 0 0 1 263 2007)">symbols with the adjacent text.</text>
  <line id="" style="fill:none;stroke:#00AEEF;stroke-width:0.5;opacity:1.0;" x1="776" x2="776" y1="1919" y2="1933"/>
  <g id="" transform="matrix(1 0 0 1 776 1933)">
   <path d="M 3.31055 0.126953 C 3.82812 0.126953 4.08203 -0.0683594 4.26758 -0.605469 L 5.52734 -4.0625 L 11.2891 -4.0625 L 12.5488 -0.605469 C 12.7344 -0.0683594 12.9883 0.126953 13.4961 0.126953 C 14.0137 0.126953 14.3457 -0.185547 14.3457 -0.673828 C 14.3457 -0.839844 14.3164 -0.986328 14.2383 -1.20117 L 9.6582 -13.3887 C 9.43359 -13.9941 9.0332 -14.2871 8.4082 -14.2871 C 7.80273 -14.2871 7.39258 -13.9941 7.17773 -13.3984 L 2.59766 -1.19141 C 2.51953 -0.976562 2.49023 -0.830078 2.49023 -0.664062 C 2.49023 -0.175781 2.80273 0.126953 3.31055 0.126953 Z M 6.00586 -5.53711 L 8.37891 -12.1094 L 8.42773 -12.1094 L 10.8008 -5.53711 Z"/>
  </g>
  <line id="" style="fill:none;stroke:#00AEEF;stroke-width:0.5;opacity:1.0;" x1="792.836" x2="792.836" y1="1919" y2="1933"/>
  <text style="stroke:none;fill:black;font-family:-apple-system,&quot;SF Pro Display&quot;,&quot;SF Pro Text&quot;,Helvetica,sans-serif;font-weight:bold;" transform="matrix(1 0 0 1 776 1953)">Margins</text>
  <text style="stroke:none;fill:black;font-family:-apple-system,&quot;SF Pro Display&quot;,&quot;SF Pro Text&quot;,Helvetica,sans-serif;" transform="matrix(1 0 0 1 776 1971)">Leading and trailing margins on the left and right side of each symbol</text>
  <text style="stroke:none;fill:black;font-family:-apple-system,&quot;SF Pro Display&quot;,&quot;SF Pro Text&quot;,Helvetica,sans-serif;" transform="matrix(1 0 0 1 776 1989)">can be adjusted by modifying the x-location of the margin guidelines.</text>
  <text style="stroke:none;fill:black;font-family:-apple-system,&quot;SF Pro Display&quot;,&quot;SF Pro Text&quot;,Helvetica,sans-serif;" transform="matrix(1 0 0 1 776 2007)">Modifications are automatically applied proportionally to all</text>
  <text style="stroke:none;fill:black;font-family:-apple-system,&quot;SF Pro Display&quot;,&quot;SF Pro Text&quot;,Helvetica,sans-serif;" transform="matrix(1 0 0 1 776 2025)">scales and weights.</text>
  <g id="" transform="matrix(1 0 0 1 1289 1933)">
   <path d="M 2.8418 1.86523 L 4.54102 3.57422 C 5.40039 4.44336 6.38672 4.38477 7.31445 3.35938 L 17.4902 -7.85156 C 17.7539 -7.76367 18.0273 -7.7832 18.3398 -7.8418 L 19.4043 -8.03711 L 20.0684 -7.36328 L 20.0293 -6.80664 C 19.9902 -6.30859 20.1172 -5.92773 20.6055 -5.44922 L 21.3672 -4.70703 C 21.8457 -4.22852 22.4609 -4.19922 22.9297 -4.66797 L 25.8398 -7.58789 C 26.3086 -8.05664 26.2891 -8.65234 25.8105 -9.13086 L 25.0391 -9.89258 C 24.5605 -10.3711 24.1895 -10.5273 23.7109 -10.4883 L 23.1348 -10.4395 L 22.4902 -11.0742 L 22.7344 -12.1973 C 22.8613 -12.7637 22.7051 -13.2031 22.1191 -13.7891 L 19.9219 -15.9766 C 16.582 -19.2969 12.1484 -19.2188 9.25781 -16.3281 C 8.83789 -15.918 8.80859 -15.3418 9.04297 -14.9512 C 9.27734 -14.5898 9.73633 -14.3555 10.3809 -14.5215 C 11.8457 -14.8633 13.3691 -14.9219 14.7949 -13.9844 L 14.209 -12.5293 C 14.0137 -12.0508 13.9844 -11.6504 14.1113 -11.2891 L 3.04688 -0.898438 C 2.06055 0.0195312 1.98242 0.996094 2.8418 1.86523 Z M 10.752 -15.957 C 13.1836 -17.7344 16.4746 -17.4316 18.7012 -15.2051 L 21.1328 -12.793 C 21.3672 -12.5586 21.4062 -12.373 21.3379 -12.0312 L 21.0156 -10.5469 L 22.5195 -9.0625 L 23.5059 -9.12109 C 23.7598 -9.13086 23.8379 -9.11133 24.0332 -8.91602 L 24.6094 -8.33984 L 22.168 -5.89844 L 21.5918 -6.47461 C 21.3965 -6.66992 21.3672 -6.74805 21.377 -7.01172 L 21.4453 -7.98828 L 19.9512 -9.47266 L 18.4277 -9.21875 C 18.1055 -9.15039 17.959 -9.17969 17.7148 -9.41406 L 15.7129 -11.416 C 15.459 -11.6504 15.4297 -11.8164 15.5859 -12.1875 L 16.4648 -14.2773 C 14.9023 -15.7324 12.8711 -16.3574 10.8398 -15.7617 C 10.6836 -15.7227 10.625 -15.8496 10.752 -15.957 Z M 5.27344 2.30469 L 4.10156 1.14258 C 3.63281 0.683594 3.74023 0.341797 4.14062 -0.0195312 L 14.9512 -10.1953 L 16.416 -8.71094 L 6.42578 2.27539 C 6.07422 2.67578 5.74219 2.77344 5.27344 2.30469 Z"/>
  </g>
  <text style="stroke:none;fill:black;font-family:-apple-system,&quot;SF Pro Display&quot;,&quot;SF Pro Text&quot;,Helvetica,sans-serif;font-weight:bold;" transform="matrix(1 0 0 1 1289 1953)">Exporting</text>
  <text style="stroke:none;fill:black;font-family:-apple-system,&quot;SF Pro Display&quot;,&quot;SF Pro Text&quot;,Helvetica,sans-serif;" transform="matrix(1 0 0 1 1289 1971)">Symbols should be outlined when exporting to ensure the</text>
  <text style="stroke:none;fill:black;font-family:-apple-system,&quot;SF Pro Display&quot;,&quot;SF Pro Text&quot;,Helvetica,sans-serif;" transform="matrix(1 0 0 1 1289 1989)">design is preserved when submitting to Xcode.</text>
  <text id="template-version" style="stroke:none;fill:black;font-family:-apple-system,&quot;SF Pro Display&quot;,&quot;SF Pro Text&quot;,Helvetica,sans-serif;text-anchor:end;" transform="matrix(1 0 0 1 3036 1933)">Template v.2.0</text>
  <text style="stroke:none;fill:black;font-family:-apple-system,&quot;SF Pro Display&quot;,&quot;SF Pro Text&quot;,Helvetica,sans-serif;text-anchor:end;" transform="matrix(1 0 0 1 3036 1951)">Requires Xcode 12 or greater</text>
  <text style="stroke:none;fill:black;font-family:-apple-system,&quot;SF Pro Display&quot;,&quot;SF Pro Text&quot;,Helvetica,sans-serif;text-anchor:end;" transform="matrix(1 0 0 1 3036 1969)">Generated from server.rack</text>
  <text style="stroke:none;fill:black;font-family:-apple-system,&quot;SF Pro Display&quot;,&quot;SF Pro Text&quot;,Helvetica,sans-serif;text-anchor:end;" transform="matrix(1 0 0 1 3036 1987)">Typeset at 100 points</text>
  <text style="stroke:none;fill:black;font-family:-apple-system,&quot;SF Pro Display&quot;,&quot;SF Pro Text&quot;,Helvetica,sans-serif;" transform="matrix(1 0 0 1 263 726)">Small</text>
  <text style="stroke:none;fill:black;font-family:-apple-system,&quot;SF Pro Display&quot;,&quot;SF Pro Text&quot;,Helvetica,sans-serif;" transform="matrix(1 0 0 1 263 1156)">Medium</text>
  <text style="stroke:none;fill:black;font-family:-apple-system,&quot;SF Pro Display&quot;,&quot;SF Pro Text&quot;,Helvetica,sans-serif;" transform="matrix(1 0 0 1 263 1586)">Large</text>
 </g>
 <g id="Guides">
  <g id="H-reference" style="fill:#27AAE1;stroke:none;" transform="matrix(1 0 0 1 339 696)">
   <path d="M 0.976562 0 L 3.66211 0 L 12.9883 -24.4629 L 45.7031 -24.4629 L 55.0781 0 L 57.7148 0 L 30.6152 -70.459 L 28.125 -70.459 Z M 29.2969 -67.1387 L 29.3945 -67.1387 L 44.873 -26.709 L 13.8672 -26.709 Z"/>
  </g>
  <line id="Baseline-S" style="fill:none;stroke:#27AAE1;opacity:1;stroke-width:0.5;" x1="263" x2="3036" y1="696" y2="696"/>
  <line id="Capline-S" style="fill:none;stroke:#27AAE1;opacity:1;stroke-width:0.5;" x1="263" x2="3036" y1="625.541" y2="625.541"/>
  <g id="H-reference" style="fill:#27AAE1;stroke:none;" transform="matrix(1 0 0 1 339 1126)">
   <path d="M 0.976562 0 L 3.66211 0 L 12.9883 -24.4629 L 45.7031 -24.4629 L 55.0781 0 L 57.7148 0 L 30.6152 -70.459 L 28.125 -70.459 Z M 29.2969 -67.1387 L 29.3945 -67.1387 L 44.873 -26.709 L 13.8672 -26.709 Z"/>
  </g>
  <line id="Baseline-M" style="fill:none;stroke:#27AAE1;opacity:1;stroke-width:0.5;" x1="263" x2="3036" y1="1126" y2="1126"/>
  <line id="Capline-M" style="fill:none;stroke:#27AAE1;opacity:1;stroke-width:0.5;" x1="263" x2="3036" y1="1055.54" y2="1055.54"/>
  <g id="H-reference" style="fill:#27AAE1;stroke:none;" transform="matrix(1 0 0 1 339 1556)">
   <path d="M 0.976562 0 L 3.66211 0 L 12.9883 -24.4629 L 45.7031 -24.4629 L 55.0781 0 L 57.7148 0 L 30.6152 -70.459 L 28.125 -70.459 Z M 29.2969 -67.1387 L 29.3945 -67.1387 L 44.873 -26.709 L 13.8672 -26.709 Z"/>
  </g>
  <line id="Baseline-L" style="fill:none;stroke:#27AAE1;opacity:1;stroke-width:0.5;" x1="263" x2="3036" y1="1556" y2="1556"/>
  <line id="Capline-L" style="fill:none;stroke:#27AAE1;opacity:1;stroke-width:0.5;" x1="263" x2="3036" y1="1485.54" y2="1485.54"/>
  <line id="left-margin" style="fill:none;stroke:#00AEEF;stroke-width:0.5;opacity:1.0;" x1="1379.82" x2="1379.82" y1="1030.79" y2="1150.12"/>
  <line id="right-margin" style="fill:none;stroke:#00AEEF;stroke-width:0.5;opacity:1.0;" x1="1519.86" x2="1519.86" y1="1030.79" y2="1150.12"/>
 </g>
 <g id="Symbols">
  <g id="Black-L" transform="matrix(1 0 0 1 2841.51 1556)">
   <path d="M 39.9902 26.5137 L 143.799 26.5137 C 159.082 26.5137 167.725 17.8711 167.725 2.68555 L 167.725 -73.0957 C 167.725 -88.2812 159.082 -96.875 143.799 -96.875 L 39.9902 -96.875 C 24.7559 -96.875 16.0645 -88.2812 16.0645 -73.0957 L 16.0645 2.68555 C 16.0645 17.8711 24.7559 26.5137 39.9902 26.5137 Z M 36.3281 -70.2148 C 36.3281 -74.7559 38.4766 -76.6602 42.6758 -76.6602 L 141.064 -76.6602 C 145.312 -76.6602 147.461 -74.7559 147.461 -70.2148 L 147.461 -58.4473 L 36.3281 -58.4473 Z M 130.225 -60.791 C 133.887 -60.8398 136.963 -63.8672 136.963 -67.5781 C 136.963 -71.3379 133.887 -74.4141 130.225 -74.4141 C 126.514 -74.4141 123.34 -71.1914 123.34 -67.5781 C 123.34 -63.8672 126.514 -60.6934 130.225 -60.791 Z M 36.3281 -26.0742 L 36.3281 -44.2871 L 147.461 -44.2871 L 147.461 -26.0742 Z M 130.225 -28.3691 C 133.887 -28.4668 136.963 -31.4941 136.963 -35.1562 C 136.963 -38.9648 133.887 -42.041 130.225 -42.041 C 126.514 -42.041 123.34 -38.8184 123.34 -35.1562 C 123.34 -31.4941 126.514 -28.3203 130.225 -28.3691 Z M 42.6758 6.29883 C 38.4766 6.29883 36.3281 4.39453 36.3281 -0.146484 L 36.3281 -11.8652 L 147.461 -11.8652 L 147.461 -0.146484 C 147.461 4.39453 145.312 6.29883 141.064 6.29883 Z M 130.225 3.95508 C 133.887 3.85742 136.963 0.830078 136.963 -2.83203 C 136.963 -6.5918 133.887 -9.7168 130.225 -9.7168 C 126.514 -9.7168 123.34 -6.49414 123.34 -2.83203 C 123.34 0.830078 126.514 4.00391 130.225 3.95508 Z"/>
  </g>
  <g id="Heavy-L" transform="matrix(1 0 0 1 2545.23 1556)">
   <path d="M 38.8184 25.4883 L 144.092 25.4883 C 158.74 25.4883 166.846 17.4316 166.846 2.88086 L 166.846 -73.2422 C 166.846 -87.793 158.74 -95.8496 144.092 -95.8496 L 38.8184 -95.8496 C 24.2188 -95.8496 16.0645 -87.793 16.0645 -73.2422 L 16.0645 2.88086 C 16.0645 17.4316 24.2188 25.4883 38.8184 25.4883 Z M 33.5938 -70.9473 C 33.5938 -76.0742 36.084 -78.3691 40.918 -78.3691 L 141.943 -78.3691 C 146.777 -78.3691 149.316 -76.0742 149.316 -70.9473 L 149.316 -58.0566 L 33.5938 -58.0566 Z M 130.859 -61.1816 C 134.668 -61.2305 137.842 -64.3555 137.842 -68.1641 C 137.842 -72.0703 134.668 -75.293 130.859 -75.293 C 127.051 -75.293 123.779 -71.9727 123.779 -68.1641 C 123.779 -64.3555 127.051 -61.084 130.859 -61.1816 Z M 33.5938 -25 L 33.5938 -45.3125 L 149.316 -45.3125 L 149.316 -25 Z M 130.859 -28.1738 C 134.668 -28.2715 137.842 -31.3965 137.842 -35.2051 C 137.842 -39.1113 134.668 -42.2852 130.859 -42.2852 C 127.051 -42.2852 123.779 -39.0137 123.779 -35.2051 C 123.779 -31.3965 127.051 -28.125 130.859 -28.1738 Z M 40.918 8.00781 C 36.084 8.00781 33.5938 5.71289 33.5938 0.585938 L 33.5938 -12.2559 L 149.316 -12.2559 L 149.316 0.585938 C 149.316 5.71289 146.777 8.00781 141.943 8.00781 Z M 130.859 4.73633 C 134.668 4.6875 137.842 1.5625 137.842 -2.24609 C 137.842 -6.15234 134.668 -9.375 130.859 -9.375 C 127.051 -9.375 123.779 -6.05469 123.779 -2.24609 C 123.779 1.5625 127.051 4.83398 130.859 4.73633 Z"/>
  </g>
  <g id="Bold-L" transform="matrix(1 0 0 1 2249.01 1556)">
   <path d="M 37.5 24.3652 L 144.385 24.3652 C 158.35 24.3652 165.869 16.8945 165.869 3.07617 L 165.869 -73.3887 C 165.869 -87.207 158.35 -94.7266 144.385 -94.7266 L 37.5 -94.7266 C 23.6328 -94.7266 16.0645 -87.2559 16.0645 -73.3887 L 16.0645 3.07617 C 16.0645 16.8945 23.6328 24.3652 37.5 24.3652 Z M 30.5176 -71.7285 C 30.5176 -77.5391 33.4473 -80.2734 38.9648 -80.2734 L 142.969 -80.2734 C 148.389 -80.2734 151.416 -77.5391 151.416 -71.7285 L 151.416 -57.666 L 30.5176 -57.666 Z M 131.543 -61.6211 C 135.498 -61.6699 138.818 -64.9414 138.818 -68.8965 C 138.818 -72.9004 135.498 -76.2207 131.543 -76.2207 C 127.637 -76.2207 124.219 -72.8516 124.219 -68.8965 C 124.219 -64.9414 127.637 -61.5234 131.543 -61.6211 Z M 30.5176 -23.8281 L 30.5176 -46.4844 L 151.416 -46.4844 L 151.416 -23.8281 Z M 131.543 -27.9297 C 135.498 -28.0273 138.818 -31.2988 138.818 -35.2539 C 138.818 -39.2578 135.498 -42.5781 131.543 -42.5781 C 127.637 -42.5781 124.219 -39.209 124.219 -35.2539 C 124.219 -31.2988 127.637 -27.8809 131.543 -27.9297 Z M 38.9648 9.91211 C 33.4473 9.91211 30.5176 7.17773 30.5176 1.41602 L 30.5176 -12.6953 L 151.416 -12.6953 L 151.416 1.41602 C 151.416 7.17773 148.389 9.91211 142.969 9.91211 Z M 131.543 5.66406 C 135.498 5.56641 138.818 2.34375 138.818 -1.61133 C 138.818 -5.61523 135.498 -8.98438 131.543 -8.98438 C 127.637 -8.98438 124.219 -5.56641 124.219 -1.61133 C 124.219 2.34375 127.637 5.76172 131.543 5.66406 Z"/>
  </g>
  <g id="Semibold-L" transform="matrix(1 0 0 1 1952.64 1556)">
   <path d="M 36.6211 23.584 L 144.629 23.584 C 158.057 23.584 165.186 16.5039 165.186 3.17383 L 165.186 -73.5352 C 165.186 -86.8164 158.057 -93.9453 144.629 -93.9453 L 36.6211 -93.9453 C 23.1934 -93.9453 16.0645 -86.8652 16.0645 -73.5352 L 16.0645 3.17383 C 16.0645 16.5527 23.1934 23.584 36.6211 23.584 Z M 28.418 -72.3145 C 28.418 -78.5156 31.6406 -81.5918 37.5977 -81.5918 L 143.652 -81.5918 C 149.512 -81.5918 152.832 -78.5156 152.832 -72.3145 L 152.832 -57.373 L 28.418 -57.373 Z M 132.031 -61.9141 C 136.084 -61.9629 139.453 -65.332 139.453 -69.3359 C 139.453 -73.4863 136.084 -76.9043 132.031 -76.9043 C 128.027 -76.9043 124.561 -73.4375 124.561 -69.3359 C 124.561 -65.332 128.027 -61.8164 132.031 -61.9141 Z M 28.418 -23.0469 L 28.418 -47.2656 L 152.832 -47.2656 L 152.832 -23.0469 Z M 132.031 -27.7832 C 136.084 -27.8809 139.453 -31.2012 139.453 -35.2539 C 139.453 -39.3555 136.084 -42.7734 132.031 -42.7734 C 128.027 -42.7734 124.561 -39.3066 124.561 -35.2539 C 124.561 -31.2012 128.027 -27.7344 132.031 -27.7832 Z M 37.5977 11.2793 C 31.6406 11.2793 28.418 8.20312 28.418 1.95312 L 28.418 -12.9883 L 152.832 -12.9883 L 152.832 1.95312 C 152.832 8.20312 149.512 11.2793 143.652 11.2793 Z M 132.031 6.29883 C 136.084 6.20117 139.453 2.88086 139.453 -1.17188 C 139.453 -5.27344 136.084 -8.69141 132.031 -8.69141 C 128.027 -8.69141 124.561 -5.22461 124.561 -1.17188 C 124.561 2.88086 128.027 6.39648 132.031 6.29883 Z"/>
  </g>
  <g id="Medium-L" transform="matrix(1 0 0 1 1656.2 1556)">
   <path d="M 35.9375 22.998 L 144.775 22.998 C 157.861 22.998 164.648 16.2109 164.648 3.27148 L 164.648 -73.6328 C 164.648 -86.5234 157.861 -93.3105 144.775 -93.3105 L 35.9375 -93.3105 C 22.9004 -93.3105 16.0645 -86.5723 16.0645 -73.6328 L 16.0645 3.27148 C 16.0645 16.2598 22.9004 22.998 35.9375 22.998 Z M 26.8066 -72.7051 C 26.8066 -79.2969 30.2246 -82.6172 36.5723 -82.6172 L 144.141 -82.6172 C 150.391 -82.6172 153.906 -79.2969 153.906 -72.7051 L 153.906 -57.1289 L 26.8066 -57.1289 Z M 132.422 -62.1094 C 136.523 -62.207 139.99 -65.625 139.99 -69.7266 C 139.99 -73.877 136.523 -77.3926 132.422 -77.3926 C 128.32 -77.3926 124.805 -73.877 124.805 -69.7266 C 124.805 -65.625 128.32 -62.0605 132.422 -62.1094 Z M 26.8066 -22.4121 L 26.8066 -47.9004 L 153.906 -47.9004 L 153.906 -22.4121 Z M 132.422 -27.6855 C 136.523 -27.7344 139.99 -31.1523 139.99 -35.2539 C 139.99 -39.4531 136.523 -42.9688 132.422 -42.9688 C 128.32 -42.9688 124.805 -39.4531 124.805 -35.2539 C 124.805 -31.1523 128.32 -27.5879 132.422 -27.6855 Z M 36.5723 12.2559 C 30.2246 12.2559 26.8066 8.98438 26.8066 2.39258 L 26.8066 -13.1836 L 153.906 -13.1836 L 153.906 2.39258 C 153.906 8.98438 150.391 12.2559 144.141 12.2559 Z M 132.422 6.78711 C 136.523 6.68945 139.99 3.27148 139.99 -0.830078 C 139.99 -5.0293 136.523 -8.49609 132.422 -8.49609 C 128.32 -8.49609 124.805 -4.98047 124.805 -0.830078 C 124.805 3.27148 128.32 6.83594 132.422 6.78711 Z"/>
  </g>
  <g id="Regular-L" transform="matrix(1 0 0 1 1359.81 1556)">
   <path d="M 35.0586 22.2168 L 144.971 22.2168 C 157.617 22.2168 164.014 15.8691 164.014 3.41797 L 164.014 -73.7305 C 164.014 -86.1816 157.617 -92.5293 144.971 -92.5293 L 35.0586 -92.5293 C 22.4609 -92.5293 16.0645 -86.2305 16.0645 -73.7305 L 16.0645 3.41797 C 16.0645 15.918 22.4609 22.2168 35.0586 22.2168 Z M 24.707 -73.291 C 24.707 -80.2734 28.418 -83.8867 35.2539 -83.8867 L 144.824 -83.8867 C 151.514 -83.8867 155.322 -80.2734 155.322 -73.291 L 155.322 -56.8359 L 24.707 -56.8359 Z M 132.91 -62.4023 C 137.109 -62.5 140.625 -66.0156 140.625 -70.166 C 140.625 -74.4629 137.109 -78.0273 132.91 -78.0273 C 128.711 -78.0273 125.098 -74.4629 125.098 -70.166 C 125.098 -66.0156 128.711 -62.3535 132.91 -62.4023 Z M 24.707 -21.6309 L 24.707 -48.6816 L 155.322 -48.6816 L 155.322 -21.6309 Z M 132.91 -27.4902 C 137.109 -27.5879 140.625 -31.1035 140.625 -35.3027 C 140.625 -39.5508 137.109 -43.1641 132.91 -43.1641 C 128.711 -43.1641 125.098 -39.5508 125.098 -35.3027 C 125.098 -31.1035 128.711 -27.4414 132.91 -27.4902 Z M 35.2539 13.5742 C 28.418 13.5742 24.707 9.96094 24.707 2.97852 L 24.707 -13.4766 L 155.322 -13.4766 L 155.322 2.97852 C 155.322 9.96094 151.514 13.5742 144.824 13.5742 Z M 132.91 7.37305 C 137.109 7.32422 140.625 3.80859 140.625 -0.390625 C 140.625 -4.63867 137.109 -8.25195 132.91 -8.25195 C 128.711 -8.25195 125.098 -4.63867 125.098 -0.390625 C 125.098 3.80859 128.711 7.4707 132.91 7.37305 Z"/>
  </g>
  <g id="Light-L" transform="matrix(1 0 0 1 1063.56 1556)">
   <path d="M 34.0332 21.4355 L 145.117 21.4355 C 157.031 21.4355 163.086 15.2344 163.086 3.56445 L 163.086 -73.8281 C 163.086 -85.5469 157.031 -91.6992 145.117 -91.6992 L 34.0332 -91.6992 C 22.168 -91.6992 16.0645 -85.6445 16.0645 -73.8281 L 16.0645 3.56445 C 16.0645 15.3809 22.168 21.4355 34.0332 21.4355 Z M 22.7051 -73.4863 C 22.7051 -81.1523 26.709 -85.0586 34.1797 -85.0586 L 144.971 -85.0586 C 152.295 -85.0586 156.494 -81.1523 156.494 -73.4863 L 156.494 -56.0059 L 22.7051 -56.0059 Z M 133.643 -62.7441 C 137.646 -62.793 141.016 -66.1621 141.016 -70.166 C 141.016 -74.2188 137.646 -77.6367 133.643 -77.6367 C 129.639 -77.6367 126.172 -74.2188 126.172 -70.166 C 126.172 -66.1621 129.639 -62.6465 133.643 -62.7441 Z M 22.7051 -20.6055 L 22.7051 -49.707 L 156.494 -49.707 L 156.494 -20.6055 Z M 133.643 -27.832 C 137.646 -27.9297 141.016 -31.25 141.016 -35.2539 C 141.016 -39.3555 137.646 -42.7734 133.643 -42.7734 C 129.639 -42.7734 126.172 -39.3555 126.172 -35.2539 C 126.172 -31.25 129.639 -27.7344 133.643 -27.832 Z M 34.1797 14.7949 C 26.709 14.7949 22.7051 10.8398 22.7051 3.22266 L 22.7051 -14.3066 L 156.494 -14.3066 L 156.494 3.22266 C 156.494 10.8398 152.295 14.7949 144.971 14.7949 Z M 133.643 7.08008 C 137.646 6.98242 141.016 3.66211 141.016 -0.341797 C 141.016 -4.44336 137.646 -7.86133 133.643 -7.86133 C 129.639 -7.86133 126.172 -4.44336 126.172 -0.341797 C 126.172 3.66211 129.639 7.17773 133.643 7.08008 Z"/>
  </g>
  <g id="Thin-L" transform="matrix(1 0 0 1 767.433 1556)">
   <path d="M 32.666 20.3613 L 145.312 20.3613 C 156.201 20.3613 161.914 14.4531 161.914 3.75977 L 161.914 -73.9746 C 161.914 -84.7168 156.201 -90.5762 145.312 -90.5762 L 32.666 -90.5762 C 21.7773 -90.5762 16.0645 -84.8633 16.0645 -73.9746 L 16.0645 3.75977 C 16.0645 14.6484 21.7773 20.3613 32.666 20.3613 Z M 19.9707 -73.7793 C 19.9707 -82.2754 24.4141 -86.6699 32.8125 -86.6699 L 145.166 -86.6699 C 153.32 -86.6699 158.008 -82.2754 158.008 -73.7793 L 158.008 -54.8828 L 19.9707 -54.8828 Z M 134.619 -63.1348 C 138.379 -63.2324 141.553 -66.3574 141.553 -70.1172 C 141.553 -73.9258 138.379 -77.1484 134.619 -77.1484 C 130.859 -77.1484 127.588 -73.9258 127.588 -70.1172 C 127.588 -66.3574 130.859 -63.0859 134.619 -63.1348 Z M 19.9707 -19.2383 L 19.9707 -51.0254 L 158.008 -51.0254 L 158.008 -19.2383 Z M 134.619 -28.2227 C 138.379 -28.3203 141.553 -31.4453 141.553 -35.2051 C 141.553 -39.0625 138.379 -42.2363 134.619 -42.2363 C 130.859 -42.2363 127.588 -39.0625 127.588 -35.2051 C 127.588 -31.4453 130.859 -28.1738 134.619 -28.2227 Z M 32.8125 16.4062 C 24.4141 16.4062 19.9707 12.0117 19.9707 3.56445 L 19.9707 -15.3809 L 158.008 -15.3809 L 158.008 3.56445 C 158.008 12.0117 153.32 16.4062 145.166 16.4062 Z M 134.619 6.64062 C 138.379 6.5918 141.553 3.4668 141.553 -0.292969 C 141.553 -4.15039 138.379 -7.32422 134.619 -7.32422 C 130.859 -7.32422 127.588 -4.15039 127.588 -0.292969 C 127.588 3.4668 130.859 6.73828 134.619 6.64062 Z"/>
  </g>
  <g id="Ultralight-L" transform="matrix(1 0 0 1 471.015 1556)">
   <path d="M 31.9824 19.7754 L 145.41 19.7754 C 155.811 19.7754 161.328 14.0625 161.328 3.85742 L 161.328 -74.0723 C 161.328 -84.2773 155.811 -89.9902 145.41 -89.9902 L 31.9824 -89.9902 C 21.582 -89.9902 16.0645 -84.4727 16.0645 -74.0723 L 16.0645 3.85742 C 16.0645 14.2578 21.582 19.7754 31.9824 19.7754 Z M 18.6035 -73.9258 C 18.6035 -82.8125 23.1934 -87.4512 32.1289 -87.4512 L 145.264 -87.4512 C 153.857 -87.4512 158.789 -82.8125 158.789 -73.9258 L 158.789 -54.2969 L 18.6035 -54.2969 Z M 135.107 -63.3789 C 138.77 -63.4277 141.846 -66.4551 141.846 -70.0684 C 141.846 -73.7793 138.77 -76.9043 135.107 -76.9043 C 131.494 -76.9043 128.32 -73.7793 128.32 -70.0684 C 128.32 -66.4551 131.494 -63.2812 135.107 -63.3789 Z M 18.6035 -18.5059 L 18.6035 -51.6602 L 158.789 -51.6602 L 158.789 -18.5059 Z M 135.107 -28.4668 C 138.77 -28.5156 141.846 -31.543 141.846 -35.1562 C 141.846 -38.916 138.77 -41.9922 135.107 -41.9922 C 131.494 -41.9922 128.32 -38.916 128.32 -35.1562 C 128.32 -31.543 131.494 -28.3691 135.107 -28.4668 Z M 32.1289 17.2363 C 23.1934 17.2363 18.6035 12.6465 18.6035 3.75977 L 18.6035 -15.918 L 158.789 -15.918 L 158.789 3.75977 C 158.789 12.6465 153.857 17.2363 145.264 17.2363 Z M 135.107 6.44531 C 138.77 6.34766 141.846 3.36914 141.846 -0.292969 C 141.846 -4.00391 138.77 -7.08008 135.107 -7.08008 C 131.494 -7.08008 128.32 -4.00391 128.32 -0.292969 C 128.32 3.36914 131.494 6.54297 135.107 6.44531 Z"/>
  </g>
  <g id="Black-M" transform="matrix(1 0 0 1 2861.84 1126)">
   <path d="M 31.9824 13.5742 L 111.133 13.5742 C 123.389 13.5742 130.664 6.29883 130.664 -5.95703 L 130.664 -64.4043 C 130.664 -76.6602 123.389 -83.9355 111.133 -83.9355 L 31.9824 -83.9355 C 19.7266 -83.9355 12.4512 -76.6602 12.4512 -64.4043 L 12.4512 -5.95703 C 12.4512 6.29883 19.7266 13.5742 31.9824 13.5742 Z M 30.7617 -61.4746 C 30.7617 -64.5508 32.0801 -65.6738 34.9121 -65.6738 L 108.203 -65.6738 C 111.035 -65.6738 112.402 -64.5508 112.402 -61.4746 L 112.402 -53.2715 L 30.7617 -53.2715 Z M 100.439 -54.6875 C 103.027 -54.7363 105.225 -56.8359 105.225 -59.4238 C 105.225 -62.1094 103.027 -64.2578 100.439 -64.2578 C 97.8516 -64.2578 95.6055 -61.9629 95.6055 -59.4238 C 95.6055 -56.8359 97.8516 -54.6387 100.439 -54.6875 Z M 30.7617 -28.9551 L 30.7617 -41.3574 L 112.402 -41.3574 L 112.402 -28.9551 Z M 100.439 -30.3711 C 103.027 -30.4199 105.225 -32.5195 105.225 -35.1074 C 105.225 -37.793 103.027 -39.9414 100.439 -39.9414 C 97.8516 -39.9414 95.6055 -37.6465 95.6055 -35.1074 C 95.6055 -32.5195 97.8516 -30.3223 100.439 -30.3711 Z M 34.9121 -4.73633 C 32.0801 -4.73633 30.7617 -5.81055 30.7617 -8.88672 L 30.7617 -17.041 L 112.402 -17.041 L 112.402 -8.88672 C 112.402 -5.81055 111.035 -4.73633 108.203 -4.73633 Z M 100.439 -6.15234 C 103.027 -6.20117 105.225 -8.30078 105.225 -10.8887 C 105.225 -13.5742 103.027 -15.7227 100.439 -15.7227 C 97.8516 -15.7227 95.6055 -13.4277 95.6055 -10.8887 C 95.6055 -8.30078 97.8516 -6.05469 100.439 -6.15234 Z"/>
  </g>
  <g id="Heavy-M" transform="matrix(1 0 0 1 2565.5 1126)">
   <path d="M 31.0059 12.6465 L 111.426 12.6465 C 123.193 12.6465 129.932 5.9082 129.932 -5.81055 L 129.932 -64.5508 C 129.932 -76.2695 123.193 -83.0566 111.426 -83.0566 L 31.0059 -83.0566 C 19.2383 -83.0566 12.4512 -76.3184 12.4512 -64.5508 L 12.4512 -5.81055 C 12.4512 5.9082 19.2383 12.6465 31.0059 12.6465 Z M 28.2715 -62.207 C 28.2715 -65.7715 29.9316 -67.2363 33.252 -67.2363 L 109.131 -67.2363 C 112.451 -67.2363 114.111 -65.7715 114.111 -62.207 L 114.111 -53.0762 L 28.2715 -53.0762 Z M 100.928 -55.0293 C 103.711 -55.0781 106.055 -57.3242 106.055 -60.1074 C 106.055 -62.9395 103.711 -65.2832 100.928 -65.2832 C 98.1934 -65.2832 95.8008 -62.8418 95.8008 -60.1074 C 95.8008 -57.3242 98.1934 -54.9316 100.928 -55.0293 Z M 28.2715 -28.125 L 28.2715 -42.2363 L 114.111 -42.2363 L 114.111 -28.125 Z M 100.928 -30.0781 C 103.711 -30.127 106.055 -32.373 106.055 -35.1562 C 106.055 -37.9883 103.711 -40.332 100.928 -40.332 C 98.1934 -40.332 95.8008 -37.8906 95.8008 -35.1562 C 95.8008 -32.373 98.1934 -29.9805 100.928 -30.0781 Z M 33.252 -3.17383 C 29.9316 -3.17383 28.2715 -4.63867 28.2715 -8.1543 L 28.2715 -17.2363 L 114.111 -17.2363 L 114.111 -8.1543 C 114.111 -4.63867 112.451 -3.17383 109.131 -3.17383 Z M 100.928 -5.17578 C 103.711 -5.22461 106.055 -7.4707 106.055 -10.2539 C 106.055 -13.0859 103.711 -15.4297 100.928 -15.4297 C 98.1934 -15.4297 95.8008 -12.9883 95.8008 -10.2539 C 95.8008 -7.4707 98.1934 -5.07812 100.928 -5.17578 Z"/>
  </g>
  <g id="Bold-M" transform="matrix(1 0 0 1 2269.18 1126)">
   <path d="M 29.8828 11.6699 L 111.719 11.6699 C 122.949 11.6699 129.15 5.46875 129.15 -5.66406 L 129.15 -64.6973 C 129.15 -75.8789 122.949 -82.0312 111.719 -82.0312 L 29.8828 -82.0312 C 18.6523 -82.0312 12.4512 -75.8789 12.4512 -64.6973 L 12.4512 -5.66406 C 12.4512 5.51758 18.6523 11.6699 29.8828 11.6699 Z M 25.5371 -63.0371 C 25.5371 -67.1387 27.5391 -68.9453 31.3965 -68.9453 L 110.205 -68.9453 C 114.014 -68.9453 116.064 -67.1387 116.064 -63.0371 L 116.064 -52.8809 L 25.5371 -52.8809 Z M 101.514 -55.4199 C 104.492 -55.4688 106.982 -57.9102 106.982 -60.8887 C 106.982 -63.916 104.492 -66.4551 101.514 -66.4551 C 98.5352 -66.4551 95.9961 -63.8672 95.9961 -60.8887 C 95.9961 -57.9102 98.5352 -55.3223 101.514 -55.4199 Z M 25.5371 -27.1484 L 25.5371 -43.2129 L 116.064 -43.2129 L 116.064 -27.1484 Z M 101.514 -29.7363 C 104.492 -29.7852 106.982 -32.2266 106.982 -35.2051 C 106.982 -38.2324 104.492 -40.7715 101.514 -40.7715 C 98.5352 -40.7715 95.9961 -38.1836 95.9961 -35.2051 C 95.9961 -32.2266 98.5352 -29.6387 101.514 -29.7363 Z M 31.3965 -1.41602 C 27.5391 -1.41602 25.5371 -3.27148 25.5371 -7.32422 L 25.5371 -17.4805 L 116.064 -17.4805 L 116.064 -7.32422 C 116.064 -3.27148 114.014 -1.41602 110.205 -1.41602 Z M 101.514 -4.10156 C 104.492 -4.15039 106.982 -6.5918 106.982 -9.57031 C 106.982 -12.5977 104.492 -15.1367 101.514 -15.1367 C 98.5352 -15.1367 95.9961 -12.5488 95.9961 -9.57031 C 95.9961 -6.5918 98.5352 -4.00391 101.514 -4.10156 Z"/>
  </g>
  <g id="Semibold-M" transform="matrix(1 0 0 1 1972.76 1126)">
   <path d="M 29.1016 10.9863 L 111.914 10.9863 C 122.803 10.9863 128.564 5.17578 128.564 -5.56641 L 128.564 -64.8438 C 128.564 -75.5859 122.803 -81.3477 111.914 -81.3477 L 29.1016 -81.3477 C 18.2617 -81.3477 12.4512 -75.5859 12.4512 -64.8438 L 12.4512 -5.56641 C 12.4512 5.22461 18.2617 10.9863 29.1016 10.9863 Z M 23.6328 -63.623 C 23.6328 -68.0664 25.8789 -70.166 30.127 -70.166 L 110.889 -70.166 C 115.088 -70.166 117.383 -68.0664 117.383 -63.623 L 117.383 -52.7344 L 23.6328 -52.7344 Z M 101.904 -55.6641 C 105.029 -55.7129 107.617 -58.3008 107.617 -61.4258 C 107.617 -64.5996 105.029 -67.2363 101.904 -67.2363 C 98.7793 -67.2363 96.0938 -64.5508 96.0938 -61.4258 C 96.0938 -58.3008 98.7793 -55.6152 101.904 -55.6641 Z M 23.6328 -26.4648 L 23.6328 -43.8965 L 117.383 -43.8965 L 117.383 -26.4648 Z M 101.904 -29.4922 C 105.029 -29.541 107.617 -32.1289 107.617 -35.2539 C 107.617 -38.4277 105.029 -41.0645 101.904 -41.0645 C 98.7793 -41.0645 96.0938 -38.3789 96.0938 -35.2539 C 96.0938 -32.1289 98.7793 -29.4434 101.904 -29.4922 Z M 30.127 -0.195312 C 25.8789 -0.195312 23.6328 -2.34375 23.6328 -6.78711 L 23.6328 -17.627 L 117.383 -17.627 L 117.383 -6.78711 C 117.383 -2.34375 115.088 -0.195312 110.889 -0.195312 Z M 101.904 -3.32031 C 105.029 -3.36914 107.617 -5.95703 107.617 -9.08203 C 107.617 -12.2559 105.029 -14.8926 101.904 -14.8926 C 98.7793 -14.8926 96.0938 -12.207 96.0938 -9.08203 C 96.0938 -5.95703 98.7793 -3.27148 101.904 -3.32031 Z"/>
  </g>
  <g id="Medium-M" transform="matrix(1 0 0 1 1676.24 1126)">
   <path d="M 28.5156 10.4492 L 112.061 10.4492 C 122.656 10.4492 128.174 4.98047 128.174 -5.46875 L 128.174 -64.8926 C 128.174 -75.3418 122.656 -80.8105 112.061 -80.8105 L 28.5156 -80.8105 C 17.9688 -80.8105 12.4512 -75.3906 12.4512 -64.8926 L 12.4512 -5.46875 C 12.4512 4.98047 17.9688 10.4492 28.5156 10.4492 Z M 22.168 -64.0137 C 22.168 -68.75 24.6582 -71.0938 29.1504 -71.0938 L 111.426 -71.0938 C 115.918 -71.0938 118.408 -68.75 118.408 -64.0137 L 118.408 -52.5879 L 22.168 -52.5879 Z M 102.197 -55.8594 C 105.42 -55.9082 108.105 -58.5938 108.105 -61.8164 C 108.105 -65.0879 105.42 -67.8223 102.197 -67.8223 C 98.9746 -67.8223 96.1914 -65.0879 96.1914 -61.8164 C 96.1914 -58.5938 98.9746 -55.8105 102.197 -55.8594 Z M 22.168 -25.9277 L 22.168 -44.4336 L 118.408 -44.4336 L 118.408 -25.9277 Z M 102.197 -29.2969 C 105.42 -29.3457 108.105 -32.0312 108.105 -35.2539 C 108.105 -38.5254 105.42 -41.3086 102.197 -41.3086 C 98.9746 -41.3086 96.1914 -38.5254 96.1914 -35.2539 C 96.1914 -32.0312 98.9746 -29.248 102.197 -29.2969 Z M 29.1504 0.732422 C 24.6582 0.732422 22.168 -1.61133 22.168 -6.34766 L 22.168 -17.7734 L 118.408 -17.7734 L 118.408 -6.34766 C 118.408 -1.61133 115.918 0.732422 111.426 0.732422 Z M 102.197 -2.7832 C 105.42 -2.83203 108.105 -5.51758 108.105 -8.74023 C 108.105 -12.0117 105.42 -14.7461 102.197 -14.7461 C 98.9746 -14.7461 96.1914 -11.9629 96.1914 -8.74023 C 96.1914 -5.51758 98.9746 -2.68555 102.197 -2.7832 Z"/>
  </g>
  <g id="Regular-M" transform="matrix(1 0 0 1 1379.82 1126)">
   <path d="M 27.7832 9.76562 L 112.256 9.76562 C 122.51 9.76562 127.588 4.6875 127.588 -5.37109 L 127.588 -64.9902 C 127.588 -75.0488 122.51 -80.127 112.256 -80.127 L 27.7832 -80.127 C 17.5781 -80.127 12.4512 -75.0977 12.4512 -64.9902 L 12.4512 -5.37109 C 12.4512 4.73633 17.5781 9.76562 27.7832 9.76562 Z M 20.3125 -64.5996 C 20.3125 -69.6777 22.998 -72.2656 27.8809 -72.2656 L 112.158 -72.2656 C 116.992 -72.2656 119.727 -69.6777 119.727 -64.5996 L 119.727 -52.4414 L 20.3125 -52.4414 Z M 102.588 -56.1035 C 105.957 -56.2012 108.74 -58.9844 108.74 -62.3535 C 108.74 -65.7715 105.957 -68.6523 102.588 -68.6523 C 99.2188 -68.6523 96.3379 -65.7715 96.3379 -62.3535 C 96.3379 -58.9844 99.2188 -56.0547 102.588 -56.1035 Z M 20.3125 -25.293 L 20.3125 -45.0684 L 119.727 -45.0684 L 119.727 -25.293 Z M 102.588 -29.0527 C 105.957 -29.1504 108.74 -31.9336 108.74 -35.3027 C 108.74 -38.7207 105.957 -41.6016 102.588 -41.6016 C 99.2188 -41.6016 96.3379 -38.7207 96.3379 -35.3027 C 96.3379 -31.9336 99.2188 -29.0039 102.588 -29.0527 Z M 27.8809 1.9043 C 22.998 1.9043 20.3125 -0.683594 20.3125 -5.76172 L 20.3125 -17.9199 L 119.727 -17.9199 L 119.727 -5.76172 C 119.727 -0.683594 116.992 1.9043 112.158 1.9043 Z M 102.588 -2.00195 C 105.957 -2.09961 108.74 -4.88281 108.74 -8.25195 C 108.74 -11.6699 105.957 -14.5508 102.588 -14.5508 C 99.2188 -14.5508 96.3379 -11.6699 96.3379 -8.25195 C 96.3379 -4.88281 99.2188 -1.95312 102.588 -2.00195 Z"/>
  </g>
  <g id="Light-M" transform="matrix(1 0 0 1 1083.5 1126)">
   <path d="M 26.8555 9.0332 L 112.402 9.0332 C 121.973 9.0332 126.807 4.15039 126.807 -5.22461 L 126.807 -65.0879 C 126.807 -74.5117 121.973 -79.3945 112.402 -79.3945 L 26.8555 -79.3945 C 17.334 -79.3945 12.4512 -74.5605 12.4512 -65.0879 L 12.4512 -5.22461 C 12.4512 4.19922 17.334 9.0332 26.8555 9.0332 Z M 18.5059 -64.7949 C 18.5059 -70.4102 21.4844 -73.3398 26.9531 -73.3398 L 112.305 -73.3398 C 117.676 -73.3398 120.752 -70.4102 120.752 -64.7949 L 120.752 -51.709 L 18.5059 -51.709 Z M 103.223 -56.3965 C 106.445 -56.4453 109.131 -59.1309 109.131 -62.3047 C 109.131 -65.5762 106.445 -68.2617 103.223 -68.2617 C 100.049 -68.2617 97.3145 -65.5762 97.3145 -62.3047 C 97.3145 -59.1309 100.049 -56.3477 103.223 -56.3965 Z M 18.5059 -24.3652 L 18.5059 -45.9961 L 120.752 -45.9961 L 120.752 -24.3652 Z M 103.223 -29.3457 C 106.445 -29.3945 109.131 -32.0801 109.131 -35.2539 C 109.131 -38.5254 106.445 -41.2109 103.223 -41.2109 C 100.049 -41.2109 97.3145 -38.5254 97.3145 -35.2539 C 97.3145 -32.0801 100.049 -29.2969 103.223 -29.3457 Z M 26.9531 2.97852 C 21.4844 2.97852 18.5059 0.0976562 18.5059 -5.56641 L 18.5059 -18.6523 L 120.752 -18.6523 L 120.752 -5.56641 C 120.752 0.0976562 117.676 2.97852 112.305 2.97852 Z M 103.223 -2.29492 C 106.445 -2.34375 109.131 -5.0293 109.131 -8.20312 C 109.131 -11.4746 106.445 -14.209 103.223 -14.209 C 100.049 -14.209 97.3145 -11.4746 97.3145 -8.20312 C 97.3145 -5.0293 100.049 -2.24609 103.223 -2.29492 Z"/>
  </g>
  <g id="Thin-M" transform="matrix(1 0 0 1 787.33 1126)">
   <path d="M 25.6348 8.05664 L 112.598 8.05664 C 121.24 8.05664 125.732 3.4668 125.732 -5.0293 L 125.732 -65.2344 C 125.732 -73.7305 121.24 -78.3691 112.598 -78.3691 L 25.6348 -78.3691 C 16.9922 -78.3691 12.4512 -73.877 12.4512 -65.2344 L 12.4512 -5.0293 C 12.4512 3.56445 16.9922 8.05664 25.6348 8.05664 Z M 16.0645 -65.0391 C 16.0645 -71.4355 19.3848 -74.7559 25.7324 -74.7559 L 112.451 -74.7559 C 118.604 -74.7559 122.119 -71.4355 122.119 -65.0391 L 122.119 -50.6836 L 16.0645 -50.6836 Z M 104.102 -56.7871 C 107.08 -56.8359 109.619 -59.2773 109.619 -62.2559 C 109.619 -65.2832 107.08 -67.8223 104.102 -67.8223 C 101.172 -67.8223 98.584 -65.2832 98.584 -62.2559 C 98.584 -59.2773 101.172 -56.6895 104.102 -56.7871 Z M 16.0645 -23.1445 L 16.0645 -47.168 L 122.119 -47.168 L 122.119 -23.1445 Z M 104.102 -29.7363 C 107.08 -29.7852 109.619 -32.2266 109.619 -35.2051 C 109.619 -38.2324 107.08 -40.7715 104.102 -40.7715 C 101.172 -40.7715 98.584 -38.2324 98.584 -35.2051 C 98.584 -32.2266 101.172 -29.6875 104.102 -29.7363 Z M 25.7324 4.44336 C 19.3848 4.44336 16.0645 1.12305 16.0645 -5.22461 L 16.0645 -19.5801 L 122.119 -19.5801 L 122.119 -5.22461 C 122.119 1.12305 118.604 4.44336 112.451 4.44336 Z M 104.102 -2.68555 C 107.08 -2.73438 109.619 -5.22461 109.619 -8.1543 C 109.619 -11.1816 107.08 -13.7207 104.102 -13.7207 C 101.172 -13.7207 98.584 -11.1816 98.584 -8.1543 C 98.584 -5.22461 101.172 -2.63672 104.102 -2.68555 Z"/>
  </g>
  <g id="Ultralight-M" transform="matrix(1 0 0 1 490.888 1126)">
   <path d="M 25 7.56836 L 112.695 7.56836 C 120.85 7.56836 125.195 3.125 125.195 -4.98047 L 125.195 -65.2832 C 125.195 -73.3887 120.85 -77.832 112.695 -77.832 L 25 -77.832 C 16.7969 -77.832 12.4512 -73.4863 12.4512 -65.2832 L 12.4512 -4.98047 C 12.4512 3.22266 16.7969 7.56836 25 7.56836 Z M 14.8438 -65.1855 C 14.8438 -71.9727 18.3594 -75.4395 25.0977 -75.4395 L 112.549 -75.4395 C 119.043 -75.4395 122.803 -71.9727 122.803 -65.1855 L 122.803 -50.1953 L 14.8438 -50.1953 Z M 104.59 -56.9824 C 107.422 -57.0312 109.863 -59.375 109.863 -62.2559 C 109.863 -65.1855 107.422 -67.5781 104.59 -67.5781 C 101.709 -67.5781 99.2188 -65.1855 99.2188 -62.2559 C 99.2188 -59.375 101.709 -56.8848 104.59 -56.9824 Z M 14.8438 -22.5098 L 14.8438 -47.7539 L 122.803 -47.7539 L 122.803 -22.5098 Z M 104.59 -29.9316 C 107.422 -29.9805 109.863 -32.3242 109.863 -35.2051 C 109.863 -38.1348 107.422 -40.5273 104.59 -40.5273 C 101.709 -40.5273 99.2188 -38.1348 99.2188 -35.2051 C 99.2188 -32.3242 101.709 -29.834 104.59 -29.9316 Z M 25.0977 5.17578 C 18.3594 5.17578 14.8438 1.66016 14.8438 -5.07812 L 14.8438 -20.1172 L 122.803 -20.1172 L 122.803 -5.07812 C 122.803 1.66016 119.043 5.17578 112.549 5.17578 Z M 104.59 -2.88086 C 107.422 -2.92969 109.863 -5.27344 109.863 -8.1543 C 109.863 -11.084 107.422 -13.4766 104.59 -13.4766 C 101.709 -13.4766 99.2188 -11.084 99.2188 -8.1543 C 99.2188 -5.27344 101.709 -2.7832 104.59 -2.88086 Z"/>
  </g>
  <g id="Black-S" transform="matrix(1 0 0 1 2877.35 696)">
   <path d="M 25 2.92969 L 87.1094 2.92969 C 96.6797 2.92969 102.344 -2.73438 102.344 -12.3047 L 102.344 -58.1055 C 102.344 -67.6758 96.6797 -73.3398 87.1094 -73.3398 L 25 -73.3398 C 15.4297 -73.3398 9.76562 -67.6758 9.76562 -58.1055 L 9.76562 -12.3047 C 9.76562 -2.73438 15.4297 2.92969 25 2.92969 Z M 23.9258 -55.8594 C 23.9258 -58.3008 25 -59.1797 27.2461 -59.1797 L 84.8633 -59.1797 C 87.1094 -59.1797 88.1836 -58.3008 88.1836 -55.8594 L 88.1836 -49.3652 L 23.9258 -49.3652 Z M 78.7109 -50.4883 C 80.7617 -50.5371 82.4707 -52.1973 82.4707 -54.248 C 82.4707 -56.3477 80.7617 -58.0566 78.7109 -58.0566 C 76.6602 -58.0566 74.9023 -56.25 74.9023 -54.248 C 74.9023 -52.1973 76.6602 -50.4395 78.7109 -50.4883 Z M 23.9258 -30.2734 L 23.9258 -40.0879 L 88.1836 -40.0879 L 88.1836 -30.2734 Z M 78.7109 -31.3965 C 80.7617 -31.4453 82.4707 -33.1055 82.4707 -35.1562 C 82.4707 -37.2559 80.7617 -38.9648 78.7109 -38.9648 C 76.6602 -38.9648 74.9023 -37.1582 74.9023 -35.1562 C 74.9023 -33.1055 76.6602 -31.3477 78.7109 -31.3965 Z M 27.2461 -11.2305 C 25 -11.2305 23.9258 -12.1094 23.9258 -14.5508 L 23.9258 -20.9961 L 88.1836 -20.9961 L 88.1836 -14.5508 C 88.1836 -12.1094 87.1094 -11.2305 84.8633 -11.2305 Z M 78.7109 -12.3535 C 80.7617 -12.4023 82.4707 -14.0625 82.4707 -16.1133 C 82.4707 -18.2129 80.7617 -19.9219 78.7109 -19.9219 C 76.6602 -19.9219 74.9023 -18.1152 74.9023 -16.1133 C 74.9023 -14.0625 76.6602 -12.3047 78.7109 -12.3535 Z"/>
  </g>
  <g id="Heavy-S" transform="matrix(1 0 0 1 2580.88 696)">
   <path d="M 24.3652 2.34375 L 87.3047 2.34375 C 96.582 2.34375 101.855 -2.97852 101.855 -12.207 L 101.855 -58.2031 C 101.855 -67.4316 96.582 -72.7539 87.3047 -72.7539 L 24.3652 -72.7539 C 15.0879 -72.7539 9.76562 -67.4316 9.76562 -58.2031 L 9.76562 -12.207 C 9.76562 -2.97852 15.0879 2.34375 24.3652 2.34375 Z M 22.2656 -56.3965 C 22.2656 -59.1309 23.5352 -60.2539 26.0742 -60.2539 L 85.5469 -60.2539 C 88.0859 -60.2539 89.4043 -59.1309 89.4043 -56.3965 L 89.4043 -49.3164 L 22.2656 -49.3164 Z M 79.0039 -50.7324 C 81.25 -50.7812 83.0566 -52.5879 83.0566 -54.7852 C 83.0566 -57.0312 81.25 -58.8867 79.0039 -58.8867 C 76.8066 -58.8867 74.9023 -56.9336 74.9023 -54.7852 C 74.9023 -52.5879 76.8066 -50.6836 79.0039 -50.7324 Z M 22.2656 -29.6875 L 22.2656 -40.6738 L 89.4043 -40.6738 L 89.4043 -29.6875 Z M 79.0039 -31.1523 C 81.25 -31.2012 83.0566 -33.0078 83.0566 -35.2051 C 83.0566 -37.4512 81.25 -39.3066 79.0039 -39.3066 C 76.8066 -39.3066 74.9023 -37.3535 74.9023 -35.2051 C 74.9023 -33.0078 76.8066 -31.1035 79.0039 -31.1523 Z M 26.0742 -10.1562 C 23.5352 -10.1562 22.2656 -11.2793 22.2656 -14.0137 L 22.2656 -21.0449 L 89.4043 -21.0449 L 89.4043 -14.0137 C 89.4043 -11.2793 88.0859 -10.1562 85.5469 -10.1562 Z M 79.0039 -11.5723 C 81.25 -11.6211 83.0566 -13.4277 83.0566 -15.625 C 83.0566 -17.8711 81.25 -19.7266 79.0039 -19.7266 C 76.8066 -19.7266 74.9023 -17.8223 74.9023 -15.625 C 74.9023 -13.4277 76.8066 -11.5234 79.0039 -11.5723 Z"/>
  </g>
  <g id="Bold-S" transform="matrix(1 0 0 1 2284.41 696)">
   <path d="M 23.6328 1.66016 L 87.5 1.66016 C 96.4844 1.66016 101.367 -3.22266 101.367 -12.1094 L 101.367 -58.3008 C 101.367 -67.1875 96.4844 -72.0703 87.5 -72.0703 L 23.6328 -72.0703 C 14.6973 -72.0703 9.76562 -67.1875 9.76562 -58.3008 L 9.76562 -12.1094 C 9.76562 -3.22266 14.6973 1.66016 23.6328 1.66016 Z M 20.3613 -56.9824 C 20.3613 -60.0586 21.9238 -61.4746 24.8047 -61.4746 L 86.3281 -61.4746 C 89.209 -61.4746 90.7715 -60.0586 90.7715 -56.9824 L 90.7715 -49.2188 L 20.3613 -49.2188 Z M 79.3945 -50.9766 C 81.7383 -51.0254 83.7402 -52.9785 83.7402 -55.3711 C 83.7402 -57.8125 81.7383 -59.8145 79.3945 -59.8145 C 77.002 -59.8145 74.9512 -57.7637 74.9512 -55.3711 C 74.9512 -52.9785 77.002 -50.9277 79.3945 -50.9766 Z M 20.3613 -29.1016 L 20.3613 -41.3086 L 90.7715 -41.3086 L 90.7715 -29.1016 Z M 79.3945 -30.8105 C 81.7383 -30.8594 83.7402 -32.8613 83.7402 -35.2051 C 83.7402 -37.6465 81.7383 -39.6484 79.3945 -39.6484 C 77.002 -39.6484 74.9512 -37.5977 74.9512 -35.2051 C 74.9512 -32.8613 77.002 -30.7617 79.3945 -30.8105 Z M 24.8047 -8.93555 C 21.9238 -8.93555 20.3613 -10.3516 20.3613 -13.4277 L 20.3613 -21.1426 L 90.7715 -21.1426 L 90.7715 -13.4277 C 90.7715 -10.3516 89.209 -8.93555 86.3281 -8.93555 Z M 79.3945 -10.6934 C 81.7383 -10.7422 83.7402 -12.7441 83.7402 -15.0879 C 83.7402 -17.5293 81.7383 -19.5312 79.3945 -19.5312 C 77.002 -19.5312 74.9512 -17.4805 74.9512 -15.0879 C 74.9512 -12.7441 77.002 -10.6445 79.3945 -10.6934 Z"/>
  </g>
  <g id="Semibold-S" transform="matrix(1 0 0 1 1987.9 696)">
   <path d="M 23.0957 1.17188 L 87.6465 1.17188 C 96.3867 1.17188 100.977 -3.36914 100.977 -12.0117 L 100.977 -58.3984 C 100.977 -67.041 96.3867 -71.582 87.6465 -71.582 L 23.0957 -71.582 C 14.4043 -71.582 9.76562 -67.041 9.76562 -58.3984 L 9.76562 -12.0117 C 9.76562 -3.36914 14.4043 1.17188 23.0957 1.17188 Z M 19.0918 -57.4219 C 19.0918 -60.6934 20.752 -62.3047 23.877 -62.3047 L 86.8652 -62.3047 C 89.9902 -62.3047 91.6992 -60.6934 91.6992 -57.4219 L 91.6992 -49.1699 L 19.0918 -49.1699 Z M 79.5898 -51.1719 C 82.1289 -51.2207 84.2285 -53.2715 84.2285 -55.7617 C 84.2285 -58.3008 82.1289 -60.4492 79.5898 -60.4492 C 77.0996 -60.4492 74.9512 -58.3008 74.9512 -55.7617 C 74.9512 -53.2715 77.0996 -51.123 79.5898 -51.1719 Z M 19.0918 -28.6621 L 19.0918 -41.748 L 91.6992 -41.748 L 91.6992 -28.6621 Z M 79.5898 -30.6152 C 82.1289 -30.6641 84.2285 -32.7637 84.2285 -35.2539 C 84.2285 -37.793 82.1289 -39.9414 79.5898 -39.9414 C 77.0996 -39.9414 74.9512 -37.793 74.9512 -35.2539 C 74.9512 -32.7637 77.0996 -30.5664 79.5898 -30.6152 Z M 23.877 -8.10547 C 20.752 -8.10547 19.0918 -9.7168 19.0918 -12.9883 L 19.0918 -21.1914 L 91.6992 -21.1914 L 91.6992 -12.9883 C 91.6992 -9.7168 89.9902 -8.10547 86.8652 -8.10547 Z M 79.5898 -10.1074 C 82.1289 -10.1562 84.2285 -12.2559 84.2285 -14.7461 C 84.2285 -17.2852 82.1289 -19.4336 79.5898 -19.4336 C 77.0996 -19.4336 74.9512 -17.2852 74.9512 -14.7461 C 74.9512 -12.2559 77.0996 -10.0586 79.5898 -10.1074 Z"/>
  </g>
  <g id="Medium-S" transform="matrix(1 0 0 1 1691.31 696)">
   <path d="M 22.7051 0.830078 L 87.7441 0.830078 C 96.3379 0.830078 100.732 -3.51562 100.732 -11.9629 L 100.732 -58.4473 C 100.732 -66.8945 96.3379 -71.2402 87.7441 -71.2402 L 22.7051 -71.2402 C 14.209 -71.2402 9.76562 -66.8945 9.76562 -58.4473 L 9.76562 -11.9629 C 9.76562 -3.51562 14.209 0.830078 22.7051 0.830078 Z M 18.0664 -57.7148 C 18.0664 -61.1816 19.9219 -62.9395 23.1934 -62.9395 L 87.3047 -62.9395 C 90.5762 -62.9395 92.3828 -61.1816 92.3828 -57.7148 L 92.3828 -49.1699 L 18.0664 -49.1699 Z M 79.7852 -51.2695 C 82.373 -51.3184 84.5703 -53.5156 84.5703 -56.1035 C 84.5703 -58.7402 82.373 -60.9375 79.7852 -60.9375 C 77.1973 -60.9375 75 -58.6914 75 -56.1035 C 75 -53.5156 77.1973 -51.2207 79.7852 -51.2695 Z M 18.0664 -28.3203 L 18.0664 -42.0898 L 92.3828 -42.0898 L 92.3828 -28.3203 Z M 79.7852 -30.4688 C 82.373 -30.5176 84.5703 -32.666 84.5703 -35.2539 C 84.5703 -37.8906 82.373 -40.1367 79.7852 -40.1367 C 77.1973 -40.1367 75 -37.8906 75 -35.2539 C 75 -32.666 77.1973 -30.4199 79.7852 -30.4688 Z M 23.1934 -7.4707 C 19.9219 -7.4707 18.0664 -9.22852 18.0664 -12.6953 L 18.0664 -21.2402 L 92.3828 -21.2402 L 92.3828 -12.6953 C 92.3828 -9.22852 90.5762 -7.4707 87.3047 -7.4707 Z M 79.7852 -9.66797 C 82.373 -9.7168 84.5703 -11.8652 84.5703 -14.4531 C 84.5703 -17.0898 82.373 -19.3359 79.7852 -19.3359 C 77.1973 -19.3359 75 -17.0898 75 -14.4531 C 75 -11.8652 77.1973 -9.61914 79.7852 -9.66797 Z"/>
  </g>
  <g id="Regular-S" transform="matrix(1 0 0 1 1394.79 696)">
   <path d="M 22.2168 0.390625 L 87.8906 0.390625 C 96.2402 0.390625 100.342 -3.71094 100.342 -11.9141 L 100.342 -58.4961 C 100.342 -66.6992 96.2402 -70.8008 87.8906 -70.8008 L 22.2168 -70.8008 C 13.916 -70.8008 9.76562 -66.6992 9.76562 -58.4961 L 9.76562 -11.9141 C 9.76562 -3.71094 13.916 0.390625 22.2168 0.390625 Z M 16.7969 -58.1543 C 16.7969 -61.8164 18.7988 -63.7207 22.3145 -63.7207 L 87.793 -63.7207 C 91.3086 -63.7207 93.3105 -61.8164 93.3105 -58.1543 L 93.3105 -49.1211 L 16.7969 -49.1211 Z M 80.0293 -51.4648 C 82.7637 -51.5137 85.0098 -53.7598 85.0098 -56.4941 C 85.0098 -59.2285 82.7637 -61.5723 80.0293 -61.5723 C 77.3438 -61.5723 75 -59.2285 75 -56.4941 C 75 -53.7598 77.3438 -51.416 80.0293 -51.4648 Z M 16.7969 -27.8809 L 16.7969 -42.5293 L 93.3105 -42.5293 L 93.3105 -27.8809 Z M 80.0293 -30.2734 C 82.7637 -30.3223 85.0098 -32.5684 85.0098 -35.3027 C 85.0098 -38.0371 82.7637 -40.3809 80.0293 -40.3809 C 77.3438 -40.3809 75 -38.0371 75 -35.3027 C 75 -32.5684 77.3438 -30.2246 80.0293 -30.2734 Z M 22.3145 -6.68945 C 18.7988 -6.68945 16.7969 -8.54492 16.7969 -12.2559 L 16.7969 -21.2891 L 93.3105 -21.2891 L 93.3105 -12.2559 C 93.3105 -8.54492 91.3086 -6.68945 87.793 -6.68945 Z M 80.0293 -9.08203 C 82.7637 -9.13086 85.0098 -11.377 85.0098 -14.1113 C 85.0098 -16.8457 82.7637 -19.1895 80.0293 -19.1895 C 77.3438 -19.1895 75 -16.8457 75 -14.1113 C 75 -11.377 77.3438 -9.0332 80.0293 -9.08203 Z"/>
  </g>
  <g id="Light-S" transform="matrix(1 0 0 1 1098.42 696)">
   <path d="M 21.3867 -0.292969 L 88.0371 -0.292969 C 95.752 -0.292969 99.6582 -4.15039 99.6582 -11.7676 L 99.6582 -58.5938 C 99.6582 -66.2109 95.752 -70.1172 88.0371 -70.1172 L 21.3867 -70.1172 C 13.6719 -70.1172 9.76562 -66.2598 9.76562 -58.5938 L 9.76562 -11.7676 C 9.76562 -4.15039 13.6719 -0.292969 21.3867 -0.292969 Z M 15.1855 -58.3008 C 15.1855 -62.5 17.4316 -64.6973 21.4844 -64.6973 L 87.9395 -64.6973 C 91.9434 -64.6973 94.2383 -62.5 94.2383 -58.3008 L 94.2383 -48.4375 L 15.1855 -48.4375 Z M 80.6152 -51.709 C 83.2031 -51.7578 85.3516 -53.9062 85.3516 -56.4453 C 85.3516 -59.082 83.2031 -61.2793 80.6152 -61.2793 C 78.0762 -61.2793 75.8301 -59.082 75.8301 -56.4453 C 75.8301 -53.9062 78.0762 -51.6602 80.6152 -51.709 Z M 15.1855 -27.0508 L 15.1855 -43.3105 L 94.2383 -43.3105 L 94.2383 -27.0508 Z M 80.6152 -30.5176 C 83.2031 -30.5664 85.3516 -32.7148 85.3516 -35.2539 C 85.3516 -37.8906 83.2031 -40.0879 80.6152 -40.0879 C 78.0762 -40.0879 75.8301 -37.8906 75.8301 -35.2539 C 75.8301 -32.7148 78.0762 -30.4688 80.6152 -30.5176 Z M 21.4844 -5.71289 C 17.4316 -5.71289 15.1855 -7.86133 15.1855 -12.0605 L 15.1855 -21.9727 L 94.2383 -21.9727 L 94.2383 -12.0605 C 94.2383 -7.86133 91.9434 -5.71289 87.9395 -5.71289 Z M 80.6152 -9.32617 C 83.2031 -9.375 85.3516 -11.5234 85.3516 -14.0625 C 85.3516 -16.6992 83.2031 -18.8965 80.6152 -18.8965 C 78.0762 -18.8965 75.8301 -16.6992 75.8301 -14.0625 C 75.8301 -11.5234 78.0762 -9.27734 80.6152 -9.32617 Z"/>
  </g>
  <g id="Thin-S" transform="matrix(1 0 0 1 802.174 696)">
   <path d="M 20.3125 -1.12305 L 88.1836 -1.12305 C 95.1172 -1.12305 98.7305 -4.78516 98.7305 -11.6211 L 98.7305 -58.6914 C 98.7305 -65.5762 95.1172 -69.2383 88.1836 -69.2383 L 20.3125 -69.2383 C 13.3789 -69.2383 9.76562 -65.625 9.76562 -58.6914 L 9.76562 -11.6211 C 9.76562 -4.6875 13.3789 -1.12305 20.3125 -1.12305 Z M 13.0859 -58.5449 C 13.0859 -63.3789 15.625 -65.918 20.4102 -65.918 L 88.0859 -65.918 C 92.7246 -65.918 95.4102 -63.3789 95.4102 -58.5449 L 95.4102 -47.5586 L 13.0859 -47.5586 Z M 81.3965 -52.0508 C 83.7402 -52.0996 85.7422 -54.0527 85.7422 -56.4453 C 85.7422 -58.8379 83.7402 -60.8398 81.3965 -60.8398 C 79.0039 -60.8398 76.9531 -58.8379 76.9531 -56.4453 C 76.9531 -54.0527 79.0039 -52.002 81.3965 -52.0508 Z M 13.0859 -25.9766 L 13.0859 -44.3359 L 95.4102 -44.3359 L 95.4102 -25.9766 Z M 81.3965 -30.8594 C 83.7402 -30.9082 85.7422 -32.8613 85.7422 -35.2539 C 85.7422 -37.6465 83.7402 -39.6484 81.3965 -39.6484 C 79.0039 -39.6484 76.9531 -37.6465 76.9531 -35.2539 C 76.9531 -32.8613 79.0039 -30.8105 81.3965 -30.8594 Z M 20.4102 -4.44336 C 15.625 -4.44336 13.0859 -6.93359 13.0859 -11.8164 L 13.0859 -22.8027 L 95.4102 -22.8027 L 95.4102 -11.8164 C 95.4102 -6.93359 92.7246 -4.44336 88.0859 -4.44336 Z M 81.3965 -9.66797 C 83.7402 -9.7168 85.7422 -11.6699 85.7422 -14.0625 C 85.7422 -16.4551 83.7402 -18.457 81.3965 -18.457 C 79.0039 -18.457 76.9531 -16.4551 76.9531 -14.0625 C 76.9531 -11.6699 79.0039 -9.61914 81.3965 -9.66797 Z"/>
  </g>
  <g id="Ultralight-S" transform="matrix(1 0 0 1 505.707 696)">
   <path d="M 19.7754 -1.5625 L 88.2812 -1.5625 C 94.8242 -1.5625 98.2422 -5.12695 98.2422 -11.5234 L 98.2422 -58.7891 C 98.2422 -65.2344 94.8242 -68.75 88.2812 -68.75 L 19.7754 -68.75 C 13.2324 -68.75 9.76562 -65.2832 9.76562 -58.7891 L 9.76562 -11.5234 C 9.76562 -5.0293 13.2324 -1.5625 19.7754 -1.5625 Z M 11.9629 -58.6426 C 11.9629 -63.8672 14.6484 -66.5527 19.873 -66.5527 L 88.1836 -66.5527 C 93.1641 -66.5527 96.0449 -63.8672 96.0449 -58.6426 L 96.0449 -47.0703 L 11.9629 -47.0703 Z M 81.7871 -52.1973 C 84.082 -52.2461 85.9863 -54.1504 85.9863 -56.3965 C 85.9863 -58.7402 84.082 -60.6445 81.7871 -60.6445 C 79.541 -60.6445 77.5391 -58.7402 77.5391 -56.3965 C 77.5391 -54.1504 79.541 -52.1484 81.7871 -52.1973 Z M 11.9629 -25.4395 L 11.9629 -44.873 L 96.0449 -44.873 L 96.0449 -25.4395 Z M 81.7871 -31.0059 C 84.082 -31.0547 85.9863 -32.959 85.9863 -35.2051 C 85.9863 -37.5488 84.082 -39.4531 81.7871 -39.4531 C 79.541 -39.4531 77.5391 -37.5488 77.5391 -35.2051 C 77.5391 -32.959 79.541 -30.957 81.7871 -31.0059 Z M 19.873 -3.75977 C 14.6484 -3.75977 11.9629 -6.44531 11.9629 -11.6699 L 11.9629 -23.2422 L 96.0449 -23.2422 L 96.0449 -11.6699 C 96.0449 -6.44531 93.1641 -3.75977 88.1836 -3.75977 Z M 81.7871 -9.81445 C 84.082 -9.86328 85.9863 -11.7676 85.9863 -14.0137 C 85.9863 -16.3574 84.082 -18.2617 81.7871 -18.2617 C 79.541 -18.2617 77.5391 -16.3574 77.5391 -14.0137 C 77.5391 -11.7676 79.541 -9.76562 81.7871 -9.81445 Z"/>
  </g>
 </g>
</svg>
